<svg width="16" height="17" viewBox="0 0 16 17" fill="none" xmlns="http://www.w3.org/2000/svg"><path fill-rule="evenodd" clip-rule="evenodd" d="M13.3945 2.66018C14.1445 3.41018 14.7246 4.25979 15.1347 5.209C15.5449 6.15822 15.75 7.14845 15.75 8.1797C15.75 9.58595 15.3925 10.8867 14.6777 12.082C13.9629 13.2773 13.0019 14.2266 11.7949 14.9297C10.5879 15.6328 9.28123 15.9844 7.87498 15.9844C6.53905 15.9844 5.29686 15.668 4.14843 15.0352L0 16.125L1.125 12.082C0.421874 10.8867 0.0703123 9.58595 0.0703123 8.1797C0.0703123 6.77345 0.421874 5.47267 1.125 4.27736C1.82812 3.08206 2.77734 2.13284 3.97265 1.42972C5.16796 0.726592 6.46873 0.375031 7.87498 0.375031C8.90623 0.375031 9.89646 0.574249 10.8457 0.972685C11.7949 1.37112 12.6445 1.93362 13.3945 2.66018ZM7.87498 14.6836C9.04685 14.6836 10.1367 14.3906 11.1445 13.8047C12.1523 13.2188 12.955 12.4277 13.5527 11.4316C14.1504 10.4356 14.4492 9.35157 14.4492 8.1797C14.4492 7.33595 14.2734 6.51564 13.9218 5.71877C13.5703 4.92189 13.084 4.21291 12.4629 3.59182C11.8418 2.97073 11.1386 2.49612 10.3535 2.16799C9.56834 1.83987 8.74217 1.67581 7.87498 1.67581C6.70311 1.67581 5.61913 1.96878 4.62304 2.55471C3.62694 3.14065 2.83593 3.93166 2.24999 4.92775C1.66406 5.92385 1.37109 7.00783 1.37109 8.1797C1.37109 9.42188 1.71093 10.5703 2.39062 11.625L2.53124 11.8711L1.86328 14.2617L4.32421 13.6289L4.5703 13.7695C5.57811 14.3789 6.67967 14.6836 7.87498 14.6836ZM11.5312 9.8672L11.4258 9.79688C10.7226 9.44532 10.2773 9.23438 10.0898 9.16407C9.99607 9.14063 9.91404 9.12892 9.84373 9.12892C9.77341 9.12892 9.71482 9.17579 9.66795 9.26954C9.55076 9.4336 9.33982 9.69141 9.03513 10.043C8.94138 10.1602 8.80076 10.1719 8.61326 10.0781C7.95701 9.75001 7.46483 9.45704 7.1367 9.19923C6.69139 8.84767 6.30467 8.3672 5.97655 7.75783C5.90624 7.68751 5.8828 7.62306 5.90624 7.56447C5.92967 7.50587 5.98827 7.4297 6.08202 7.33595C6.26952 7.14845 6.42186 6.93752 6.53905 6.70314C6.58592 6.60939 6.5742 6.4922 6.50389 6.35158L5.90624 4.91018C5.85936 4.76955 5.80663 4.68166 5.74803 4.6465C5.68944 4.61135 5.61327 4.59377 5.51952 4.59377H5.09764C4.91014 4.59377 4.73436 4.6758 4.5703 4.83986L4.53515 4.87502C4.11327 5.32033 3.90233 5.84767 3.90233 6.45705C3.90233 7.06642 4.16015 7.73439 4.67577 8.46095L4.74608 8.53126C5.73045 9.93751 6.8203 10.8984 8.01561 11.4141C8.60154 11.6719 9.07029 11.8359 9.42185 11.9063C9.72654 11.9531 10.0429 11.9531 10.3711 11.9063C10.582 11.8828 10.834 11.7715 11.1269 11.5723C11.4199 11.3731 11.6074 11.1738 11.6894 10.9746C11.7715 10.7754 11.8183 10.582 11.83 10.3945C11.8418 10.207 11.8359 10.0899 11.8125 10.043C11.789 9.9961 11.6953 9.93751 11.5312 9.8672Z" fill="#79BB45"/></svg>