<svg xmlns="http://www.w3.org/2000/svg" xmlns:xlink="http://www.w3.org/1999/xlink" width="76" height="76" viewBox="0 0 76 76"><defs><filter id="b" width="103.8%" height="101.8%" x="-1.9%" y="-.9%" filterUnits="objectBoundingBox"><feOffset dy="1" in="SourceAlpha" result="shadowOffsetInner1"/><feComposite in="shadowOffsetInner1" in2="SourceAlpha" k2="-1" k3="1" operator="arithmetic" result="shadowInnerInner1"/><feColorMatrix in="shadowInnerInner1" values="0 0 0 0 1 0 0 0 0 1 0 0 0 0 1 0 0 0 0.122842002 0"/></filter><path id="a" d="M38.16 20.08a82.056 82.056 0 0 0 4.84-2.2 58.976 58.976 0 0 0 4.92-2.72 63.16 63.16 0 0 0 4.6-3.12 31.577 31.577 0 0 0 3.96-3.48h8.32V64H52.88V24.08c-1.6 1.067-3.387 2.04-5.36 2.92a69.56 69.56 0 0 1-5.76 2.28l-3.6-9.2z"/></defs><g fill="none" fill-rule="evenodd"><circle cx="38" cy="38" r="38" fill="#F5FCE5"/><g fill-rule="nonzero"><use fill="#AFD551" xlink:href="#a"/><use fill="#000" filter="url(#b)" xlink:href="#a"/></g><path fill="#AFD551" fill-rule="nonzero" d="M33.063 34a2.193 2.193 0 0 1 2.184 2.033l.005.157v.949a2.193 2.193 0 0 1-2.033 2.184l-.156.006h-1.608v2.266h3.032a2.667 2.667 0 0 1 2.659 2.496l.005.168v4.624l2.83 8.425v.04a.756.756 0 0 1 .018.08l.001.039-.001.04v3.92a2.588 2.588 0 0 1-2.421 2.579l-.164.005H12.572a2.588 2.588 0 0 1-2.567-2.422L10 61.427v-3.923l.009-.082.019-.08v-.037l2.808-8.422V44.26a2.667 2.667 0 0 1 2.496-2.659l.168-.005h1.133v-3.032c0-.388.288-.708.662-.759l.104-.007h5.696c.387 0 .708.288.758.662l.007.104v3.032h6.064v-2.266h-1.608a2.193 2.193 0 0 1-2.184-2.034l-.006-.156v-.95a2.193 2.193 0 0 1 2.034-2.183l.156-.006h4.747zm2.768 15.771H14.153l-2.328 7.013h26.337l-2.33-7.013zm-19.96 3.935a.845.845 0 1 1 0 1.69.845.845 0 0 1 0-1.69zm4.56 0a.845.845 0 1 1 0 1.69.845.845 0 0 1 0-1.69zm4.562 0a.845.845 0 1 1 0 1.69.845.845 0 0 1 0-1.69zm4.563 0a.845.845 0 1 1 0 1.69.845.845 0 0 1 0-1.69zm4.56 0a.845.845 0 1 1 0 1.69.845.845 0 0 1 0-1.69zm-15.964-2.572a.845.845 0 1 1 0 1.69.845.845 0 0 1 0-1.69zm4.56 0a.845.845 0 1 1 0 1.69.845.845 0 0 1 0-1.69zm4.563 0a.845.845 0 1 1 0 1.69.845.845 0 0 1 0-1.69zm4.56 0a.845.845 0 1 1 0 1.69.845.845 0 0 1 0-1.69zm-15.202-8.008H15.5c-.584 0-1.065.442-1.126 1.01l-.007.123v3.981H35.62v-3.981c0-.584-.442-1.065-1.01-1.127l-.123-.006H23.86v2.082a.766.766 0 0 1-.661.759l-.104.007h-5.696a.766.766 0 0 1-.759-.662l-.007-.104v-2.082zm15.955 2.266a.766.766 0 0 1 .104 1.524l-.104.007h-5.696a.766.766 0 0 1-.104-1.524l.104-.007h5.696zm-10.259-6.063h-4.165v5.114h4.165v-5.114zm10.734-3.798h-4.747a.659.659 0 0 0-.651.561l-.007.098v.949c0 .33.243.604.56.651l.098.007h4.747a.658.658 0 0 0 .65-.554l.008-.104v-.95a.658.658 0 0 0-.658-.658z"/></g></svg>