<svg xmlns="http://www.w3.org/2000/svg" xmlns:xlink="http://www.w3.org/1999/xlink" width="78" height="76" viewBox="0 0 78 76"><defs><filter id="b" width="102.6%" height="101.8%" x="-1.3%" y="-.9%" filterUnits="objectBoundingBox"><feOffset dy="1" in="SourceAlpha" result="shadowOffsetInner1"/><feComposite in="shadowOffsetInner1" in2="SourceAlpha" k2="-1" k3="1" operator="arithmetic" result="shadowInnerInner1"/><feColorMatrix in="shadowInnerInner1" values="0 0 0 0 1 0 0 0 0 1 0 0 0 0 1 0 0 0 0.122842002 0"/></filter><path id="a" d="M74.24 23.12c0 2.027-.4 3.973-1.2 5.84a26.964 26.964 0 0 1-3.12 5.4 44.25 44.25 0 0 1-4.32 5c-1.6 1.6-3.173 3.12-4.72 4.56-.8.747-1.667 1.587-2.6 2.52a66.463 66.463 0 0 0-2.68 2.84 73.83 73.83 0 0 0-2.28 2.68c-.667.827-1.08 1.507-1.24 2.04h23.84v10H38.96c-.107-.587-.16-1.333-.16-2.24v-1.92c0-2.56.413-4.907 1.24-7.04a26.32 26.32 0 0 1 3.24-5.96 37.52 37.52 0 0 1 4.52-5.16c1.68-1.6 3.347-3.2 5-4.8a544.3 544.3 0 0 0 3.6-3.48 39.673 39.673 0 0 0 2.96-3.2c.853-1.04 1.52-2.08 2-3.12s.72-2.093.72-3.16c0-2.347-.667-4-2-4.96s-2.987-1.44-4.96-1.44c-1.44 0-2.787.227-4.04.68-1.253.453-2.4.987-3.44 1.6-1.04.613-1.933 1.227-2.68 1.84-.747.613-1.307 1.107-1.68 1.48l-5.92-8.32c2.347-2.187 5.08-3.987 8.2-5.4 3.12-1.413 6.467-2.12 10.04-2.12 3.253 0 6.053.373 8.4 1.12 2.347.747 4.28 1.8 5.8 3.16a12.253 12.253 0 0 1 3.36 4.96c.72 1.947 1.08 4.147 1.08 6.6z"/></defs><g fill="none" fill-rule="evenodd" transform="translate(1)"><circle cx="39" cy="38" r="38" fill="#F5FCE5"/><g fill-rule="nonzero"><use fill="#AFD551" xlink:href="#a"/><use fill="#000" filter="url(#b)" xlink:href="#a"/></g><path fill="#AFD551" fill-rule="nonzero" stroke="#AFD551" stroke-width=".8" d="M27.667 31C28.953 31 30 32.025 30 33.285v6.534c0 1.26-1.047 2.285-2.333 2.285h-5.112v3.56c0 .118-.008.234-.026.348 1.732.42 2.978 1.943 2.978 3.743 0 1.372-.734 2.578-1.838 3.263 2.477.85 4.257 3.164 4.257 5.878v3.724a.479.479 0 0 1-.484.474h-11.75a.479.479 0 0 1-.485-.474v-3.724c0-2.714 1.781-5.028 4.258-5.88a3.836 3.836 0 0 1-1.838-3.26c0-.642.161-1.265.464-1.82l-7.446.001v3.172a.473.473 0 0 1-.255.418.491.491 0 0 1-.497-.023l-5.461-3.567H2.32c-1.28 0-2.32-1.02-2.32-2.272v-9.451c0-1.254 1.04-2.273 2.32-2.273l10.813-.001v-.655c0-1.26 1.047-2.285 2.334-2.285h12.2zm-6.1 22.614c-2.973 0-5.392 2.37-5.392 5.282v3.25l2.488-.001v-3.588c0-.262.217-.474.484-.474.268 0 .484.212.484.474v3.588h3.871v-3.588c0-.262.217-.474.484-.474s.484.212.484.474v3.588h2.489v-3.25c0-2.911-2.42-5.28-5.392-5.28zm0-6.77a3.01 3.01 0 0 0-2.188.94 2.87 2.87 0 0 0-.785 1.971c0 1.605 1.334 2.912 2.973 2.912 1.639 0 2.972-1.307 2.972-2.912 0-1.5-1.148-2.746-2.67-2.896l-.151-.012-.151-.003zm6.1-14.896h-12.2c-.753 0-1.366.6-1.366 1.337v6.534c0 .737.613 1.337 1.366 1.337h1.607c.267 0 .484.212.484.474v1.722l2.67-2.092a.49.49 0 0 1 .302-.104h7.137c.753 0 1.365-.6 1.365-1.337v-6.534c0-.737-.612-1.337-1.365-1.337z"/></g></svg>