<svg xmlns="http://www.w3.org/2000/svg" xmlns:xlink="http://www.w3.org/1999/xlink" width="78" height="76" viewBox="0 0 78 76"><defs><filter id="b" width="102.6%" height="101.7%" x="-1.3%" y="-.9%" filterUnits="objectBoundingBox"><feOffset dy="1" in="SourceAlpha" result="shadowOffsetInner1"/><feComposite in="shadowOffsetInner1" in2="SourceAlpha" k2="-1" k3="1" operator="arithmetic" result="shadowInnerInner1"/><feColorMatrix in="shadowInnerInner1" values="0 0 0 0 1 0 0 0 0 1 0 0 0 0 1 0 0 0 0.122842002 0"/></filter><path id="a" d="M53.8 65.2c-1.44 0-2.96-.093-4.56-.28-1.6-.187-3.147-.44-4.64-.76a50.197 50.197 0 0 1-4.08-1.04c-1.227-.373-2.187-.72-2.88-1.04l2.32-9.92c1.387.587 3.16 1.213 5.32 1.88 2.16.667 4.84 1 8.04 1 3.68 0 6.373-.693 8.08-2.08 1.707-1.387 2.56-3.253 2.56-5.6 0-1.44-.307-2.653-.92-3.64-.613-.987-1.453-1.787-2.52-2.4s-2.333-1.04-3.8-1.28a28.985 28.985 0 0 0-4.68-.36H47.4v-9.6h5.28c1.173 0 2.307-.107 3.4-.32 1.093-.213 2.067-.573 2.92-1.08a5.655 5.655 0 0 0 2.04-2.08c.507-.88.76-1.987.76-3.32 0-1.013-.213-1.893-.64-2.64a5.745 5.745 0 0 0-1.64-1.84c-.667-.48-1.44-.84-2.32-1.08-.88-.24-1.773-.36-2.68-.36-2.293 0-4.413.347-6.36 1.04-1.947.693-3.72 1.547-5.32 2.56l-4.24-8.72a40.579 40.579 0 0 1 3-1.68 29.604 29.604 0 0 1 3.8-1.6c1.387-.48 2.867-.88 4.44-1.2 1.573-.32 3.24-.48 5-.48 3.253 0 6.067.387 8.44 1.16 2.373.773 4.333 1.867 5.88 3.28 1.547 1.413 2.693 3.067 3.44 4.96.747 1.893 1.12 3.96 1.12 6.2 0 2.187-.613 4.307-1.84 6.36s-2.88 3.613-4.96 4.68c2.88 1.173 5.107 2.92 6.68 5.24 1.573 2.32 2.36 5.107 2.36 8.36 0 2.56-.427 4.92-1.28 7.08s-2.187 4.027-4 5.6c-1.813 1.573-4.12 2.8-6.92 3.68-2.8.88-6.12 1.32-9.96 1.32z"/></defs><g fill="none" fill-rule="evenodd" transform="translate(1)"><circle cx="39" cy="38" r="38" fill="#F5FCE5"/><g fill-rule="nonzero"><use fill="#AFD551" xlink:href="#a"/><use fill="#000" filter="url(#b)" xlink:href="#a"/></g><g fill-rule="nonzero"><path fill="#AFD551" stroke="#AFD551" stroke-width=".5" d="M14.947 35A15.001 15.001 0 0 0 0 49.943c-.019.73 1.085.734 1.072.004a13.922 13.922 0 0 1 10.907-13.545 13.923 13.923 0 0 1 15.616 7.653 13.919 13.919 0 0 1-4.018 16.917 13.918 13.918 0 0 1-17.006.104l.037.007c.686.12.892-.895.213-1.051l-1.83-.368a.536.536 0 0 0-.357.005.536.536 0 0 0-.319.717l.36 1.793c.126.724 1.216.502 1.05-.214l-.042-.211a15.005 15.005 0 0 0 18.555.065 15.006 15.006 0 0 0 4.326-18.223A15.004 15.004 0 0 0 14.947 35zm1.967 1.758a.536.536 0 0 0-.376.895l.13.15c-.81-.113-1.62-.152-2.42-.103a12.324 12.324 0 0 0-8.99 19.845 12.322 12.322 0 0 0 22.064-7.547c.016-.73-1.087-.73-1.071 0a11.251 11.251 0 1 1-20.648-6.185 11.245 11.245 0 0 1 10.7-4.981l-.089.03c-.747.189-.37 1.314.34 1.013l1.694-.571a.536.536 0 0 0 .516-.573.536.536 0 0 0-.225-.421l-1.198-1.366a.536.536 0 0 0-.427-.186zm3.176 6.68c-1.152 0-2.193.123-2.986.34-.397.108-.731.235-1.009.415-.278.18-.562.463-.562.878v.15a6.393 6.393 0 0 0-4.283-1.648c-3.544 0-6.43 2.881-6.43 6.425s2.886 6.431 6.43 6.431a6.391 6.391 0 0 0 4.283-1.65v.15c0 .416.284.698.562.879.278.18.612.307 1.009.415.793.217 1.834.34 2.986.34 1.152 0 2.192-.123 2.985-.34.397-.108.731-.235 1.009-.415.278-.18.558-.463.558-.878V45.07c0-.415-.28-.698-.558-.878-.278-.18-.612-.307-1.009-.415-.793-.217-1.833-.34-2.985-.34zm0 1.071c1.074 0 2.041.121 2.7.302.306.083.536.18.671.26-.135.08-.365.177-.67.26-.66.18-1.627.302-2.701.302s-2.043-.121-2.702-.301a2.886 2.886 0 0 1-.67-.26c.135-.08.365-.178.67-.261.66-.18 1.628-.302 2.702-.302zM16.606 46.2c.154.06.318.115.498.164.793.217 1.834.34 2.986.34 1.152 0 2.192-.123 2.985-.34a5.06 5.06 0 0 0 .494-.163v1.156c-.006.006-.015.018-.067.052-.128.082-.382.19-.711.28-.66.18-1.627.3-2.701.3-1.183 0-2.224-.156-2.871-.36a6.418 6.418 0 0 0-.613-1.177V46.2zm6.963 2.359v1.368c-.006.006-.015.018-.067.051-.128.083-.382.192-.711.282-.66.18-1.627.3-2.701.3-.94 0-1.789-.096-2.43-.24.006-.107.017-.213.017-.322 0-.4-.042-.792-.113-1.173.722.151 1.577.237 2.526.237 1.152 0 2.192-.124 2.985-.341.179-.049.34-.103.494-.162zm0 2.57v1.262c-.006.006-.015.018-.067.052-.128.082-.382.19-.711.28-.66.18-1.627.304-2.701.304-1.233 0-2.351-.196-2.981-.4.177-.393.317-.806.412-1.237.728.155 1.607.242 2.569.242 1.152 0 2.192-.124 2.985-.34a5.06 5.06 0 0 0 .494-.164zm0 2.467v1.26c-.006.005-.014.017-.067.05-.128.084-.382.191-.711.281-.66.18-1.627.305-2.701.305s-2.043-.125-2.702-.305c-.33-.09-.583-.197-.711-.28-.054-.035-.065-.047-.071-.052v-1.257c.852.351 2.066.502 3.484.502 1.152 0 2.192-.123 2.985-.34.178-.049.34-.104.494-.164z"/><path fill="#FFF" d="M9.47 50.355h.298v-2.947c0-.307.278-.576.605-.576h1.075c1.7 0 2.304 1.056 2.304 2.198 0 1.43-.96 2.074-2.438 2.074h-.49v.5h1.22c.191 0 .374.153.374.354 0 .202-.164.356-.375.356h-1.219v.864c0 .201-.25.508-.528.508s-.528-.23-.528-.508v-.864H9.47c-.21 0-.374-.154-.374-.356 0-.201.182-.355.374-.355h.298v-.537H9.47c-.21 0-.374-.154-.374-.356 0-.201.182-.355.374-.355zm1.354-2.534v2.4h.624c.816 0 1.248-.384 1.248-1.2 0-.595-.23-1.2-1.248-1.2h-.624z"/></g></g></svg>