<svg xmlns="http://www.w3.org/2000/svg" xmlns:xlink="http://www.w3.org/1999/xlink" width="84" height="76" viewBox="0 0 84 76"><defs><filter id="b" width="102.4%" height="101.8%" x="-1.2%" y="-.9%" filterUnits="objectBoundingBox"><feOffset dy="1" in="SourceAlpha" result="shadowOffsetInner1"/><feComposite in="shadowOffsetInner1" in2="SourceAlpha" k2="-1" k3="1" operator="arithmetic" result="shadowInnerInner1"/><feColorMatrix in="shadowInnerInner1" values="0 0 0 0 1 0 0 0 0 1 0 0 0 0 1 0 0 0 0.122842002 0"/></filter><path id="a" d="M65.08 24.12A553.95 553.95 0 0 0 58.44 33c-2.347 3.2-4.32 6.48-5.92 9.84h12.56V24.12zM76.76 9.56v33.28h5.92v9.76h-5.92V65H65.08V52.6H41.16v-8.72c1.173-2.347 2.64-5 4.4-7.96 1.76-2.96 3.72-6 5.88-9.12 2.16-3.12 4.44-6.173 6.84-9.16 2.4-2.987 4.8-5.68 7.2-8.08h11.28z"/></defs><g fill="none" fill-rule="evenodd" transform="translate(1)"><circle cx="41" cy="38" r="38" fill="#F5FCE5"/><g fill-rule="nonzero"><use fill="#AFD551" xlink:href="#a"/><use fill="#000" filter="url(#b)" xlink:href="#a"/></g><path fill="#AFD551" fill-rule="nonzero" stroke="#AFD551" stroke-width=".3" d="M28.427 40.92c.385-.009.753.14 1.018.404.212.213.348.486.39.78l.014.149.151 4.73-.002.057v.013a2.098 2.098 0 0 1-.019.232l-.017.108-.31 2.933c-.1.961-.508 1.873-1.156 2.593l-.167.176-2.914 2.914a2.953 2.953 0 0 0-.8 1.457l-.04.21-.012.086a2.036 2.036 0 0 1 1.331 1.755l.006.18-.04 3.743a2.027 2.027 0 0 1-.614 1.435c-.342.335-.78.535-1.248.576l-.177.008h-.022l-6.212-.067a2.027 2.027 0 0 1-1.435-.614 2.024 2.024 0 0 1-.577-1.268l-.006-.18.04-3.744a2.042 2.042 0 0 1 1.252-1.858l.149-.055.063-2.86c.015-.645.25-1.256.668-1.742l.146-.158 1.726-1.725a2.792 2.792 0 0 1 1.284-.728l.21-.044.866-.15 2.505-2.506a1.775 1.775 0 0 1 1.1-.514l.173-.008.381-1.54-.073-2.252a2.455 2.455 0 0 1 2.368-2.526zm-26.86 0a2.458 2.458 0 0 1 2.373 2.365v.16L3.868 45.7l.38 1.54c.404-.002.808.13 1.137.398l.137.123 2.505 2.507.869.15c.489.083.956.303 1.335.627l.157.144 1.725 1.726c.458.457.737 1.05.8 1.686l.014.213.064 2.86c.754.25 1.317.928 1.393 1.747l.008.166.04 3.744a2.026 2.026 0 0 1-.583 1.447c-.34.347-.78.558-1.255.605l-.18.01-6.211.066h-.023c-.535 0-1.04-.207-1.425-.584a2.026 2.026 0 0 1-.604-1.255l-.01-.18-.04-3.743a2.025 2.025 0 0 1 .583-1.447 2.03 2.03 0 0 1 .589-.418l.165-.07-.013-.088a2.954 2.954 0 0 0-.693-1.51l-.145-.155-2.915-2.914a4.612 4.612 0 0 1-1.291-2.53l-.032-.24-.31-2.931-.025-.167-.01-.17V47.047L0 46.987l.151-4.733a1.378 1.378 0 0 1 1.416-1.334zM17.66 58.599h-.011c-.513 0-.94.384-1.002.882l-.008.117-.04 3.744c-.003.268.1.522.29.716.157.161.359.263.576.295l.133.01 6.212.066c.26 0 .522-.1.716-.29.161-.158.263-.36.295-.577l.01-.133.04-3.743c.003-.269-.1-.523-.29-.716a1.005 1.005 0 0 0-.577-.295l-.132-.01-6.212-.066zm-5.31 0h-.01l-6.212.066c-.268.003-.52.111-.71.305a1.006 1.006 0 0 0-.282.583l-.007.133.04 3.744a1.01 1.01 0 0 0 .888.99l.133.009 6.212-.067c.268-.002.52-.11.71-.304.157-.162.255-.365.281-.584l.008-.132-.04-3.744c-.006-.554-.459-1-1.01-1zm11.289.677a.881.881 0 1 1 0 1.762.881.881 0 0 1 0-1.762zm-17.278 0a.881.881 0 1 1 0 1.762.881.881 0 0 1 0-1.762zM1.538 41.95a.349.349 0 0 0-.347.26l-.011.08-.15 4.691.035.33.002.019.002.018.302 2.871c.077.734.386 1.431.876 1.986l.152.163 2.914 2.914c.55.55.921 1.233 1.083 1.988l.046.255.016.108 5.5-.059-.061-2.736a1.736 1.736 0 0 0-.4-1.07l-.113-.125-1.725-1.725a1.752 1.752 0 0 0-.789-.453l-.15-.032-1.03-.178a.519.519 0 0 1-.104-.03l-.007-.004a.51.51 0 0 1-.163-.108l-.001-.001h-.002l-2.62-2.623a.757.757 0 0 0-1.142.985l.073.084 3.01 3.01a.515.515 0 0 1-.665.783l-.064-.054-3.01-3.01a1.788 1.788 0 0 1 .174-2.677l.093-.067-.412-1.665c-.001-.006 0-.011-.002-.017l-.005-.026-.003-.027-.003-.053v-.009l-.001-.008.075-2.324a1.424 1.424 0 0 0-1.373-1.464zm26.918 0a1.423 1.423 0 0 0-1.366 1.329l-.002.136.075 2.323v.017l-.002.027-.005.053-.005.026v.009l-.002.008-.412 1.665a1.789 1.789 0 0 1 .376 2.623l-.109.12-3.01 3.01a.513.513 0 0 1-.729 0 .515.515 0 0 1-.06-.656l.06-.071 3.01-3.01a.757.757 0 0 0-.984-1.143l-.085.073-2.62 2.622-.002.001a.515.515 0 0 1-.164.109l-.006.003-.051.018-.053.012-1.03.178a1.757 1.757 0 0 0-.826.382l-.113.103-1.726 1.726c-.28.28-.454.64-.5 1.027l-.012.168-.061 2.736 5.5.059.015-.107a3.98 3.98 0 0 1 .953-2.056l.176-.188 2.915-2.914a3.583 3.583 0 0 0 .997-1.93l.03-.219.303-2.871.001-.019.003-.018.034-.33-.15-4.693a.347.347 0 0 0-.103-.235.347.347 0 0 0-.26-.102zm-9.324-8.011c.774.125 1.454.439 2.04.94.753.65 1.265 1.423 1.537 2.322.23.816.23 1.647 0 2.494-.23.847-.628 1.564-1.192 2.15l-5.49 5.583a1.629 1.629 0 0 1-1.192.502c-.46 0-.858-.167-1.192-.502l-5.49-5.584c-.565-.585-.962-1.302-1.192-2.149a4.398 4.398 0 0 1 .03-2.494c.252-.899.754-1.673 1.507-2.321a4.075 4.075 0 0 1 2.039-.941 4.814 4.814 0 0 1 2.306.188 4.976 4.976 0 0 1 1.992 1.223 4.976 4.976 0 0 1 1.992-1.223 4.814 4.814 0 0 1 2.305-.188z"/></g></svg>