<svg xmlns="http://www.w3.org/2000/svg" xmlns:xlink="http://www.w3.org/1999/xlink" width="89" height="76" viewBox="0 0 89 76"><defs><filter id="b" width="102.7%" height="101.8%" x="-1.3%" y="-.9%" filterUnits="objectBoundingBox"><feOffset dy="1" in="SourceAlpha" result="shadowOffsetInner1"/><feComposite in="shadowOffsetInner1" in2="SourceAlpha" k2="-1" k3="1" operator="arithmetic" result="shadowInnerInner1"/><feColorMatrix in="shadowInnerInner1" values="0 0 0 0 1 0 0 0 0 1 0 0 0 0 1 0 0 0 0.122842002 0"/></filter><path id="a" d="M75.36 48.68c0-1.547-.347-2.92-1.04-4.12-.693-1.2-1.893-2.2-3.6-3-1.707-.8-4-1.413-6.88-1.84-2.88-.427-6.507-.64-10.88-.64.587-4.96 1.067-10 1.44-15.12.373-5.12.667-9.92.88-14.4h30v10h-20c-.107 1.92-.227 3.773-.36 5.56-.133 1.787-.28 3.347-.44 4.68 7.787.533 13.533 2.36 17.24 5.48 3.707 3.12 5.56 7.453 5.56 13 0 2.56-.453 4.933-1.36 7.12-.907 2.187-2.267 4.08-4.08 5.68-1.813 1.6-4.093 2.853-6.84 3.76-2.747.907-5.96 1.36-9.64 1.36-1.44 0-2.947-.093-4.52-.28a58.241 58.241 0 0 1-4.56-.72 59.512 59.512 0 0 1-3.96-.92c-1.173-.32-2.08-.64-2.72-.96l2.16-9.84c1.333.587 3.093 1.16 5.28 1.72 2.187.56 4.8.84 7.84.84 3.68 0 6.347-.733 8-2.2 1.653-1.467 2.48-3.187 2.48-5.16z"/></defs><g fill="none" fill-rule="evenodd" transform="translate(1)"><circle cx="45" cy="38" r="38" fill="#F5FCE5"/><g fill-rule="nonzero"><use fill="#AFD551" xlink:href="#a"/><use fill="#000" filter="url(#b)" xlink:href="#a"/></g><g fill="#AFD551"><path fill-rule="nonzero" stroke="#AFD551" stroke-width=".5" d="M41.58 53.092l-3.907-10.744a.632.632 0 0 0-.806-.44l-7.198 2.827c-1.22-.683-5.842-3.232-7.291-3.473a4.66 4.66 0 0 0-.764-.06c-1.26 0-2.469.446-2.79.573-.744.088-4.681.6-7.332 1.925-2.31-1.19-4.146-2.56-4.165-2.574a.628.628 0 0 0-.907.159l-6.316 9.6a.631.631 0 0 0 .16.86l7.97 5.692c-.275.641-.29 1.285-.033 1.868.44 1.002 1.539 1.569 2.12 1.807.447 1.803 1.59 2.084 2.258 2.084.224 0 .434-.03.617-.074.637 1.412 1.516 1.729 2.177 1.728.34 0 .643-.085.884-.188.393.44 1.093 1.025 2.112 1.152a2.4 2.4 0 0 0 .3.02c.617 0 .998-.261 1.21-.48.287-.3.408-.669.458-.95l1.407.987.037.024c.124.074 1.01.585 1.951.585.282 0 .57-.045.842-.163.33-.142.737-.433 1.002-1.032.537.028 1.357-.029 2.048-.51.526-.364.883-.894 1.067-1.579.534-.046 1.336-.219 1.966-.794.469-.428.761-.992.872-1.684.563-.008 1.356-.133 1.96-.679.579-.52.85-1.285.816-2.268l6.947-3.474a.63.63 0 0 0 .328-.725zM9.356 58.795c-.122-.279-.103-.57.06-.917.395-.834.867-1.333 1.262-1.333.238 0 .525.174.832.495-.483.6-1.102 1.552-1.268 2.622-.364-.216-.73-.51-.886-.867zm2.133 1.736v-.004c-.172-.94.41-1.925.896-2.557l.433-.409c.276-.26.869-.674 1.285-.674.362 0 .554.48.657.97-.538.64-1.824 2.35-1.84 4.031-.102.026-.22.045-.341.045-.208 0-.843 0-1.09-1.402zm3.884 3.057c-.567 0-.945-.711-1.173-1.354h.004c-.228-1.255 1.035-3.01 1.625-3.683.099-.044.3-.118.536-.118.38 0 .71.211.99.62-.27.138-.52.34-.739.602-.734.881-1.071 2.397-.884 3.854a.998.998 0 0 1-.36.08zm3.779.437c0 .099-.053.341-.166.456-.022.022-.1.09-.307.09-.045 0-.098-.003-.15-.009-.854-.107-1.373-.771-1.512-.973-.211-1.16.027-2.475.57-3.125.208-.25.434-.37.69-.371.085.004.744.068 1.078 1.193l-.22 2.664.017.04v.035zm13.496-5.406c-.362.328-.952.374-1.326.355l-4.813-4.365a.632.632 0 0 0-.848.936l4.643 4.211c-.032.535-.192.952-.493 1.23-.4.367-.96.458-1.296.478l-4.52-4.318a.632.632 0 0 0-.872.913l4.375 4.18c-.096.464-.285.803-.589 1.016-.297.209-.657.275-.964.29-.017-.02-.025-.044-.044-.063l-3.936-3.734a.632.632 0 0 0-.87.916l3.438 3.262-.011.054c-.125.558-.365.663-.445.697-.492.214-1.345-.17-1.63-.334l-1.976-1.386.162-1.782-.028-.108c-.374-1.412-1.224-1.995-1.887-2.173-.72-1.49-1.768-1.724-2.353-1.724-.167 0-.324.018-.467.045-.42-1.364-1.276-1.59-1.795-1.59-.618 0-1.216.317-1.626.6-.58-.626-1.183-.942-1.798-.942-.667 0-1.279.367-1.806 1.06l-7.38-5.272 5.62-8.544a34.192 34.192 0 0 0 4.1 2.448.63.63 0 0 0 .584-.011c1.369-.747 3.268-1.241 4.784-1.546-.386.357-.827.786-1.332 1.313-2.063 2.154-1.164 3.46-1.033 3.628.507.589 1.202.9 2.009.9 1.77 0 3.725-1.503 4.289-1.969l1.528-.17c1.04 3.59 5.087 5.131 5.956 5.423l4.945 4.945c.029.029.065.043.098.065-.016.48-.145.84-.393 1.066zm.867-2.345l-4.731-4.731a.629.629 0 0 0-.265-.158c-.047-.015-4.692-1.448-5.371-5.07a.632.632 0 0 0-.691-.511l-2.274.252a.635.635 0 0 0-.349.155c-.562.496-2.306 1.785-3.61 1.785-.426 0-.75-.134-1.016-.421-.044-.112-.217-.75.953-1.97 2.134-2.227 3.038-2.62 3.036-2.62a.482.482 0 0 0 .04-.016c.013-.005 1.195-.506 2.377-.506.197 0 .384.015.556.043 1.03.172 4.822 2.166 7.119 3.464a.63.63 0 0 0 .505.051l6.826-2.706 3.609 9.602-6.714 3.357z"/><path d="M20.8 41.7l-2.652.827-2.975 3.12-.413 1.779 1.006 1.438 2.015-.52L20.8 46.7h1.325l1.117 1.642 2.305 2.27 2.153 1.101 6.03 5.173 7.247-3.387-4.157-11.037-7.065 3.184-6.513-3.184zM10.714 55.905l-1.223.369-.68 2.567 1.903 1.93 2.395 2.248 2.355 1.136 1.803.416 2.088.449.388-2.001v-3.125l-1.912-1.053c-.408-.731-.659-1.097-.752-1.097-.138 0-1.615-.451-1.615-.451l-1.187-1.02-2.398.272-1.165-.64z"/></g></g></svg>