<svg xmlns="http://www.w3.org/2000/svg" width="32" height="30" viewBox="0 0 32 30">
    <g fill="none" fill-rule="evenodd">
        <path fill="#344154" fill-rule="nonzero" d="M5.139 19.41c-.203.514-.032 1.03.6 1.293-.102.624-.111 1.255.04 1.824.263.987.989 1.588 2.16 1.569l1.757-.17a1.838 1.838 0 0 1 1.995 1.492c.148.826.229 1.904.229 3.261a.5.5 0 0 0 1 0c0-1.412-.086-2.548-.245-3.437-.258-1.45-1.603-2.455-3.076-2.311l-1.717.167c-.652.01-.987-.268-1.137-.829-.12-.451-.096-1.023.01-1.574a.77.77 0 0 0-.544-.884c-.193-.057-.174.013-.113-.093a.774.774 0 0 0-.302-1.073c-.032-.017-.048.001-.05.016l.044-.01a.765.765 0 0 0-.286-1.195 1.929 1.929 0 0 0-.208-.074 2.825 2.825 0 0 0-.54-.104c-.196-.038-.261-.094-.28-.168a.434.434 0 0 1 .018-.207l.016-.048 1.429-2.063c.65-.991.806-2.039.682-2.975l-.1-.62-.013-.098c-.164-1.372-.062-2.622.242-3.74.328-1.213 1.025-2.326 2-3.22a9.42 9.42 0 0 1 3.11-1.92c2.396-.888 4.977-.745 7.445.036.33.105.638.215.918.327l.27.111c.207.088.348.155.418.191 5.024 2.684 6.08 7.116 4.62 11.617-.284.874-.757 1.724-1.412 2.579a7.651 7.651 0 0 0-.576.869c-.788 1.384-1.082 2.77-1.112 3.803l-.003.221v6.706a.5.5 0 0 0 1 0v-6.718c0-.062.003-.171.015-.321a7.54 7.54 0 0 1 .107-.805c.153-.819.43-1.634.862-2.391.15-.263.317-.516.5-.756.72-.94 1.248-1.888 1.57-2.878 1.595-4.916.417-9.861-5.106-12.811l-.246-.118-.244-.108a14.161 14.161 0 0 0-1.28-.471c-2.66-.843-5.458-.998-8.094-.02a10.42 10.42 0 0 0-3.438 2.12c-1.111 1.02-1.91 2.296-2.29 3.695-.336 1.24-.449 2.618-.269 4.12l.015.117.076.458a3.344 3.344 0 0 1-.497 2.441L3.645 16.36a1.385 1.385 0 0 0-.14.986c.116.477.503.81 1.118.922l.104.012.107.018c-.18.383-.114.803.305 1.112z"/>
        <path fill="#344154" fill-rule="nonzero" d="M22.88 9.428l.682-.28.66-.28c4.855-2.112 7.71-4.289 7.219-5.948-.521-1.761-4.495-1.96-10.248-.893a.5.5 0 0 0 .183.983c5.143-.954 8.82-.77 9.106.193.296 1-2.896 3.252-7.976 5.298a.5.5 0 0 0 .374.927zM9.245 13.197c2.438-.363 5.175-.98 7.971-1.808.54-.16 1.075-.325 1.605-.496a.5.5 0 1 0-.307-.952c-.522.169-1.05.332-1.582.49-2.752.814-5.444 1.421-7.834 1.777a.5.5 0 1 0 .147.99zM5.998 6.959C2.272 8.813.244 10.574.673 12.023c.278.938 1.444 1.4 3.3 1.513.635.04 1.355.037 2.148-.007a.5.5 0 0 0-.056-.999 17.59 17.59 0 0 1-2.03.008c-1.466-.09-2.29-.416-2.403-.798-.214-.724 1.567-2.272 4.812-3.886a.5.5 0 1 0-.446-.895zM1.65 3.499a.498.498 0 0 1-.018-.296c.272-.918 3.683-1.138 8.543-.294a.5.5 0 0 0 .171-.986l-.702-.116-.68-.103c-4.696-.675-7.83-.34-8.29 1.216C.59 3.2.6 3.5.696 3.802A.5.5 0 1 0 1.65 3.5z"/>
        <path fill="#344154" fill-rule="nonzero" d="M12.602 9.61c-2.307-.786-4.422-1.655-6.186-2.534a.5.5 0 1 0-.446.894c1.806.901 3.962 1.786 6.31 2.587a.5.5 0 1 0 .322-.947zM25.694 7.865c3.23 1.611 5.002 3.153 4.788 3.875-.32 1.084-4.753 1.154-10.645-.116a.5.5 0 0 0-.21.978c6.527 1.407 11.249 1.332 11.814-.579.428-1.446-1.59-3.202-5.301-5.053a.5.5 0 0 0-.446.895z"/>
        <path fill="#004283" d="M4.509 4.068l-.056.778a.157.157 0 0 0 .06.135l.61.486a.158.158 0 0 1-.061.277l-.757.188a.158.158 0 0 0-.11.098l-.274.73a.158.158 0 0 1-.282.028l-.412-.662a.158.158 0 0 0-.127-.074l-.78-.035a.158.158 0 0 1-.113-.26l.502-.597a.158.158 0 0 0 .031-.143l-.207-.752a.158.158 0 0 1 .211-.188l.723.293c.048.019.103.014.146-.015l.651-.43a.158.158 0 0 1 .245.143M20.131 7.855l.552.551c.037.037.09.053.14.044l.767-.142a.158.158 0 0 1 .17.226l-.354.696a.158.158 0 0 0 .002.146l.372.686a.158.158 0 0 1-.163.231l-.77-.122a.158.158 0 0 0-.14.047l-.537.566a.158.158 0 0 1-.27-.084l-.123-.77a.158.158 0 0 0-.088-.118l-.704-.336a.158.158 0 0 1-.003-.282l.695-.355a.158.158 0 0 0 .084-.12l.102-.773a.158.158 0 0 1 .268-.091"/>
    </g>
</svg>
