<?xml version="1.0" encoding="utf-8"?>
<!-- Generator: Adobe Illustrator 19.0.1, SVG Export Plug-In . SVG Version: 6.00 Build 0)  -->
<svg version="1.1" id="Слой_1" xmlns="http://www.w3.org/2000/svg" xmlns:xlink="http://www.w3.org/1999/xlink" x="0px" y="0px"
	 viewBox="0 0 30 30" style="enable-background:new 0 0 30 30;" xml:space="preserve">
<style type="text/css">
	.st0{fill:#FFFFFF;stroke:#344154;stroke-miterlimit:10;}
	.st1{fill:#004283;stroke:#004283;stroke-miterlimit:10;}
	.st2{fill:#FFFFFF;stroke:#000000;stroke-miterlimit:10;}
</style>
<path class="st0" d="M0.9,20.1c0.4,4,3.8,9.1,8.2,9.1c4.4,0,7.7-5.1,8.2-9.1c0.6-4.8-2.5-9.8-4-12.3c-0.4-0.7-0.9-1.3-1.5-2.5
	c-1.6-3-1.8-4.5-2.4-4.5c-0.6,0-0.8,1.4-2.5,4.5c-0.6,1.1-1,1.6-1.3,2.3C3.1,11.4,0.5,15.9,0.9,20.1z"/>
<path class="st1" d="M20.8,24.6c0.2,2,1.9,4.6,4.1,4.6c2.3,0,3.9-2.6,4.1-4.6c0.3-2.4-1.2-5-2-6.2c-0.2-0.3-0.4-0.7-0.8-1.3
	c-0.8-1.5-0.9-2.3-1.2-2.3c-0.3,0-0.4,0.7-1.3,2.3c-0.3,0.6-0.5,0.8-0.7,1.1C22,20.2,20.6,22.5,20.8,24.6z"/>
<path class="st1" d="M4,20c0,0.9,0.2,1.5,0.3,1.9c0.1,0.4,0.3,1,0.8,1.7c0.6,1,2.1,2.8,2.8,2.5c0.7-0.4-0.7-2.6-0.3-5.8
	c0.1-0.4,0.2-1.4-0.3-2.2c-0.3-0.5-0.7-0.7-0.9-0.7c-0.6-0.2-1.3-0.1-1.8,0.4C4,18.3,4,19.2,4,20z"/>
<path class="st2" d="M7.5,11.4"/>
</svg>
