<svg xmlns="http://www.w3.org/2000/svg" width="32" height="30" viewBox="0 0 32 30">
    <g fill="none" fill-rule="evenodd">
        <path fill="#344154" fill-rule="nonzero" d="M5.149 28.145v-1.631l.008-.462.017-.581c.014-.368.035-.697.064-.99a.467.467 0 0 1 .828-.248c.37.464.757.903 1.156 1.32 4.097 4.27 10.53 5.304 15.593 2.431 2.189-1.241 3.96-3.039 5.358-5.243a21.33 21.33 0 0 0 2.248-4.826c.187-.576.336-1.112.45-1.593l.104-.472.028-.148c1.116-5.623-.788-9.824-3.836-11.736a5.735 5.735 0 0 0-3.328-.878c-1.935.099-3.088 1.17-3.57 2.817-.127.438-.718.489-.912.083-.625-1.312-.962-2.83-.962-4.454v-.416a.5.5 0 1 0-1 0v.416c0 1.77.37 3.437 1.06 4.885.57 1.194 2.264 1.091 2.728-.097l.047-.136c.37-1.266 1.185-2.024 2.66-2.099a4.735 4.735 0 0 1 2.745.726c2.641 1.657 4.342 5.314 3.45 10.353l-.114.6-.073.326c-.108.455-.25.964-.428 1.513a20.342 20.342 0 0 1-2.142 4.6c-1.315 2.074-2.971 3.755-5.006 4.91-4.66 2.643-10.594 1.69-14.378-2.255a18.575 18.575 0 0 1-1.098-1.252c-.82-1.026-2.477-.532-2.604.776-.036.376-.06.799-.075 1.278l-.017.84-.001 1.643a.5.5 0 0 0 1 0z"/>
        <path fill="#344154" fill-rule="nonzero" d="M6.288 14.567v3.51a2.09 2.09 0 0 0 1.148 1.86c1.06.54 2.1.944 3.036 1.185 3.899 1.003 7.344-1.316 7.73-5.117.132-1.291-.091-2.598-.542-3.845a10.35 10.35 0 0 0-.296-.731l-.101-.218a5.904 5.904 0 0 0-.19-.366c-.97-1.815-1.615-3.751-1.989-5.67a19.14 19.14 0 0 1-.27-1.845l-.034-.418-.013-.259V1.118a.5.5 0 1 0-1 0v1.545l.007.185.016.255.028.321c.055.585.147 1.238.285 1.942a21.253 21.253 0 0 0 2.097 5.965l.067.125.095.189c.121.252.243.54.358.855.403 1.117.602 2.28.488 3.404-.324 3.184-3.173 5.102-6.486 4.25-.863-.222-1.836-.6-2.832-1.108a1.09 1.09 0 0 1-.602-.968v-3.51a.5.5 0 1 0-1 0zM1.618 28.145V23.67c0-1.573.771-2.762 1.93-3.608.558-.406.89-1.046.89-1.73v-3.766a.5.5 0 0 0-1 0v3.767c0 .36-.177.701-.479.922C1.565 20.272.62 21.733.62 23.67v4.474a.5.5 0 0 0 1 0z"/>
        <path fill="#004283" d="M27.422 20.2c1.294-2.558 1.7-4.78 1.708-4.82l.003-.016.003-.019c1.356-6.827-2.532-9.488-2.98-9.769a3.873 3.873 0 0 0-2.22-.59c-.947.049-1.487.44-1.783 1.285 3.095 1.556 5.75 5.489 5.269 13.93"/>
    </g>
</svg>
