<?xml version="1.0" encoding="utf-8"?>
<!-- Generator: Adobe Illustrator 19.0.1, SVG Export Plug-In . SVG Version: 6.00 Build 0)  -->
<svg version="1.1" id="Слой_1" xmlns="http://www.w3.org/2000/svg" xmlns:xlink="http://www.w3.org/1999/xlink" x="0px" y="0px"
	 viewBox="0 0 30 30" style="enable-background:new 0 0 30 30;" xml:space="preserve">
<style type="text/css">
	.st0{fill:#FFFFFF;stroke:#000000;stroke-miterlimit:10;}
	.st1{fill:#FFFFFF;stroke:#344154;stroke-miterlimit:10;}
	.st2{fill:none;stroke:#344154;stroke-miterlimit:10;}
	.st3{fill:none;stroke:#000000;stroke-miterlimit:10;}
	.st4{fill:none;stroke:#004283;stroke-miterlimit:10;}
	.st5{fill:#FFFFFF;stroke:#FFFFFF;stroke-miterlimit:10;}
</style>
<path class="st0" d="M14.3,19"/>
<path class="st1" d="M2.9,19c0,3.5,0,7,0,10.5h15.9c0-2.6,0-5.2,0-7.8"/>
<path class="st1" d="M18.8,21.3c0,2.7,0,5.5,0,8.2h9.5v-8.2"/>
<path class="st2" d="M19.9,18.3c-1.5-3.4-4.9-5.5-8.6-5.4c-3.9,0.1-7.3,2.7-8.4,6.4"/>
<path class="st2" d="M28.3,21.7c0-0.4,0-1.5-0.7-2.6c-0.5-0.8-1.2-1.4-2-1.8c1-0.6,1.7-1.7,1.7-2.9c0-1.9-1.6-3.4-3.5-3.4
	c-1.9,0-3.5,1.5-3.5,3.4c0,1.2,0.6,2.2,1.5,2.8c-1.6,0.7-2.8,2.2-2.9,4.1"/>
<path class="st3" d="M26.3,21.6"/>
<path class="st3" d="M21.7,21.4"/>
<path class="st2" d="M10,13.4c0,0,0-3.6,0-3.6"/>
<path class="st3" d="M7.6,7.3"/>
<path class="st2" d="M15.8,6c0.1,0,0.1,0,0.2-0.1c0.2-0.2,0.1-0.6,0-1c-0.4-1.4-0.6-2.1-1.1-2.6c-0.2-0.3-1.4-1.7-3.4-1.7
	c-1.6,0-2.6,0.8-2.9,1.1C7.1,2.9,6.9,4.6,6.9,5c0,0,0.1,0.4,0.1,0.9c0,0.1,0,0.2,0,0.3"/>
<path class="st2" d="M12.6,10.4c0.3-0.1,0.8-0.2,1.2-0.6c0.3-0.2,0.5-0.5,0.6-0.7"/>
<path class="st2" d="M8.3,9.1c0.3,0.2,1.1,0.9,2.2,1.1"/>
<path class="st2" d="M7,6c0,0.1,0.1,0.3,0.1,0.4c0,0.4-0.1,0.6-0.1,0.7C6.9,7.6,6.6,7.9,6.5,8c-0.7,0.7-1.8,0.8-2,0.8"/>
<path class="st2" d="M8.6,8.6C8.4,8.8,7.8,9.3,6.8,9.4C5.7,9.4,5,9,4.8,8.8"/>
<path class="st2" d="M16.1,5.6c0,0.2-0.2,1,0.2,1.8c0.6,1,1.7,1.2,1.8,1.2"/>
<path class="st2" d="M14.1,8.7c0.2,0.1,1.3,0.8,2.6,0.5c0.5-0.1,0.9-0.3,1.1-0.5"/>
<path class="st2" d="M12.8,13.1c0,0,0-3.2,0-3.2"/>
<ellipse class="st4" cx="13.8" cy="20.2" rx="1.6" ry="1.6"/>
<path class="st4" d="M17.1,14.5c-0.3,0.6-0.7,1.3-1.1,2c-0.5,0.8-1.1,1.5-1.6,2"/>
<path class="st4" d="M11.4,18.6c-1.3-1.5-3.2-1.9-4.3-1c-1.1,0.9-1,2.8,0.3,4.3"/>
<path class="st4" d="M5.6,14.8c0.1,0.5,0.4,1.2,1,2c0.3,0.4,0.6,0.6,0.9,0.9"/>
<rect x="10.8" y="9.6" class="st5" width="1.1" height="5.2"/>
</svg>
