<?xml version="1.0" encoding="utf-8"?>
<!-- Generator: Adobe Illustrator 19.0.1, SVG Export Plug-In . SVG Version: 6.00 Build 0)  -->
<svg version="1.1" id="Слой_1" xmlns="http://www.w3.org/2000/svg" xmlns:xlink="http://www.w3.org/1999/xlink" x="0px" y="0px"
	 viewBox="0 0 30 30" style="enable-background:new 0 0 30 30;" xml:space="preserve">
<style type="text/css">
	.st0{fill:none;stroke:#344154;stroke-miterlimit:10;}
	.st1{fill:#004283;stroke:#004283;stroke-miterlimit:10;}
	.st2{fill:none;stroke:#000000;stroke-miterlimit:10;}
</style>
<path class="st0" d="M10.8,18.5l2.9,2.4L27.9,3.3c0.4-0.5,0-1.5-0.8-2.1c-0.8-0.6-1.7-0.7-2.1-0.2C20.3,6.8,15.5,12.6,10.8,18.5z"/>
<path class="st1" d="M12.3,22.5l-2.9-2.4c-1.9,2.2-3.8,4.3-5.7,6.5c1,0,2,0,3.1,0c0.7,0,1.3,0,2,0C9.9,25.3,11.1,23.9,12.3,22.5z"/>
<path class="st2" d="M3.4,21"/>
<line class="st0" x1="12" y1="26.5" x2="29" y2="26.5"/>
<line class="st0" x1="13.7" y1="14.9" x2="16.5" y2="17.1"/>
<line class="st0" x1="15.7" y1="12.9" x2="18.5" y2="15.1"/>
<line class="st0" x1="12.7" y1="16.9" x2="15.5" y2="19.1"/>
</svg>
