<svg xmlns="http://www.w3.org/2000/svg" width="26" height="21" viewBox="0 0 26 21"><path fill="#79BB45" d="M6.805 3.04c-.068 0-.136-.035-.203-.102-.068-.068-.102-.136-.102-.204V1.516c0-.068.034-.136.102-.203.067-.068.135-.102.203-.102h18.89c.068 0 .136.034.203.102.068.067.102.135.102.203v1.218c0 .068-.034.136-.102.204-.067.067-.135.101-.203.101H6.805zM26 10.86c0 .067-.034.135-.102.203-.067.067-.135.101-.203.101H6.805c-.068 0-.136-.034-.203-.101-.068-.068-.102-.136-.102-.204V9.641c0-.068.034-.136.102-.203.067-.068.135-.102.203-.102h18.89c.068 0 .136.034.203.102.068.067.102.135.102.203v1.218zm0 8.124c0 .068-.034.136-.102.204-.067.067-.135.101-.203.101H6.805c-.068 0-.136-.034-.203-.101-.068-.068-.102-.136-.102-.204v-1.218c0-.068.034-.136.102-.203.067-.068.135-.102.203-.102h18.89c.068 0 .136.034.203.102.068.067.102.135.102.203v1.218zM4.266 3.344c0 .17-.06.313-.178.431a.588.588 0 0 1-.432.178H1.22a.588.588 0 0 1-.432-.178.588.588 0 0 1-.178-.431V.906C.61.737.67.593.787.475A.588.588 0 0 1 1.22.297h2.437c.17 0 .313.06.432.178a.588.588 0 0 1 .178.431v2.438zm0 8.125c0 .169-.06.313-.178.431a.588.588 0 0 1-.432.178H1.22a.588.588 0 0 1-.432-.178.588.588 0 0 1-.178-.431V9.03c0-.169.06-.313.178-.431a.588.588 0 0 1 .432-.178h2.437c.17 0 .313.06.432.178a.588.588 0 0 1 .178.431v2.438zm0 8.125c0 .169-.06.313-.178.431a.588.588 0 0 1-.432.178H1.22a.588.588 0 0 1-.432-.178.588.588 0 0 1-.178-.431v-2.438c0-.169.06-.313.178-.431a.588.588 0 0 1 .432-.178h2.437c.17 0 .313.06.432.178a.588.588 0 0 1 .178.431v2.438z"/></svg>