<svg xmlns="http://www.w3.org/2000/svg" width="26" height="27" viewBox="0 0 26 27"><path fill="#79BB45" d="M6.5 19.75c-.44 0-.821-.16-1.143-.482a1.562 1.562 0 0 1-.482-1.143c0-.44.16-.821.482-1.143A1.562 1.562 0 0 1 6.5 16.5c.44 0 .82.16 1.143.482.321.322.482.703.482 1.143 0 .44-.16.821-.482 1.143a1.562 1.562 0 0 1-1.143.482zm13 0c-.44 0-.821-.16-1.143-.482a1.562 1.562 0 0 1-.482-1.143c0-.44.16-.821.482-1.143A1.562 1.562 0 0 1 19.5 16.5c.44 0 .82.16 1.143.482.321.322.482.703.482 1.143 0 .44-.16.821-.482 1.143a1.562 1.562 0 0 1-1.143.482zm5.281-13c.339 0 .626.119.863.356.237.236.356.524.356.863v4.062c0 .339-.119.627-.356.864a1.175 1.175 0 0 1-.863.355h-.406v8.125c0 .44-.16.821-.482 1.143A1.562 1.562 0 0 1 22.75 23v1.625c0 .44-.16.821-.482 1.143a1.562 1.562 0 0 1-1.143.482h-2.438c-.44 0-.82-.16-1.142-.482a1.562 1.562 0 0 1-.483-1.143V23H8.937v1.625c0 .44-.16.821-.482 1.143a1.562 1.562 0 0 1-1.143.482H4.875c-.44 0-.821-.16-1.143-.482a1.562 1.562 0 0 1-.482-1.143V23c-.44 0-.821-.16-1.143-.482a1.562 1.562 0 0 1-.482-1.143V13.25h-.406c-.339 0-.627-.118-.864-.355A1.175 1.175 0 0 1 0 12.03V7.97c0-.339.118-.627.355-.863.237-.237.525-.356.864-.356h.406V4.313c0-.745.508-1.43 1.523-2.057C4.164 1.63 5.544 1.139 7.288.783 9.03.428 10.934.25 13 .25s3.97.178 5.713.533c1.743.356 3.123.847 4.139 1.473 1.015.626 1.523 1.312 1.523 2.057V6.75h.406zM7.312 24.625V23H4.875v1.625h2.437zm13.813 0V23h-2.438v1.625h2.438zm1.625-3.25v-6.5H3.25v6.5h19.5zm0-8.125v-6.5H3.25v6.5h19.5zm0-8.125v-.812c-.068-.271-.474-.576-1.219-.915-.846-.44-1.93-.778-3.25-1.015-1.59-.339-3.351-.508-5.281-.508-1.93 0-3.69.17-5.281.508-1.32.237-2.404.575-3.25 1.015-.745.339-1.151.644-1.219.915v.812h19.5z"/></svg>