<svg xmlns="http://www.w3.org/2000/svg" width="26" height="24" viewBox="0 0 26 24">
    <path fill="#344154" fill-rule="nonzero" d="M20.957 1.239a7.165 7.165 0 0 1 3.74 3 7.137 7.137 0 0 1 1.004 4.495 7.194 7.194 0 0 1-2.05 4.287l-.019.014-.39.4-.812.804-8.756 8.756a.547.547 0 0 1-.763 0l-9.626-9.626c-.686-.686-1.106-1.18-1.45-1.764a7.233 7.233 0 0 1-.842-5.083 7.137 7.137 0 0 1 3.04-4.495C5.708.911 7.858.568 9.823 1.092a7.16 7.16 0 0 1 2.72 1.415c.185.154.368.323.586.54l.168.17.193-.192c.298-.294.523-.496.771-.687a7.138 7.138 0 0 1 2.103-1.123 7.193 7.193 0 0 1 4.593.024zM13.753 22.49h-.922l.292.293c.09.09.25.09.339 0l.291-.293zM1.683 8.832l-.004-.03c0-.003 0-.006.004-.012l-.027-.203a5.956 5.956 0 0 1-.024-.399 7.978 7.978 0 0 1 .008-.617l.01-.146.03-.3.07-.41c.063-.303.147-.605.251-.9l.051-.143.053-.134.012-.023.025-.02-.016-.007.09-.2a6.666 6.666 0 0 1 .531-.93l.195-.27.037-.04-.025.025.127-.158.16-.182c.32-.355.684-.682 1.046-.937.203-.143.405-.27.609-.38l.157-.084.169-.085.158-.073.095-.041.023-.008v.003l.01-.008.32-.122a6.75 6.75 0 0 1 .692-.2l.404-.082.164-.026.019.128.004-.048-.017-.08.002-.001.016.078.008-.08.146-.017.26-.021c.24-.016.479-.019.715-.008.482.018.848.074 1.334.2.238.062.466.134.688.218.215.081.389.16.611.274.57.294 1.041.644 1.581 1.159l.286.28.343-.344-.168-.17-.295-.284a6.86 6.86 0 0 0-2.876-1.592C7.863.88 5.802 1.21 4.2 2.277a6.838 6.838 0 0 0-2.912 4.305 6.933 6.933 0 0 0 .806 4.87c.329.557.735 1.035 1.404 1.704l9.247 9.247.17-.169.164-.173-9.599-9.6a5.89 5.89 0 0 1-.603-.695l-.132-.186a6.747 6.747 0 0 1-.332-.541l-.149-.285-.111-.246-.009-.012-.012-.028.002-.001-.004-.01-.002.001-.105-.274-.084-.247-.085-.287-.089-.361-.014-.069-.057-.316-.004-.041-.005-.016-.003-.021.007.024-.005-.048v.03zm21.089 3.967l-8.414 8.416-.62.603-.238.239.343.343 8.375-8.374.5-.492.393-.396a.53.53 0 0 1-.339-.34zm-9.403 9.392h-.16l.082.082.078-.082zm10.08-9.735a.242.242 0 0 0-.24-.056l-.059.028.011-.007-.024.007-.061.08a.249.249 0 0 0 .037.29c.063.062.16.083.236.063l.052-.022.049-.044c.09-.09.09-.25 0-.339zm-.048-.77l-.005.005.028.023-.03-.017-.021.037.21.144c.024.014.031.016.036.013l.01-.01-.205-.167.029.016-.052-.044zm.192.114l-.14-.152-.026.016-.01.007.104.082.072.047zm1.305-2.981l-.01-.053-.258.036.125.013-.044.005.193.025-.005-.019.004-.019-.005.012zM1.682 7.125v.006l.296.036v-.009l-.296-.033zm21.933-2.978l-.168.134.086.033.082-.167zm-.034-.028l-.19.126.008.015.182-.14zm-9.819-.263h-.937l.3.3a.249.249 0 0 0 .29.038l.05-.038.297-.3zm-.38-.3h-.17l.084.086.086-.086zm7.733-1.416l-.052.141-.05.108-.01.03.007.002.116-.276-.011-.005zm-.007-.002l-.112.277.004.002.013-.028.042-.111.058-.139-.005-.001zm-4.934.122l-.007-.129-.04.008.038.106.009.015zM7.08 1.693l-.025.012c-.006.004-.01.009-.015.02l-.008.023-.038.16c.036.044.045.055.068.064l.028.01.014-.142-.024-.147zm16.562 10.172l-.114.142-.092.104a.526.526 0 0 1 .348.327A6.9 6.9 0 0 0 25.403 8.7a6.838 6.838 0 0 0-.962-4.304 6.865 6.865 0 0 0-3.583-2.874 6.893 6.893 0 0 0-4.4-.023 6.838 6.838 0 0 0-2.013 1.076c-.238.183-.455.38-.747.665l-.191.189.339.343.192-.192.238-.23.208-.187.217-.182.026-.019.03-.022.235-.171.123-.084.234-.147a6.53 6.53 0 0 1 .493-.269l.27-.124.045.085-.032-.09.02-.009.13-.05.229-.085.298-.096.264-.073.268-.062.343-.061.059-.007.027-.006.028-.003h.03-.03l.287-.029c.243-.019.487-.025.73-.019l.364.02.257.024.198.029c.18.029.358.066.538.112.183.046.358.097.526.153l.122.042.282.11.388.183c.146.074.288.152.427.236l.206.129.235.16.147.111-.083.125-.112.1.02.019.092.03.102-.26.141.117.214.184.095.086c.138.13.273.27.405.418l.088.1.09.107.085.107-.118.09-.102.079.21-.123-.01.019.044-.035.043.056c.164.22.314.454.45.697l.132.246.052.105.124.271.127.33.088.269.095.343.042.176.037.18.062.385.04.444a6.282 6.282 0 0 1-.013.923l-.025.237-.012.056.004.002-.04.254-.019.094c-.046.236-.105.47-.176.7l-.117.343-.101.258-.088.195a6.721 6.721 0 0 1-.722 1.19zM19.58 2.01l-.14-.02-.295-.03a6.488 6.488 0 0 0-.695-.02l-.348.02-.266.024L17.72 2l-.324.058-.257.06-.252.069-.25.079-.154.055-.246.096-.261.12-.237.123-.233.133-.228.143-.115.078-.247.178-.236.196-.198.18-.234.226-.571.573a.549.549 0 0 1-.69.062l-.073-.062-.434-.434c-.624-.623-1.123-1.015-1.744-1.334a5.15 5.15 0 0 0-.579-.26 6.592 6.592 0 0 0-.658-.21 5.45 5.45 0 0 0-1.27-.19 6.134 6.134 0 0 0-.684.008l-.191.015-.187.02-.193.028-.382.078a6.61 6.61 0 0 0-.993.316l-.012.008-.236.105a5.989 5.989 0 0 0-.891.523 6.031 6.031 0 0 0-.809.693l-.23.247-.262.307.033-.034-.197.273a6.647 6.647 0 0 0-.509.889l-.071.157-.01.027-.072.178-.048.135c-.1.284-.181.572-.24.864l-.053.293-.014.097-.03.282-.009.137c-.01.197-.012.395-.007.594l.015.282.032.322.034.21.058.292c.044.193.095.38.152.56l.073.214.093.247.144.317c.136.274.289.537.46.787.166.245.33.452.536.67l.163.168 9.594 9.595.04-.041.546-.531 9.007-8.997.022-.029.19-.199.182-.203.133-.165.16-.22c.1-.144.193-.291.279-.44l.127-.23.12-.24.059-.13.122-.301a6.42 6.42 0 0 0 .204-.659l.092-.427.031-.184.04-.338c.009-.11.015-.228.018-.356l.002-.261-.013-.315-.035-.385-.058-.355-.035-.169-.039-.163-.093-.337-.083-.254-.128-.33-.159-.337a6.41 6.41 0 0 0-.402-.685l-.15-.212-.061-.08.024.026.019-.016-.048-.017-.166-.201-.083-.093a6.442 6.442 0 0 0-.387-.4l-.19-.168-.231-.195-.137-.104-.209-.145-.34-.21a6.495 6.495 0 0 0-.413-.22l-.266-.122-.266-.104-.114-.039a7.173 7.173 0 0 0-.506-.147 5.914 5.914 0 0 0-.51-.107z"/>
</svg>
