<svg xmlns="http://www.w3.org/2000/svg" width="32" height="31" viewBox="0 0 32 31">
    <g fill="none" fill-rule="evenodd">
        <path fill="#344154" fill-rule="nonzero" d="M16.176 3.293A8.867 8.867 0 0 1 22.533.618c1.862 0 3.639.574 5.127 1.627 2.97 2.1 4.283 5.906 3.362 9.527-.405 1.594-1.015 2.987-1.886 4.013a2.513 2.513 0 0 0-.583 1.725c.15 3.931-.954 8.153-4.073 11.91-1.055 1.271-3.109.813-3.536-.783a69.846 69.846 0 0 0-2.25-6.98c-.963-2.504-4.497-2.504-5.461 0a69.801 69.801 0 0 0-2.249 6.98c-.429 1.601-2.488 2.048-3.546.771-3.11-3.751-4.21-7.965-4.063-11.89a2.54 2.54 0 0 0-.588-1.74c-.862-1.018-1.468-2.395-1.873-3.974-.933-3.633.375-7.453 3.353-9.559A8.852 8.852 0 0 1 9.395.618c2.433 0 4.705.984 6.357 2.675l.212.224.212-.224zm6.357-1.675A7.874 7.874 0 0 0 16.355 4.6l-.391.492-.391-.492a7.873 7.873 0 0 0-6.178-2.98c-1.654 0-3.23.508-4.55 1.442-2.632 1.862-3.794 5.255-2.963 8.494.34 1.325.83 2.485 1.485 3.35l.319.399a3.55 3.55 0 0 1 .688 2.252c-.139 3.699.9 7.675 3.834 11.214.54.652 1.592.424 1.81-.392a70.78 70.78 0 0 1 2.282-7.081c1.293-3.358 6.035-3.358 7.328 0a70.825 70.825 0 0 1 2.282 7.081c.218.814 1.265 1.048 1.8.404 2.943-3.545 3.985-7.53 3.843-11.233a3.524 3.524 0 0 1 .685-2.241l.32-.4c.661-.872 1.155-2.044 1.495-3.383.821-3.227-.345-6.607-2.97-8.464a7.852 7.852 0 0 0-4.55-1.443z"/>
        <path fill="#344154" fill-rule="nonzero" d="M20.762 3.85a5.947 5.947 0 0 1 1.77-.267c1.234 0 2.414.374 3.417 1.083 1.117.79 1.906 1.995 2.232 3.384a.5.5 0 1 0 .974-.228c-.38-1.622-1.308-3.039-2.63-3.973a6.883 6.883 0 0 0-3.992-1.266c-.707 0-1.403.106-2.068.313a.5.5 0 0 0 .297.955zM15.57 4.595l.194.265.069.098c.202.289.403.602.591.927.205.354.379.699.514 1.025l.095.242a.5.5 0 0 0 .962-.255l-.023-.088a9.176 9.176 0 0 0-.682-1.424c-.203-.351-.42-.688-.637-1l-.294-.404a.5.5 0 0 0-.79.614z"/>
        <path fill="#004283" d="M5.342 18.537c.061 2.366.705 6.1 3.615 9.612.02.023.029.027.049.027.058 0 .067-.033.072-.05a76.1 76.1 0 0 1 1.733-5.607c-3.012-.64-5.469-3.982-5.469-3.982M26.588 18.537a15.618 15.618 0 0 1-3.616 9.612c-.019.023-.028.027-.048.027-.059 0-.067-.033-.072-.05a75.967 75.967 0 0 0-1.733-5.607c3.012-.64 5.469-3.982 5.469-3.982"/>
    </g>
</svg>
