<svg xmlns="http://www.w3.org/2000/svg" width="27" height="30" viewBox="0 0 27 30">
    <g fill="none" fill-rule="evenodd" transform="translate(1 1)">
        <path fill="#344154" fill-rule="nonzero" d="M8.286 28.537c4.546 0 8.243-3.697 8.243-8.243 0-.255 0-.553-.043-.808h4.717l.34 2.762c-1.317.425-2.295 1.657-2.295 3.102a3.273 3.273 0 0 0 3.272 3.272 3.246 3.246 0 0 0 3.272-3.272 3.246 3.246 0 0 0-3.272-3.272h-.127l-.128-.935c.043 0 .085.043.128.043h2.21c.254 0 .424-.17.424-.425s-.17-.425-.425-.425h-2.21c-.084 0-.127.043-.212.043l-.17-1.233c.468-.297.765-.85.765-1.444v-1.657c0-.255-.17-.425-.425-.425h-7.266c-.977-1.403-2.337-2.507-3.951-3.102l-.468-2.72h9.476c.255 0 .425-.17.425-.425 0-.254-.17-.424-.425-.424h-9.603l-1.19-7.181c-.085-.553-.382-1.02-.85-1.36a2.039 2.039 0 0 0-1.53-.383 2.037 2.037 0 0 0-1.7 2.38L5.355 3h-1.87c-.255 0-.425.17-.425.425s.17.425.425.425h1.997l1.36 8.285C2.974 12.815 0 16.172 0 20.251c0 4.59 3.74 8.286 8.286 8.286zM25 25.3c0 1.36-1.096 2.5-2.5 2.5a2.471 2.471 0 0 1-2.5-2.5c0-1.404 1.096-2.5 2.5-2.5s2.5 1.14 2.5 2.5zm-3.075-8.83v1.232c0 .51-.425.934-.935.934h-4.589-.042a9.37 9.37 0 0 0-.765-2.167h6.331zM6.12 2.32A1.187 1.187 0 0 1 7.139.918c.34-.043.637.042.934.212.255.213.425.468.51.808L9.73 8.99h-.892c-.255 0-.425.17-.425.425s.17.425.425.425h1.02l.382 2.464a7.474 7.474 0 0 0-1.954-.255c-.213 0-.383 0-.595.043L6.119 2.32zm2.167 10.538a7.399 7.399 0 0 1 7.393 7.393 7.399 7.399 0 0 1-7.393 7.394A7.399 7.399 0 0 1 .892 20.25c-.042-4.036 3.315-7.393 7.394-7.393z"/>
        <path fill="#344154" fill-rule="nonzero" d="M8.557.327c.492.358.801.85.89 1.424l1.176 7.098h9.518c.31 0 .525.214.525.524 0 .31-.215.525-.525.525h-9.357l.437 2.546a8.05 8.05 0 0 1 3.863 3.076h7.266c.31 0 .525.214.525.525v1.657c0 .602-.29 1.168-.757 1.493l.147 1.064a.365.365 0 0 1 .128-.023h2.21c.31 0 .524.215.524.525 0 .31-.215.525-.525.525h-2.216l.094.692.227.005a3.344 3.344 0 0 1 3.185 3.367 3.346 3.346 0 0 1-3.372 3.372 3.373 3.373 0 0 1-3.372-3.372c0-1.43.939-2.7 2.286-3.17l-.32-2.594h-4.512c.01.092.017.19.022.3l.003.137-.002.525c-.135 4.485-3.823 8.089-8.34 8.089C3.67 28.637-.1 24.88-.1 20.25c0-4.035 2.901-7.459 6.826-8.196L5.396 3.95H3.484a.501.501 0 0 1-.525-.525c0-.31.215-.525.525-.525H5.24l-.092-.628A2.14 2.14 0 0 1 6.953-.073l.183-.022c.49-.035.994.111 1.421.422zM6.985.124l-.147.028a1.941 1.941 0 0 0-1.493 2.087l.108.747-.1.114H3.485c-.2 0-.325.125-.325.325s.126.325.325.325h1.997l.099.083 1.36 8.286-.082.115C2.978 12.916.1 16.28.1 20.25c0 4.52 3.68 8.186 8.186 8.186 4.408 0 8.007-3.518 8.14-7.895l.001-.515-.011-.276a2.661 2.661 0 0 0-.028-.248l.098-.117h4.717l.1.088.34 2.762-.07.107c-1.307.422-2.225 1.638-2.225 3.007a3.173 3.173 0 0 0 3.172 3.172c1.772 0 3.172-1.4 3.172-3.172 0-1.772-1.4-3.172-3.172-3.172h-.127l-.1-.086-.127-.935.1-.114c.025 0 .044.004.068.014l.061.029h2.207c.2 0 .325-.125.325-.325s-.125-.325-.325-.325l-2.23.001-.104.03a.322.322 0 0 1-.088.012l-.099-.087-.17-1.232.046-.098c.44-.28.718-.803.718-1.36v-1.657c0-.2-.125-.325-.325-.325l-7.348-.043c-.987-1.417-2.342-2.49-3.904-3.065l-.064-.077-.467-2.72.098-.117h9.476c.2 0 .325-.125.325-.325s-.126-.324-.325-.324h-9.603l-.099-.084-1.19-7.182C9.17 1.26 8.89.816 8.44.489A1.94 1.94 0 0 0 6.985.124zM22.5 22.7c1.444 0 2.6 1.17 2.6 2.6 0 1.43-1.156 2.6-2.6 2.6a2.571 2.571 0 0 1-2.6-2.6c0-1.459 1.141-2.6 2.6-2.6zM8.286 12.758a7.499 7.499 0 0 1 7.493 7.493 7.499 7.499 0 0 1-7.493 7.494 7.498 7.498 0 0 1-7.494-7.493c-.043-4.092 3.36-7.494 7.494-7.494zM22.5 22.9a2.371 2.371 0 0 0-2.4 2.4c0 1.348 1.052 2.4 2.4 2.4 1.333 0 2.4-1.08 2.4-2.4 0-1.32-1.067-2.4-2.4-2.4zM8.286 12.958c-4.024 0-7.336 3.311-7.294 7.293a7.299 7.299 0 0 0 7.294 7.294 7.299 7.299 0 0 0 7.293-7.294 7.299 7.299 0 0 0-7.293-7.293zm13.64 3.411l.1.1v1.233c0 .527-.41.971-.924 1.028l-.112.006H16.36l-.098-.078a9.338 9.338 0 0 0-.595-1.804l-.161-.34.09-.145h6.33zm-.1.2h-6.072c.238.497.432 1.017.581 1.558l.104.41h4.551c.42 0 .776-.324.829-.732l.006-.103v-1.133zM6.997.842L7.13.818l.02.199c.046-.006.091-.009.136-.01l-.013-.2.142.004c.191.015.378.069.573.164l.148.078c.239.2.403.43.501.72l.044.149 1.147 7.053-.099.116h-.892c-.2 0-.325.125-.325.325 0 .175.096.292.254.32l.071.005h1.02l.099.085.382 2.464-.124.112a7.34 7.34 0 0 0-1.534-.242l-.395-.01-.146.001-.146.005-.143.012-.14.023-.119-.082-1.572-9.77c-.129-.69.308-1.344.978-1.497zm.289.165l-.136.01A1.087 1.087 0 0 0 6.2 2.18l.016.124 1.556 9.673.104-.013.106-.008.097-.004.206-.002c.505 0 .99.047 1.471.141l.361.08-.346-2.23h-.934a.501.501 0 0 1-.525-.525c0-.276.17-.476.425-.517l.1-.008h.775l-1.127-6.93c-.077-.31-.23-.549-.462-.744a1.485 1.485 0 0 0-.59-.204l-.147-.006z"/>
        <circle cx="8.25" cy="20.25" r="5.25" fill="#004283"/>
        <path fill="#FFF" fill-rule="nonzero" d="M8.286 22.078c.977 0 1.784-.807 1.784-1.784 0-.978-.807-1.785-1.784-1.785-.978 0-1.785.807-1.785 1.785-.042.977.765 1.784 1.785 1.784zm0-2.762c.51 0 .935.425.935.935s-.425.935-.935.935a.943.943 0 0 1-.935-.935c0-.51.382-.935.935-.935z"/>
    </g>
</svg>
