<?xml version="1.0" encoding="utf-8"?>
<!-- Generator: Adobe Illustrator 19.0.1, SVG Export Plug-In . SVG Version: 6.00 Build 0)  -->
<svg version="1.1" id="Слой_1" xmlns="http://www.w3.org/2000/svg" xmlns:xlink="http://www.w3.org/1999/xlink" x="0px" y="0px"
	 viewBox="0 0 30 30" style="enable-background:new 0 0 30 30;" xml:space="preserve">
<style type="text/css">
	.st0{fill:none;stroke:#344154;stroke-miterlimit:10;}
	.st1{fill:none;stroke:#004283;stroke-miterlimit:10;}
</style>
<path class="st0" d="M11.2,1.3c0.2,0.8,0,1.3-0.2,1.5C10.9,3,10.6,3.3,8.4,3.5c-1.4,0.1-1.4,0-2,0.2C5.7,3.8,4.5,4,3.6,5
	C3,5.7,2.9,6.5,2.8,7.7C2.8,8.3,2.7,10,3.4,12.1c0.2,0.6,0.6,1.3,1.4,2.6c1.2,2.2,1.4,2.1,1.7,3c0.1,0.3,0.7,1.9,0.6,3.9
	c0,0.9-0.2,1.7-0.7,3.2c-0.5,1.5-1.3,3.6-2.8,6.1"/>
<path class="st0" d="M18.8,1.3c-0.2,0.8,0,1.3,0.2,1.5c0.2,0.2,0.5,0.5,2.6,0.7c1.4,0.1,1.4,0,2,0.2C24.3,3.8,25.5,4,26.4,5
	c0.6,0.7,0.7,1.6,0.8,2.7c0.1,0.6,0.2,2.3-0.6,4.4c-0.2,0.6-0.6,1.3-1.4,2.6c-1.2,2.2-1.4,2.1-1.7,3c-0.1,0.3-0.7,1.9-0.6,3.9
	c0,0.9,0.2,1.7,0.7,3.2c0.5,1.5,1.3,3.6,2.8,6.1"/>
<path class="st1" d="M6.7,9.7c-0.9,2-0.3,4.1,1.1,4.9c1.3,0.8,2.9,0.2,3.1,0.1c2-0.8,2.3-3,2.3-3.1"/>
<path class="st1" d="M23,9.7c0.9,2,0.3,4.1-1.1,4.9c-1.3,0.8-2.9,0.2-3.1,0.1c-2-0.8-2.3-3-2.3-3.1"/>
<circle class="st1" cx="9.6" cy="12.1" r="0.1"/>
<circle class="st1" cx="19.8" cy="12.1" r="0.1"/>
</svg>
