<svg width="26" height="11" viewBox="0 0 26 11" fill="none" xmlns="http://www.w3.org/2000/svg"><path d="M20.4062 0.140625C20.4765 0.0468747 20.5703 0 20.6875 0C20.8047 0 20.8984 0.0468747 20.9687 0.140625L25.6093 4.78124C25.7031 4.85155 25.75 4.9453 25.75 5.06249C25.75 5.17968 25.7031 5.27342 25.6093 5.34374L20.9687 9.98435C20.8984 10.0781 20.8047 10.125 20.6875 10.125C20.5703 10.125 20.4765 10.0781 20.4062 9.98435L19.7031 9.31638C19.6094 9.22263 19.5625 9.11717 19.5625 8.99998C19.5625 8.88279 19.6094 8.78904 19.7031 8.71873L22.5508 5.97655H0.421874C0.304687 5.97655 0.205077 5.93553 0.123047 5.8535C0.0410157 5.77147 0 5.67186 0 5.55467V4.5703C0 4.45311 0.0410157 4.35351 0.123047 4.27147C0.205077 4.18944 0.304687 4.14843 0.421874 4.14843H22.5508L19.7031 1.40625C19.6094 1.33593 19.5625 1.24218 19.5625 1.125C19.5625 1.00781 19.6094 0.902342 19.7031 0.808592L20.4062 0.140625Z" fill="#fff"/></svg>