<?xml version="1.0" encoding="utf-8"?>
<!-- Generator: Adobe Illustrator 19.0.1, SVG Export Plug-In . SVG Version: 6.00 Build 0)  -->
<svg version="1.1" id="Слой_1" xmlns="http://www.w3.org/2000/svg" xmlns:xlink="http://www.w3.org/1999/xlink" x="0px" y="0px"
	 viewBox="-290 382 30 30" style="enable-background:new -290 382 30 30;" xml:space="preserve">
<style type="text/css">
	.st0{fill:#FFFFFF;stroke:#344154;stroke-miterlimit:10;}
	.st1{fill:#FFFFFF;stroke:#004283;stroke-miterlimit:10;}
</style>
<path class="st0" d="M-260.5,394.3c0-0.6-0.3-1.1-0.7-1.6c0-0.8-0.3-2-0.9-3.1c-0.3-0.6-0.7-1-1.1-1.4c0.1-0.4,0.2-0.8,0.2-1.2
	c0-2.1-1.3-3.8-3-3.8c-1.2,0-2.2,0.9-2.7,2.2c-0.5-0.7-1.3-1.2-2.1-1.2c-0.7,0-1.4,0.4-1.9,0.9c-0.5-1.2-1.4-2-2.4-2
	c-1.1,0-2,0.8-2.4,2c-0.5-0.6-1.2-0.9-1.9-0.9c-0.6,0-1.2,0.3-1.7,0.7c-0.5-1.1-1.4-1.8-2.5-1.8c-1.6,0-3,1.7-3,3.8c0,0,0,0,0,0
	c-0.6,0.5-1.2,1.3-1.7,2.2c-0.6,1.3-0.8,2.7-0.6,3.6c-0.4,0.4-0.6,1-0.6,1.5c0,1.1,0.8,2,2,2.4c-0.6,0.5-1,1.2-1,1.9
	c0,0.9,0.6,1.8,1.5,2.3c-0.6,0.5-1,1.1-0.9,1.9c0,0.9,0.6,1.8,1.6,2.2c-0.1,0.3-0.2,0.5-0.2,0.8c0,1.2,1.4,2.2,3.2,2.2
	c1.7,0,3.1-1,3.1-2.2c0-0.8-0.6-1.4-1.4-1.8c0.3-0.4,0.4-0.8,0.4-1.3c0-0.8-0.5-1.5-1.2-2c0.8-0.5,1.2-1.3,1.2-2.1
	c0-1.2-1-2.3-2.4-2.6c0.5-0.5,0.8-1.1,0.8-1.7c0-1.1-0.9-2.1-2.2-2.5c0.2-0.3,0.3-0.5,0.4-0.8c0.1-0.1,0.1-0.2,0.2-0.4
	c0.3,0.1,0.5,0.2,0.8,0.2c0.8,0,1.5-0.4,2-1c0.5,0.8,1.3,1.3,2.2,1.3c1,0,1.8-0.6,2.3-1.5c0.5,0.7,1.2,1.2,2,1.2
	c0.8,0,1.5-0.5,2-1.2c0.5,0.9,1.4,1.5,2.3,1.5c1.1,0,2-0.7,2.4-1.8c0.5,0.9,1.4,1.5,2.3,1.5c0.2,0,0.3,0,0.5-0.1
	c0.1,0.2,0.2,0.5,0.4,0.7c0.1,0.1,0.1,0.2,0.2,0.3c-1.5,0.3-2.6,1.4-2.6,2.7c0,0.7,0.3,1.2,0.8,1.7c-1,0.5-1.6,1.4-1.6,2.3
	c0,0.4,0.1,0.8,0.3,1.1c-1.1,0.1-2,0.6-2.4,1.4c-0.2,0.4-0.2,0.9-0.1,1.4c-0.7-0.3-1.4-0.3-2.1,0.1c-0.4,0.2-0.6,0.5-0.8,0.8
	c-0.3-0.3-0.7-0.5-1.1-0.5c-1.3,0-2.3,1.6-2.3,3.7c0,1.3,0.4,2.5,1.1,3.1c0,1,0.5,1.8,1.2,1.8c0.7,0,1.2-0.8,1.2-1.8
	c0.4-0.4,0.7-0.9,0.9-1.6c1,0.9,2.2,1.2,3.2,0.6c1.1-0.6,1.5-2.1,1.1-3.6c1.7,0.7,3.6,0.2,4.2-1.1c0.4-0.9,0.2-1.9-0.5-2.7
	c1.8-0.1,3.2-1.3,3.2-2.8c0-0.7-0.3-1.2-0.8-1.7C-261.1,396.2-260.5,395.3-260.5,394.3z"/>
<circle class="st1" cx="-271" cy="405.3" r="1.7"/>
</svg>
