<svg xmlns="http://www.w3.org/2000/svg" width="32" height="32" viewBox="0 0 32 32">
    <g fill="none" fill-rule="evenodd">
        <path fill="#344154" fill-rule="nonzero" d="M27.301 26.244a8.733 8.733 0 0 0-1.387-.578l-.32-.098a24.468 24.468 0 0 1-5.85-2.605l-.509-.317a30.923 30.923 0 0 0-2.233-1.308c-1.843-.969-3.159-2.656-3.573-4.619-.263-1.247-.36-2.682-.258-4.317l.927-11.24a.5.5 0 1 0-.997-.082l-.927 11.25c-.109 1.733-.006 3.258.277 4.596.477 2.26 1.984 4.192 4.085 5.297.554.292 1.13.623 1.717.987l.444.28c2.102 1.342 4.324 2.369 6.618 3.038a8.11 8.11 0 0 1 1.519.6c.79.417 1.168.808 1.279 1.028l.145.287.321-.013c.638-.025 1.175.043 1.612.172l.226.074c.083.501-.238 1.125-.716 1.358-.664.323-1.495.346-2.401.143l-.25-.062a5.501 5.501 0 0 0-2.584-.075l-.277.07c-2.294.635-4.521.466-6.609-.28l-.346-.13c-1.986-.776-4.18-.889-6.284-.346l-.37.102c-2.138.633-4.025.815-5.6.696-.894-.068-1.707-.43-2.275-1.028-1.236-1.3-1.075-3.18-.079-5.192l.114-.224a8.488 8.488 0 0 0 .883-2.578c.185-1.137.29-2.282.325-3.425.076-2.512-.242-5.077-.927-7.645l-.164-.593c-.575-1.995-.93-3.838-1.109-5.503a19.355 19.355 0 0 1-.125-2.455l.015-.346a.5.5 0 1 0-.996-.083l-.011.187C.6 1.953.629 2.897.754 4.07c.166 1.55.48 3.244.972 5.063l.17.611c.77 2.67 1.131 5.333 1.052 7.93a25.448 25.448 0 0 1-.312 3.297 7.291 7.291 0 0 1-.62 1.95l-.162.324c-1.273 2.434-1.54 4.815.126 6.568.746.785 1.791 1.25 2.924 1.336 1.694.128 3.702-.065 5.96-.734 2.005-.594 4.113-.523 6.006.217 2.376.928 4.94 1.174 7.586.44a4.457 4.457 0 0 1 2.338.01c1.212.323 2.365.328 3.345-.149.93-.453 1.491-1.619 1.225-2.606l-.027-.09-.09-.259-.16-.092a2.95 2.95 0 0 0-.614-.244 5.596 5.596 0 0 0-1.34-.21l-.307-.007c-.273-.357-.76-.777-1.525-1.181z"/>
        <path fill="#004283" d="M5.878 28.469c-1.162-1.223-.38-3.231.189-4.32a9.455 9.455 0 0 0 .98-2.867c.186-1.152.299-2.346.335-3.548.085-2.77-.295-5.641-1.127-8.53C5.02 4.918 5.04 2.027 5.063 1.379c-1.56-.034-2.476-.137-2.476-.137-.008.108-.2 3.16 1.185 7.962.832 2.889 1.211 5.76 1.127 8.53a27.56 27.56 0 0 1-.336 3.548 9.455 9.455 0 0 1-.98 2.867c-.569 1.089-1.35 3.097-.188 4.32.402.423.99.684 1.656.734.244.018.524.03.836.03.396 0 .847-.02 1.344-.07-.54-.097-1.013-.337-1.353-.694"/>
    </g>
</svg>
