<?xml version="1.0" encoding="utf-8"?>
<!-- Generator: Adobe Illustrator 19.0.1, SVG Export Plug-In . SVG Version: 6.00 Build 0)  -->
<svg version="1.1" id="Слой_1" xmlns="http://www.w3.org/2000/svg" xmlns:xlink="http://www.w3.org/1999/xlink" x="0px" y="0px"
	 viewBox="0 0 30 30" style="enable-background:new 0 0 30 30;" xml:space="preserve">
<style type="text/css">
	.st0{fill:none;stroke:#344154;stroke-miterlimit:10;}
	.st1{fill:#004283;stroke:#004283;stroke-miterlimit:10;}
</style>
<path class="st0" d="M10.3,12c0.1,1-0.1,1.7-0.3,2.1c-1.4,2.6-5.9,1.6-8.4,4.5c-0.7,0.9-0.8,1.5-0.8,1.9c0,0.8,0.5,1.5,1.2,1.9
	c0.5,0.3,1,0.2,1.3,0.3c0.8,0.2,1.5,1.8,1.4,7.3"/>
<path class="st0" d="M19.9,12c-0.1,1,0.1,1.7,0.3,2.1c1.4,2.6,5.9,1.6,8.4,4.5c0.7,0.9,0.8,1.5,0.8,1.9c0,0.8-0.5,1.5-1.2,1.9
	c-0.5,0.3-1,0.2-1.3,0.3c-0.8,0.2-1.5,1.8-1.4,7.3"/>
<path class="st0" d="M9.6,9c0.5,3.2,2.6,8.1,5.6,8c2.9,0,5.1-4.7,5.5-8.1c0.1-0.7,0.6-5.1-2.1-7c-1.3-0.9-2.9-0.9-3.5-1
	c-0.7,0-2.4-0.1-3.7,0.9C8.8,3.7,9.5,8.2,9.6,9z"/>
<g>
	<path class="st1" d="M15.2,19.5c0-0.1,0-0.2-0.1-0.3c-0.2-0.5-0.6-1-1-0.7c-0.4,0.3-0.6,1.2-0.4,1.8c0.1,0.7,0.7,0.6,0.8,1.1
		c0.1,0.8-0.7,1.5-0.6,2.5c0,0.5,0.3,1,0.6,1.1c0.3,0.1,0.6-0.1,0.8-0.7"/>
	<path class="st1" d="M15.7,19.5c0.2-0.9,0.7-1.3,1.1-1c0.4,0.3,0.6,1.2,0.4,1.8c-0.1,0.7-0.7,0.6-0.8,1.1c-0.1,0.8,0.7,1.5,0.6,2.5
		c0,0.5-0.3,1-0.6,1.1c-0.3,0.1-0.6-0.1-0.8-0.7"/>
	<path class="st1" d="M15.2,19.2c0,0.3,0.1,0.6,0.3,0.6c0.2,0,0.3-0.2,0.3-0.6"/>
	<path class="st1" d="M15.1,24.5c0,0,0.2-0.4,0.4-0.4c0.2,0,0.3,0.2,0.4,0.5"/>
</g>
<line class="st1" x1="15.4" y1="19.6" x2="15.4" y2="23.9"/>
</svg>
