<svg width="12" height="8" viewBox="0 0 12 8" fill="none" xmlns="http://www.w3.org/2000/svg"><path d="M5.25585 7.29893L0.330078 2.37316C0.211588 2.25467 0.152344 2.11079 0.152344 1.94152C0.152344 1.77225 0.211588 1.62837 0.330078 1.50988L0.88867 0.951285C1.00716 0.832796 1.15104 0.769319 1.32031 0.760856C1.48958 0.752393 1.63346 0.807405 1.75195 0.925895L5.68749 4.86143L9.62302 0.925895C9.74151 0.807405 9.88539 0.752393 10.0547 0.760856C10.2239 0.769319 10.3678 0.832796 10.4863 0.951285L11.0449 1.50988C11.1634 1.62837 11.2226 1.77225 11.2226 1.94152C11.2226 2.11079 11.1634 2.25467 11.0449 2.37316L6.11913 7.29893C6.00064 7.43434 5.85676 7.50205 5.68749 7.50205C5.51822 7.50205 5.37434 7.43434 5.25585 7.29893Z" fill="#004283"/></svg>