<svg width="12" height="9" viewBox="0 0 12 9" fill="none" xmlns="http://www.w3.org/2000/svg"><path fill-rule="evenodd" clip-rule="evenodd" d="M10.875 0C11.1875 0 11.4531 0.109375 11.6718 0.328124C11.8906 0.546874 12 0.812498 12 1.125V7.87498C12 8.18748 11.8906 8.4531 11.6718 8.67185C11.4531 8.8906 11.1875 8.99998 10.875 8.99998H1.125C0.812498 8.99998 0.546874 8.8906 0.328124 8.67185C0.109375 8.4531 0 8.18748 0 7.87498V1.125C0 0.812498 0.109375 0.546874 0.328124 0.328124C0.546874 0.109375 0.812498 0 1.125 0H10.875ZM10.875 1.125H1.125V2.08593C1.67187 2.52343 2.72656 3.35155 4.28905 4.5703L4.49999 4.7578C4.81249 5.02343 5.06249 5.21093 5.24999 5.3203C5.54686 5.52342 5.79686 5.62499 5.99999 5.62499C6.20311 5.62499 6.45311 5.52342 6.74998 5.3203C6.93748 5.21093 7.18748 5.02343 7.49998 4.7578L7.71092 4.5703C9.27342 3.36718 10.3281 2.53906 10.875 2.08593V1.125ZM10.875 3.51562V7.87498H1.125V3.51562L3.8203 5.67186C4.22655 5.99999 4.54686 6.23436 4.78124 6.37498C5.21874 6.62498 5.62499 6.74998 5.99999 6.74998C6.37499 6.74998 6.77342 6.62498 7.1953 6.37498C7.4453 6.23436 7.76561 5.99999 8.15623 5.67186L10.875 3.51562Z" fill="#004283"/></svg>