<svg width="12" height="13" viewBox="0 0 12 13" fill="none" xmlns="http://www.w3.org/2000/svg"><path fill-rule="evenodd" clip-rule="evenodd" d="M11.1566 1.0392H11.18L8.95349 0.523575C8.70349 0.461075 8.46521 0.488419 8.23864 0.605607C8.01208 0.722794 7.84411 0.906387 7.73474 1.15639L6.72693 3.52357C6.63318 3.74232 6.61365 3.96888 6.66833 4.20325C6.72302 4.43763 6.84412 4.63294 7.03162 4.78919L7.96911 5.53919C7.28162 6.80481 6.30505 7.77356 5.03943 8.44543L4.28943 7.50793C4.13318 7.33606 3.93787 7.21887 3.7035 7.15637C3.46912 7.09387 3.24256 7.1095 3.02381 7.20325L0.656631 8.23449C0.406631 8.32824 0.223038 8.49231 0.105851 8.72668C-0.0113366 8.96105 -0.0386804 9.20324 0.0238196 9.45324L0.539443 11.6564C0.586318 11.9064 0.707412 12.1095 0.902724 12.2657C1.09804 12.422 1.32069 12.5001 1.57069 12.5001C3.46131 12.5001 5.21912 12.0235 6.84412 11.0704C8.40661 10.1642 9.6488 8.92199 10.5707 7.34387C11.5238 5.7345 12.0004 3.9845 12.0004 2.09388C12.0004 1.82826 11.9222 1.59779 11.766 1.40248C11.6097 1.20717 11.4066 1.08607 11.1566 1.0392ZM6.28162 10.1095C4.84412 10.9532 3.28944 11.3751 1.61757 11.3751L1.12538 9.2423L3.44569 8.25793L4.73475 9.85168C5.89099 9.3048 6.81677 8.68762 7.51208 8.00012C8.20739 7.31262 8.82067 6.39075 9.35192 5.2345L7.75818 3.94544L8.74255 1.62514L10.8754 2.11732C10.8754 3.78919 10.4535 5.34388 9.60973 6.78137C8.78161 8.17199 7.67224 9.28137 6.28162 10.1095Z" fill="#004283"/></svg>