<svg xmlns="http://www.w3.org/2000/svg" width="26" height="30" viewBox="0 0 26 30">
    <path fill="#344154" fill-rule="nonzero" stroke="#344154" stroke-width=".2" d="M18.404 1.022c.175-.07.385.035.456.21l6.877 17.334c.07.175-.035.386-.21.456l-10.352 4.14v6.316c0 .21-.14.351-.35.351H1.35c-.21 0-.351-.14-.351-.35V10.81c0-.21.14-.35.35-.35h5.896l-1.58-4c-.07-.176.036-.386.211-.457zm-3.93 10.14H1.702v18h12.772v-18zm-1.72 13.51c.21 0 .351.14.351.35 0 .21-.14.35-.35.35H3.35a.352.352 0 0 1-.351-.35c0-.21.14-.35.35-.35zm0-1.685c.21 0 .351.14.351.35 0 .211-.14.352-.35.352H3.35A.352.352 0 0 1 3 23.338c0-.21.14-.351.35-.351zm5.58-21.158L6.438 6.566l1.579 3.93h6.736l4.421-1.825c.176-.105.386 0 .457.176.105.175 0 .386-.176.456l-4.245 1.754v1.018l4.631-1.895c.176-.07.386.035.456.21.07.176-.035.386-.21.457l-4.877 1.93v1.087l5.263-2.105c.175-.07.386.035.456.21.07.176-.035.386-.21.456l-5.51 2.211v1.088l5.895-2.351c.176-.07.386.035.456.21.07.176-.035.386-.21.457l-6.14 2.456v1.087l6.526-2.596c.175-.07.386.035.456.21.07.176-.035.386-.21.457l-6.772 2.701v4.07L25 18.531 18.333 1.829zm-5.58 19.439c.21 0 .351.14.351.35 0 .211-.14.351-.35.351H3.35A.352.352 0 0 1 3 21.62c0-.211.14-.351.35-.351zm0-1.72c.21 0 .351.14.351.351 0 .21-.14.351-.35.351H3.35A.352.352 0 0 1 3 19.9c0-.211.14-.352.35-.352zm0-1.719c.21 0 .351.14.351.35 0 .211-.14.352-.35.352H3.35A.352.352 0 0 1 3 18.18c0-.21.14-.351.35-.351zM4.86 12.706c.21 0 .35.14.35.351v1.158h1.158c.21 0 .351.14.351.35 0 .211-.14.352-.35.352H5.21v1.158c0 .21-.14.35-.351.35-.21 0-.351-.14-.351-.35v-1.158H3.35A.352.352 0 0 1 3 14.566c0-.21.14-.351.35-.351H4.51v-1.158c0-.21.14-.35.35-.35zm5.087-5.895c.176-.07.386 0 .457.176l.42 1.088 1.088-.421c.176-.07.386 0 .456.175s-.035.386-.21.456l-1.088.421.421 1.088c.07.175-.035.386-.21.456-.07.035-.106.035-.14.035-.141 0-.246-.07-.316-.21l-.421-1.088-1.088.42c-.07.036-.105.036-.14.036-.14 0-.246-.07-.316-.21-.07-.176.035-.386.21-.457l1.088-.42-.421-1.088c-.07-.176.035-.386.21-.457z"/>
</svg>
