<?xml version="1.0" encoding="utf-8"?>
<!-- Generator: Adobe Illustrator 19.0.1, SVG Export Plug-In . SVG Version: 6.00 Build 0)  -->
<svg version="1.1" id="Слой_1" xmlns="http://www.w3.org/2000/svg" xmlns:xlink="http://www.w3.org/1999/xlink" x="0px" y="0px"
	 viewBox="0 0 30 30" style="enable-background:new 0 0 30 30;" xml:space="preserve">
<style type="text/css">
	.st0{fill:none;stroke:#344154;stroke-miterlimit:10;}
	.st1{fill:#004283;stroke:#004283;stroke-miterlimit:10;}
	.st2{fill:#FFFFFF;stroke:#344154;stroke-miterlimit:10;}
	.st3{fill:none;stroke:#004283;stroke-miterlimit:10;}
</style>
<path class="st0" d="M27.7,14.1l-2.3,0l0.1,13.8c0,0.4,0.6,0.7,1.2,0.7c0.6,0,1.1-0.3,1.1-0.7C27.7,23.3,27.7,18.7,27.7,14.1z"/>
<path class="st1" d="M25.4,12.7l2.3,0c0.1-1.8,0.1-3.5,0.2-5.3c-0.5,0.4-1,0.8-1.5,1.2c-0.3,0.3-0.6,0.5-0.9,0.8
	C25.5,10.5,25.5,11.6,25.4,12.7z"/>
<line class="st0" x1="27.8" y1="16.9" x2="25.5" y2="16.9"/>
<line class="st0" x1="27.6" y1="18.6" x2="25.4" y2="18.7"/>
<line class="st0" x1="27.4" y1="15.6" x2="25.2" y2="15.6"/>
<g>
	<path class="st2" d="M1.5,13.6c0,1.1,0.4,1.3,0.4,3.3c0,0.7-0.1,1.4,0.2,1.5c0.3,0.1,0.7-0.8,1.6-1.3c0.3-0.2,0.9-0.3,2.2-0.1
		c2.6,0.4,2.9,1.2,4.8,1.3c0.7,0,2,0,2.7-0.8c0.5-0.5,0.5-1.6,0.5-3.8c0-1.4-0.1-2.8-0.1-3.3c0-0.3-0.1-0.5-0.1-1c0-0.5,0-0.7-0.1-1
		c0,0-0.1-0.5-0.3-0.8c-0.5-0.9-3.2-1.1-5.7-0.3C6.8,7.5,5.4,8,4,9.3C3.3,9.9,1.6,11.5,1.5,13.6z"/>
	<path class="st2" d="M14.1,12.4c0.1,3.3-0.7,4.8,0,5.2c0.6,0.4,1.3-0.8,4.1-1.7c0.6-0.2,1.4-0.4,2.4-1c0.8-0.4,1.2-0.7,1.4-1
		c0.6-0.6,0.9-1.2,1-1.4c0.2-0.4,0.3-0.7,0.3-0.9c0.1-0.4,0.2-0.9,0.2-1.6c0-0.3,0-1-0.4-1.7c-0.5-0.9-1.2-1.2-1.7-1.5
		c-0.8-0.4-1.5-0.5-2.2-0.6c-0.4,0-0.9-0.1-1.9,0c-2,0.1-2.9,0.2-3.5,0.8C13.1,7.8,14,9.1,14.1,12.4z"/>
	<path class="st0" d="M13.7,17.5c-0.5,0.5-1,1.3-0.9,2c0.1,0.6,0.6,0.7,0.7,1.2c0.2,0.5-0.1,1.4-1.9,2.9"/>
	<path class="st0" d="M13.9,17.4c0.7,0.4,1.4,1,1.5,1.9c0.1,0.9-0.7,1.4-0.7,2.4c0,0.6,0.2,1.5,1.6,2.7"/>
</g>
<path class="st3" d="M20.9,13.4"/>
<path class="st3" d="M13.8,24.7"/>
<path class="st1" d="M6.9,17.5"/>
<line class="st3" x1="5.5" y1="20" x2="5.5" y2="22"/>
<line class="st3" x1="5.5" y1="23" x2="5.5" y2="25"/>
<line class="st3" x1="5.5" y1="17" x2="5.5" y2="19"/>
<line class="st3" x1="5.5" y1="14" x2="5.5" y2="16"/>
<line class="st3" x1="5.5" y1="11" x2="5.5" y2="13"/>
<line class="st3" x1="5.5" y1="8" x2="5.5" y2="10"/>
<line class="st3" x1="5.5" y1="5" x2="5.5" y2="7"/>
<line class="st3" x1="5.5" y1="2" x2="5.5" y2="4"/>
</svg>
