<?xml version="1.0" encoding="utf-8"?>
<!-- Generator: Adobe Illustrator 19.0.1, SVG Export Plug-In . SVG Version: 6.00 Build 0)  -->
<svg version="1.1" id="Слой_1" xmlns="http://www.w3.org/2000/svg" xmlns:xlink="http://www.w3.org/1999/xlink" x="0px" y="0px"
	 viewBox="0 0 30 30" style="enable-background:new 0 0 30 30;" xml:space="preserve">
<style type="text/css">
	.st0{fill:#FFFFFF;stroke:#344154;stroke-miterlimit:10;}
	.st1{fill:none;stroke:#344154;stroke-miterlimit:10;}
	.st2{fill:none;stroke:#004283;stroke-miterlimit:10;}
</style>
<path class="st0" d="M4.8,11.7c1-5.2,5.5-8.9,10.4-8.9c6.3,0,10.6,5.9,10.5,10.1c-0.1,3.8-3.8,5.1-4,9.6c-0.2,3.2,1.5,5.9,2.9,7.6"
	/>
<path class="st1" d="M5.7,23.4c2.1,0.1,3.8,0.3,5,0.5c1,0.1,1.8,0.3,2.3,0.9c0.5,0.7,0.4,1.6,0.4,2.1c-0.2,1.5-1,2.5-1.4,2.9"/>
<path class="st2" d="M4.4,17.7c-0.1,0.3-0.2,0.8-0.4,1.3c-0.2,0.5-0.4,0.6-0.3,0.9c0.1,0.6,1.2,1.1,1.2,1c0,0-0.1-0.1-0.2-0.1
	c-0.2,0-0.4,0.4-0.6,0.8c-0.2,0.4-0.3,0.6-0.2,0.8c0.1,0.4,0.5,0.7,0.6,0.7"/>
<path class="st2" d="M4.6,12.7c-0.1,0.2-0.2,0.5-0.4,0.9c-0.4,0.6-0.8,1-1,1.2c-0.5,0.4-2,1.9-1.8,2.5c0.2,0.7,2.5,0.4,3.4,0.3"/>
<path class="st2" d="M4.8,20.9c4.2-1.3,8.6-0.2,11.1,2.8c2.1,2.5,2.3,5.4,2.3,6.4"/>
<path class="st2" d="M15.4,11.6c0-0.2,0-1,0.6-1.6c0.6-0.7,1.6-1,2.5-0.7c1,0.3,1.5,1.2,1.6,1.4c0.6,1.2,0,2.5-0.2,2.8
	c-0.5,0.9-1,0.9-1.1,1.7c-0.1,0.7,0.3,1.1,0.1,1.7c-0.2,0.5-0.7,0.9-1.1,1c-1,0.3-2.3-0.4-3.2-1.9"/>
</svg>
