<svg xmlns="http://www.w3.org/2000/svg" width="21" height="33" viewBox="0 0 21 33">
    <g fill="#344154" fill-rule="nonzero" stroke="#344154" stroke-width=".1">
        <path d="M20.14 10.57c0-5.277-4.292-9.57-9.57-9.57C5.295 1 1 5.294 1 10.57v12.333c0 5.278 4.294 9.57 9.57 9.57 4.508 0 8.296-3.133 9.305-7.337l.002-.008c.17-.715.263-1.459.263-2.225V10.57zm-.787 12.333c0 .525-.05 1.037-.137 1.537l-7.895-4.874 8.032-4.958v8.295zm-.913 3.892L1.788 16.517v-1.909l17.243 10.644a8.74 8.74 0 0 1-.591 1.543zM10.57 1.788c4.843 0 8.782 3.94 8.782 8.782v3.112l-8.782 5.421-8.782-5.42V10.57c0-4.843 3.94-8.783 8.782-8.783zm0 29.897c-4.842 0-8.782-3.94-8.782-8.782v-5.46l16.27 10.043a8.784 8.784 0 0 1-7.488 4.2z"/>
        <path d="M10.539 4.05l.017.001.018-.002c.006 0 .01.004.017.004a5.99 5.99 0 0 1 5.914 5.981c0 3.3-2.684 5.985-5.984 5.985a5.991 5.991 0 0 1-5.984-5.985c0-3.3 2.685-5.985 5.985-5.985l.034.002zm.017.79a1.166 1.166 0 0 0-1.149 1.164 1.167 1.167 0 0 0 2.155.618.394.394 0 0 1 .667.419c-.36.574-.98.917-1.656.917A1.957 1.957 0 0 1 8.62 6.004c0-.319.084-.615.22-.881a5.203 5.203 0 0 0-3.514 4.911 5.202 5.202 0 0 0 5.196 5.197 5.202 5.202 0 0 0 5.196-5.197 5.201 5.201 0 0 0-5.161-5.194zm1.876 6.764a.394.394 0 1 1 .682.395 3.004 3.004 0 0 1-2.593 1.496 3.004 3.004 0 0 1-2.592-1.496.393.393 0 1 1 .682-.395 2.214 2.214 0 0 0 1.91 1.102c.785 0 1.517-.422 1.91-1.102z"/>
    </g>
</svg>
