<svg xmlns="http://www.w3.org/2000/svg" width="16" height="17" viewBox="0 0 16 17"><path fill="#79BB45" d="M16 1.254v13.992c0 .234-.082.44-.246.615a.827.827 0 0 1-.633.264h-4.008v-6.117h2.04l.316-2.356h-2.356V6.141c0-.399.07-.68.211-.844.188-.211.504-.317.95-.317h1.265V2.836a19.806 19.806 0 0 0-1.828-.07c-.914 0-1.652.27-2.215.808-.562.54-.844 1.313-.844 2.32v1.758H6.613v2.356h2.04v6.117H1.128a.827.827 0 0 1-.633-.264.873.873 0 0 1-.246-.615V1.254C.25.996.332.785.496.62A.857.857 0 0 1 1.13.375H15.12c.234 0 .44.082.615.246a.827.827 0 0 1 .264.633z"/></svg>