<svg width="21" height="21" viewBox="0 0 21 21" fill="none" xmlns="http://www.w3.org/2000/svg"><path fill-rule="evenodd" clip-rule="evenodd" d="M18.609 0.913721H18.6481L14.9371 0.0543478C14.5205 -0.0498188 14.1233 -0.00424583 13.7457 0.191066C13.3681 0.386378 13.0882 0.692367 12.9059 1.10903L11.2262 5.05434C11.0699 5.41892 11.0374 5.79652 11.1285 6.18715C11.2197 6.57777 11.4215 6.90329 11.734 7.16371L13.2965 8.4137C12.1507 10.5231 10.5231 12.1377 8.4137 13.2574L7.16371 11.6949C6.90329 11.4085 6.57777 11.2132 6.18715 11.109C5.79652 11.0048 5.41892 11.0309 5.05434 11.1871L1.10903 12.9059C0.692367 13.0621 0.386378 13.3356 0.191066 13.7262C-0.00424583 14.1168 -0.0498188 14.5205 0.0543478 14.9371L0.913721 18.609C0.991846 19.0257 1.19367 19.3642 1.51919 19.6246C1.84471 19.885 2.2158 20.0152 2.63247 20.0152C5.7835 20.0152 8.71318 19.221 11.4215 17.6324C14.0257 16.122 16.096 14.0517 17.6324 11.4215C19.221 8.73922 20.0152 5.82256 20.0152 2.67153C20.0152 2.22882 19.885 1.84471 19.6246 1.51919C19.3642 1.19367 19.0257 0.991846 18.609 0.913721ZM10.484 16.0309C8.08818 17.4371 5.49704 18.1402 2.71059 18.1402L1.89028 14.5856L5.75746 12.9449L7.90589 15.6012C9.83297 14.6897 11.3759 13.6611 12.5348 12.5153C13.6936 11.3694 14.7158 9.83297 15.6012 7.90589L12.9449 5.75746L14.5856 1.89028L18.1402 2.71059C18.1402 5.49704 17.4371 8.08818 16.0309 10.484C14.6507 12.8017 12.8017 14.6507 10.484 16.0309Z" fill="#fff"/></svg>