<svg width="21" height="21" viewBox="0 0 21 21" fill="none" xmlns="http://www.w3.org/2000/svg"><path fill-rule="evenodd" clip-rule="evenodd" d="M17.8593 3.04687C18.8593 4.04687 19.6328 5.17968 20.1796 6.4453C20.7265 7.71092 21 9.03123 21 10.4062C21 12.2812 20.5234 14.0156 19.5703 15.6093C18.6171 17.2031 17.3359 18.4687 15.7265 19.4062C14.1172 20.3437 12.375 20.8125 10.5 20.8125C8.71873 20.8125 7.06248 20.3906 5.53124 19.5468L0 21L1.5 15.6093C0.562499 14.0156 0.0937498 12.2812 0.0937498 10.4062C0.0937498 8.53123 0.562499 6.79686 1.5 5.20311C2.43749 3.60937 3.70312 2.34374 5.29686 1.40625C6.89061 0.468749 8.62498 0 10.5 0C11.875 0 13.1953 0.265625 14.4609 0.796873C15.7265 1.32812 16.8593 2.07812 17.8593 3.04687ZM10.5 19.0781C12.0625 19.0781 13.5156 18.6875 14.8593 17.9062C16.2031 17.125 17.2734 16.0703 18.0703 14.7422C18.8671 13.414 19.2656 11.9687 19.2656 10.4062C19.2656 9.28123 19.0312 8.18748 18.5625 7.12498C18.0937 6.06249 17.4453 5.11718 16.6171 4.28905C15.789 3.46093 14.8515 2.82812 13.8047 2.39062C12.7578 1.95312 11.6562 1.73437 10.5 1.73437C8.93748 1.73437 7.49217 2.12499 6.16405 2.90624C4.83593 3.68749 3.78124 4.74218 2.99999 6.0703C2.21874 7.39842 1.82812 8.84373 1.82812 10.4062C1.82812 12.0625 2.28124 13.5937 3.18749 15L3.37499 15.3281L2.48437 18.5156L5.76561 17.6718L6.09374 17.8593C7.43748 18.6718 8.90623 19.0781 10.5 19.0781ZM15.375 12.6562L15.2343 12.5625C14.2968 12.0937 13.7031 11.8125 13.4531 11.7187C13.3281 11.6875 13.2187 11.6718 13.125 11.6718C13.0312 11.6718 12.9531 11.7343 12.8906 11.8593C12.7343 12.0781 12.4531 12.4218 12.0468 12.8906C11.9218 13.0468 11.7343 13.0625 11.4843 12.9375C10.6093 12.5 9.9531 12.1093 9.5156 11.7656C8.92185 11.2968 8.40623 10.6562 7.96873 9.84373C7.87498 9.74998 7.84373 9.66404 7.87498 9.58591C7.90623 9.50779 7.98436 9.40623 8.10936 9.28123C8.35935 9.03123 8.56248 8.74998 8.71873 8.43748C8.78123 8.31248 8.7656 8.15623 8.67185 7.96873L7.87498 6.04686C7.81248 5.85936 7.74217 5.74217 7.66404 5.6953C7.58592 5.64842 7.48436 5.62499 7.35936 5.62499H6.79686C6.54686 5.62499 6.31249 5.73436 6.09374 5.95311L6.04686 5.99999C5.48436 6.59373 5.20311 7.29686 5.20311 8.10936C5.20311 8.92185 5.54686 9.81248 6.23436 10.7812L6.32811 10.875C7.64061 12.75 9.09373 14.0312 10.6875 14.7187C11.4687 15.0625 12.0937 15.2812 12.5625 15.375C12.9687 15.4375 13.3906 15.4375 13.8281 15.375C14.1093 15.3437 14.4453 15.1953 14.8359 14.9297C15.2265 14.664 15.4765 14.3984 15.5859 14.1328C15.6953 13.8672 15.7578 13.6093 15.7734 13.3593C15.789 13.1093 15.7812 12.9531 15.75 12.8906C15.7187 12.8281 15.5937 12.75 15.375 12.6562Z" fill="#fff"/></svg>