<svg width="20" height="15" viewBox="0 0 20 15" fill="none" xmlns="http://www.w3.org/2000/svg"><path fill-rule="evenodd" clip-rule="evenodd" d="M18.125 0C18.6458 0 19.0885 0.182291 19.4531 0.546874C19.8177 0.911456 20 1.35416 20 1.875V13.125C20 13.6458 19.8177 14.0885 19.4531 14.4531C19.0885 14.8177 18.6458 15 18.125 15H1.875C1.35416 15 0.911456 14.8177 0.546874 14.4531C0.182291 14.0885 0 13.6458 0 13.125V1.875C0 1.35416 0.182291 0.911456 0.546874 0.546874C0.911456 0.182291 1.35416 0 1.875 0H18.125ZM18.125 1.875H1.875V3.47655C2.78645 4.20572 4.54426 5.58592 7.14842 7.61717L7.49998 7.92967C8.02081 8.37238 8.43748 8.68487 8.74998 8.86717C9.24477 9.20571 9.66144 9.37498 9.99998 9.37498C10.3385 9.37498 10.7552 9.20571 11.25 8.86717C11.5625 8.68487 11.9791 8.37238 12.5 7.92967L12.8515 7.61717C15.4557 5.61197 17.2135 4.23176 18.125 3.47655V1.875ZM18.125 13.125H1.875V5.85936L6.36717 9.4531C7.04425 9.99998 7.57811 10.3906 7.96873 10.625C8.6979 11.0416 9.37498 11.25 9.99998 11.25C10.625 11.25 11.289 11.0416 11.9922 10.625C12.4088 10.3906 12.9427 9.99998 13.5937 9.4531L18.125 5.85936V13.125Z" fill="#fff"/></svg>