<svg xmlns="http://www.w3.org/2000/svg" width="16" height="17" viewBox="0 0 16 17"><path fill="#79BB45" d="M8.125 4.207c.727 0 1.4.182 2.021.545a4.055 4.055 0 0 1 1.477 1.477c.363.62.545 1.294.545 2.021 0 .727-.182 1.4-.545 2.021a4.055 4.055 0 0 1-1.477 1.477 3.934 3.934 0 0 1-2.021.545c-.727 0-1.4-.182-2.021-.545a4.055 4.055 0 0 1-1.477-1.477 3.934 3.934 0 0 1-.545-2.021c0-.727.182-1.4.545-2.021a4.055 4.055 0 0 1 1.477-1.477 3.934 3.934 0 0 1 2.021-.545zm0 6.68a2.54 2.54 0 0 0 1.863-.774 2.54 2.54 0 0 0 .774-1.863 2.54 2.54 0 0 0-.774-1.863 2.54 2.54 0 0 0-1.863-.774 2.54 2.54 0 0 0-1.863.774 2.54 2.54 0 0 0-.774 1.863c0 .727.258 1.348.774 1.863a2.54 2.54 0 0 0 1.863.774zm5.168-6.856c-.024.258-.123.48-.299.668a.856.856 0 0 1-.65.281.913.913 0 0 1-.668-.28.913.913 0 0 1-.281-.669c0-.258.093-.48.28-.668a.913.913 0 0 1 .669-.28c.258 0 .48.093.668.28.187.188.28.41.28.668zm2.672.95c.023.656.035 1.746.035 3.269 0 1.523-.018 2.62-.053 3.287-.035.668-.135 1.248-.299 1.74a4.098 4.098 0 0 1-.966 1.53 4.098 4.098 0 0 1-1.53.966c-.492.164-1.072.264-1.74.3-.668.034-1.764.052-3.287.052s-2.62-.018-3.287-.053c-.668-.035-1.248-.146-1.74-.334a3.747 3.747 0 0 1-1.53-.931 4.098 4.098 0 0 1-.966-1.53c-.165-.492-.264-1.072-.3-1.74C.269 10.87.25 9.773.25 8.25s.018-2.62.053-3.287c.035-.668.134-1.248.299-1.74A4.098 4.098 0 0 1 3.098.727C3.59.563 4.17.463 4.838.427 5.506.394 6.602.376 8.125.376s2.62.018 3.287.053c.668.035 1.248.135 1.74.299a4.098 4.098 0 0 1 2.496 2.496c.164.492.27 1.078.317 1.757zm-1.688 7.91c.14-.399.235-1.032.282-1.899.023-.515.035-1.242.035-2.18V7.689c0-.961-.012-1.688-.035-2.18-.047-.89-.141-1.524-.282-1.899a2.537 2.537 0 0 0-1.511-1.511c-.375-.14-1.008-.235-1.899-.282a51.292 51.292 0 0 0-2.18-.035H7.562c-.937 0-1.664.012-2.18.035-.866.047-1.5.141-1.898.282a2.537 2.537 0 0 0-1.511 1.511c-.141.375-.235 1.008-.282 1.899a51.292 51.292 0 0 0-.035 2.18v1.125c0 .937.012 1.664.035 2.18.047.866.141 1.5.282 1.898.304.726.808 1.23 1.511 1.511.399.141 1.032.235 1.899.282.515.023 1.242.035 2.18.035h1.124c.961 0 1.688-.012 2.18-.035.89-.047 1.524-.141 1.899-.282.726-.304 1.23-.808 1.511-1.511z"/></svg>