<svg xmlns="http://www.w3.org/2000/svg" width="44" height="22" viewBox="0 0 44 22"><g fill="#5A6B8E"><path d="M21.288.4c-4.713-1.925-7.313 5.587-10 12.05-.013-1.387.512-5.262 2.925-11.512C8.988-.65-1.825.988.338 6.6c1.624 4.213 8.337-1.15 5.85-2.725-.313 1.362-4.2 4.563-4.588 2.638-.688-3.363 7.388-5.088 9.438-4.575-1.35 2.237-6.25 13.712-8.113 12.912-.9-.387-1.575-2.6 1.225-5.213C.475 7.275-1.1 16.5 3.262 17.2c4.45.713 5.9-9.313 7.65-12.237-2.75 9.962-.112 9.887 1.675 9.5-.387-1.15 1.476-5.463 4.976-11.3-1.438 2.7-3.55 11.862-2.763 14.75.837 3.062 4.4 2.887 4.8.862-4.788.563-1.375-14.437 1.688-18.375z"/><path d="M24.175 16.175c-1.55-.35.037-5.563.212-6.825.175-1.25-.95-1.05-1.537-.938-.163.6-1.85 4.725-2.738 4.05-1.05-.8 1.438-6.937 3.35-4.35.576-.625.838-1.837-.924-2.337-3.1-.888-5.85 7.2-3.638 8.55 1.038.625 2.125.138 3.688-3.15-2.138 5.462.724 6 1.587 5z"/><path d="M23.5 5.263c.488-.038 1.4-.15 2.538-.3-.913 3.674-2.6 8.95-.826 9.862 1.175.6 2.1-.313 2.588-1.262.575 1.074 2.488 1.6 3.675 1.362-1.588-2.675 2.45-10.45 3.975-10.013-3.925-2.724-5.713 8.213-6.038 8.063-.912-.425.925-6.9 1.75-7.387-.174-.038-1.6-.613-2.45 1.2-.812 1.737-1.15 3.962-1.137 5.412-.387.7-.675.838-1.075.838-1.275.05.637-4.763 1.387-8.313 4.526-.55 10.75-1.15 11.575.2.675-2.35-.425-3.287-3.187-3.05-2.012.175-5.4.663-8.112 1.05.087-1.537-.388-2.387-2.1-1.6.512-.012.55.713.362 1.838-1.2.162-2.1.275-2.4.287-1.212.025-2.475.012-2.6-1.075-.788.888-.35 3.075 2.075 2.888z"/><path d="M41.188 7.037c-.013.188-.026.413-.038.676-.563 1.775-1.612 4.962-2.05 4.974-.55.013.538-4.524.637-5.65.113-1.112-1.187-1.487-1.875-.875.675.138.2 2.013-.175 3.938-1.274 1.763-2.362 2.575-2.9 2.537-.524-.037-.724-.6-.737-1.325 1.6-.362 4.35-3.374 2.725-4.924-2.075-2-7.125 6.624-3.262 8.162 1.65.65 3.4-1.813 3.85-2.488l.037-.15c-.125 1.25 0 2.263.825 2.425 1.325.263 2.137-1.812 2.813-3.95-.138 2.538-.488 5.425-1.825 5.863-4.138 1.35-12.938-2.063-15.438 1.725-1.675 2.537.363 3.8.675 4.025.175-5.175 11.3-2.075 15.65-3.863 3.688-1.524 2.337-12.087 3.25-13.075-.825-.025-1.975-.05-2.163 1.975zm-5.55.575c.875.3-.5 2.213-1.513 2.738.237-1.412.938-2.925 1.513-2.737z"/></g></svg>