<svg width="59" height="59" viewBox="0 0 59 59" fill="none" xmlns="http://www.w3.org/2000/svg"><path fill-rule="evenodd" clip-rule="evenodd" d="M29.0624 0C34.2968 0 39.1405 1.30859 43.5936 3.92577C48.0468 6.54295 51.5819 10.0781 54.1991 14.5312C56.8163 18.9843 58.1249 23.8281 58.1249 29.0624C58.1249 34.2968 56.8163 39.1405 54.1991 43.5936C51.5819 48.0468 48.0468 51.5819 43.5936 54.1991C39.1405 56.8163 34.2968 58.1249 29.0624 58.1249C23.8281 58.1249 18.9843 56.8163 14.5312 54.1991C10.0781 51.5819 6.54295 48.0468 3.92577 43.5936C1.30859 39.1405 0 34.2968 0 29.0624C0 23.8281 1.30859 18.9843 3.92577 14.5312C6.54295 10.0781 10.0781 6.54295 14.5312 3.92577C18.9843 1.30859 23.8281 0 29.0624 0ZM29.0624 54.3749C33.6718 54.3749 37.9101 53.2421 41.7772 50.9764C45.6444 48.7108 48.7108 45.6249 50.9764 41.7187C53.2421 37.8124 54.3749 33.5741 54.3749 29.0038C54.3749 24.4335 53.2421 20.2148 50.9764 16.3476C48.7108 12.4804 45.6249 9.41404 41.7187 7.14842C37.8124 4.8828 33.5741 3.74999 29.0038 3.74999C24.4335 3.74999 20.2148 4.8828 16.3476 7.14842C12.4804 9.41404 9.41404 12.5 7.14842 16.4062C4.8828 20.3125 3.74999 24.5507 3.74999 29.121C3.74999 33.6913 4.8828 37.9101 7.14842 41.7772C9.41404 45.6444 12.5 48.7108 16.4062 50.9764C20.3125 53.2421 24.5312 54.3749 29.0624 54.3749ZM23.5546 43.5936C23.9453 43.5936 24.2578 43.4374 24.4921 43.1249L45.703 22.1484C45.9374 21.914 46.0546 21.6015 46.0546 21.2109C46.0546 20.8203 45.9374 20.4687 45.703 20.1562L44.6483 19.2187C44.414 18.9062 44.1015 18.75 43.7108 18.75C43.3202 18.75 42.9686 18.8671 42.6562 19.1015L23.5546 38.203L15.4687 29.9999C15.1562 29.7656 14.8047 29.6484 14.414 29.6484C14.0234 29.6484 13.7109 29.7656 13.4765 29.9999L12.4218 30.9374C12.1875 31.2499 12.0703 31.6015 12.0703 31.9921C12.0703 32.3827 12.1875 32.6952 12.4218 32.9296L22.4999 43.1249C22.8124 43.4374 23.164 43.5936 23.5546 43.5936Z" fill="#7AB800"/></svg>