<svg xmlns="http://www.w3.org/2000/svg" width="16" height="17" viewBox="0 0 16 17"><path fill="#79BB45" d="M13.394 2.66c.75.75 1.33 1.6 1.74 2.549.41.95.616 1.94.616 2.97a7.466 7.466 0 0 1-1.072 3.903 7.994 7.994 0 0 1-2.883 2.848 7.654 7.654 0 0 1-3.92 1.054 7.598 7.598 0 0 1-3.727-.949L0 16.125l1.125-4.043A7.56 7.56 0 0 1 .07 8.18a7.56 7.56 0 0 1 1.055-3.903A7.897 7.897 0 0 1 3.973 1.43 7.56 7.56 0 0 1 7.875.375a7.6 7.6 0 0 1 2.97.598c.95.398 1.8.96 2.55 1.687zM7.875 14.684a6.394 6.394 0 0 0 3.27-.88 6.678 6.678 0 0 0 2.408-2.372c.597-.996.896-2.08.896-3.252 0-.844-.176-1.664-.527-2.461a6.953 6.953 0 0 0-1.46-2.127 6.514 6.514 0 0 0-2.109-1.424 6.364 6.364 0 0 0-2.478-.492 6.3 6.3 0 0 0-3.252.879A6.581 6.581 0 0 0 2.25 4.928a6.3 6.3 0 0 0-.879 3.252c0 1.242.34 2.39 1.02 3.445l.14.246-.668 2.39 2.461-.632.246.14c1.008.61 2.11.915 3.305.915zm3.55-4.887l.106.07c.164.07.258.13.281.176.024.047.03.164.018.352-.012.187-.059.38-.14.58-.083.199-.27.398-.563.597-.293.2-.545.31-.756.334a3.22 3.22 0 0 1-.95 0c-.35-.07-.82-.234-1.405-.492-1.196-.516-2.286-1.476-3.27-2.883l-.07-.07c-.516-.727-.774-1.395-.774-2.004 0-.61.211-1.137.633-1.582l.035-.035c.164-.164.34-.246.528-.246h.422a.44.44 0 0 1 .228.053c.059.035.111.123.158.263l.598 1.442c.07.14.082.257.035.351-.117.235-.27.445-.457.633a.787.787 0 0 0-.176.228c-.023.06 0 .124.07.194.329.61.715 1.09 1.16 1.441.329.258.821.551 1.477.88.188.093.328.081.422-.036.305-.352.516-.61.633-.773.047-.094.105-.141.176-.141.07 0 .152.012.246.035.187.07.633.281 1.336.633z"/></svg>