<svg xmlns="http://www.w3.org/2000/svg" width="20" height="14" viewBox="0 0 20 14"><path fill="#79BB45" d="M19.086 2.61c.164.632.281 1.593.351 2.882l.036 1.758-.036 1.758c-.07 1.312-.187 2.285-.351 2.918-.117.398-.328.75-.633 1.054a2.437 2.437 0 0 1-1.09.633c-.61.164-2.039.282-4.289.352L9.875 14l-3.2-.035c-2.25-.07-3.679-.188-4.288-.352a2.437 2.437 0 0 1-1.09-.633 2.452 2.452 0 0 1-.633-1.054C.5 11.293.383 10.32.312 9.008L.277 7.25c0-.516.012-1.102.035-1.758.07-1.289.188-2.25.352-2.883.117-.421.328-.785.633-1.09a2.437 2.437 0 0 1 1.09-.632C2.997.723 4.426.606 6.676.535L9.875.5l3.2.035c2.25.07 3.679.188 4.288.352.422.117.785.328 1.09.633.305.304.516.668.633 1.09zm-11.18 7.523l5.028-2.883-5.028-2.848v5.73z"/></svg>