<svg xmlns="http://www.w3.org/2000/svg" width="23" height="30" viewBox="0 0 23 30">
    <path fill="#344154" fill-rule="nonzero" d="M11.871 0v2.325c6.408.215 11.015 5.243 11.014 12.118 0 3.613-1.206 7.324-3.309 10.182-1.166 1.584-2.514 2.792-3.968 3.586V30h-.857v-1.37a8.507 8.507 0 0 1-2.88.67v.7h-.857v-.7a8.505 8.505 0 0 1-2.855-.66V30h-.857v-1.776c-1.463-.794-2.82-2.005-3.993-3.598C1.206 21.768 0 18.056 0 14.443 0 7.568 4.607 2.54 11.014 2.325V0h.857zm-.857 7.723c-5.17.188-9.152 3.772-9.986 9.041.89 6.18 5.207 11.381 9.986 11.677v-2.593h-1.07v-.857h1.07v-.255h-1.87v-.857h1.87zm.857 0V23.88h2.13v.857h-2.13v.255h.988v.857h-.988v2.593c4.78-.296 9.097-5.497 9.987-11.677-.834-5.27-4.817-8.853-9.987-9.04zm6.515 13.885l.718.468c-1.251 1.92-3.355 2.953-3.444 2.995l-.374-.771c.02-.01 1.982-.977 3.1-2.692zm-5.833-3.084l.855.062c-.002.028-.177 2.785 1.552 3.752l-.418.748c-2.208-1.235-1.998-4.427-1.989-4.562zm7.357-.254l.64.57c-1.298 1.46-3.067 1.784-4.38 1.784a7.645 7.645 0 0 1-1.795-.204l.217-.829c.034.008 3.39.848 5.318-1.32zM6.613 15.613c1.083 0 2.176.448 3.249 1.332l.368.304-.34.333c-.06.058-1.454 1.402-3.296 1.402-1.102 0-2.116-.475-3.013-1.412l-.266-.277.247-.294c.047-.057 1.185-1.388 3.051-1.388zm9.725-.001c1.842 0 3.237 1.344 3.295 1.402l.341.334-.368.303c-1.073.884-2.166 1.333-3.248 1.333-1.867 0-3.004-1.332-3.052-1.389l-.247-.294.266-.277c.898-.937 1.911-1.412 3.013-1.412zm-8.918.964c.157.192.255.434.255.7 0 .288-.113.547-.292.745a4.623 4.623 0 0 0 1.516-.733c-.498-.35-.992-.586-1.48-.712zm9.707 0a1.1 1.1 0 0 1 .293.744 1.1 1.1 0 0 1-.256.7c.488-.126.981-.362 1.479-.71a4.624 4.624 0 0 0-1.516-.734zm-11.456.049a3.58 3.58 0 0 0-1.162.65 3.47 3.47 0 0 0 1.21.71 1.098 1.098 0 0 1-.264-.71 1.1 1.1 0 0 1 .216-.65zm9.791-.014c-.42.138-.824.373-1.21.71a3.59 3.59 0 0 0 1.163.65 1.1 1.1 0 0 1-.216-.65c0-.272.102-.517.263-.71zm.847.456a.253.253 0 1 0 0 .507.253.253 0 0 0 0-.507zm-9.744-.044a.253.253 0 1 0 0 .507.253.253 0 0 0 0-.507zM3.171 14.9c.029-.03 2.872-2.947 7.069-.059l-.486.707c-3.6-2.479-5.937-.083-5.96-.059zm9.745 0c.028-.03 2.872-2.947 7.068-.059l-.486.707c-3.598-2.478-5.937-.083-5.96-.059zM11.014 3.18C5.135 3.385 1.031 7.776.865 14.048c1.63-4.263 5.436-7.024 10.15-7.182zm7.502 8.402v.857H12.49v-.857h6.027zM11.871 3.18v1.397c1.615.177 7.546 1.237 9.915 7.253-.964-5.069-4.756-8.47-9.915-8.65zm0 2.252v1.433c3.8.128 7.01 1.946 8.965 4.881-2.262-5.24-7.413-6.157-8.965-6.314zm2.88 4.538v.857h-2.262v-.857h2.262z"/>
</svg>
