<svg xmlns="http://www.w3.org/2000/svg" width="24" height="32" viewBox="0 0 24 32">
    <g fill="none" fill-rule="evenodd">
        <path fill="#344154" fill-rule="nonzero" d="M7.446 16.908c-1.264-1.593-2.095-2.866-2.773-4.17a5.232 5.232 0 0 1-.076-4.641l2.483-5.28a.5.5 0 1 0-.905-.425L3.692 7.671a6.232 6.232 0 0 0 .094 5.529c.708 1.36 1.573 2.688 2.876 4.33a.5.5 0 1 0 .784-.622zM17.996 30.084L13 23.844a.5.5 0 1 0-.78.624l5.632 7.037 5.47-4.551-6.308-7.902a.5.5 0 0 0-.781.624l5.696 7.136-3.933 3.272z"/>
        <path fill="#344154" fill-rule="nonzero" d="M19.049 8.096a5.234 5.234 0 0 1-.075 4.642c-.728 1.397-1.813 3.011-3.317 4.847L5.65 30.085l-3.933-3.273L12.1 13.807c2.982-3.664 4.643-6.594 5.284-8.871l.065-.242 1.6 3.402zm-3.217-7.084C14.798.764 13.607.616 12.268.616h-.89c-1.339 0-2.53.148-3.564.396a2.391 2.391 0 0 0-1.82 2.603c.27 2.321 1.528 5.037 4.577 8.959a.5.5 0 0 0 .79-.614C8.415 8.173 7.233 5.62 6.986 3.499a1.391 1.391 0 0 1 1.06-1.515c.96-.23 2.073-.368 3.331-.368h.89c1.258 0 2.372.138 3.33.368.433.104.773.399.946.778l.033.078c.078.204.11.428.082.659-.257 2.211-1.85 5.395-5.338 9.68L.324 26.954l5.47 4.55 10.64-13.29c1.543-1.882 2.666-3.553 3.427-5.014a6.234 6.234 0 0 0 .093-5.53l-2.458-5.226a2.394 2.394 0 0 0-1.664-1.432z"/>
        <path fill="#004283" d="M6.733 21.964l-3.769 4.72 2.557 2.128 5.234-6.537a13.548 13.548 0 0 1-4.022-.311"/>
        <path fill="#344154" fill-rule="nonzero" d="M16.123 6.5l-.392-.059-.652-.087-.351-.041a29.351 29.351 0 0 0-2.224-.174 18.826 18.826 0 0 0-1.363 0c-.706.026-1.46.087-2.222.174-.359.04-.697.084-1.003.128l-.393.059a.5.5 0 0 0 .162.987l.372-.056.633-.084.342-.04c.739-.085 1.467-.144 2.146-.169a17.829 17.829 0 0 1 1.29 0c.679.025 1.407.084 2.147.168l.341.04 1.006.14a.5.5 0 0 0 .161-.986z"/>
    </g>
</svg>
