<svg xmlns="http://www.w3.org/2000/svg" width="25" height="25" viewBox="0 0 25 25">
    <g fill="none" fill-rule="evenodd">
        <path fill="#344154" fill-rule="nonzero" d="M23.94.594l.09 6.396a.507.507 0 0 1-.502.502.507.507 0 0 1-.503-.502l-.074-5.185-6.304 6.266c1.638 1.783 2.495 4.039 2.495 6.457a9.538 9.538 0 0 1-2.787 6.761 9.726 9.726 0 0 1-6.807 2.787 9.538 9.538 0 0 1-6.761-2.787C.959 19.462 0 17.086 0 14.528c0-2.447.92-4.769 2.559-6.526l.228-.235c3.616-3.616 9.402-3.742 13.169-.378l6.338-6.338-5.253-.046a.507.507 0 0 1-.503-.502c0-.244.18-.452.413-.495l.09-.008 6.396.091c.26 0 .478.205.5.46l.002.025v.018zM3.471 8.406A8.499 8.499 0 0 0 .96 14.482a8.61 8.61 0 0 0 2.513 6.076 8.499 8.499 0 0 0 6.076 2.513 8.61 8.61 0 0 0 6.076-2.513 8.499 8.499 0 0 0 2.513-6.076 8.61 8.61 0 0 0-2.513-6.076c-3.335-3.335-8.817-3.335-12.152 0zm.274 5.62c.274 0 .503.228.503.502 0 1.416.548 2.787 1.553 3.792s2.33 1.553 3.792 1.553c.274 0 .502.229.502.503-.045.228-.274.457-.548.457-1.69 0-3.29-.64-4.477-1.828-1.188-1.188-1.827-2.787-1.827-4.477 0-.274.228-.503.502-.503z"/>
        <path fill="#344154" fill-rule="nonzero" d="M23.94.594l.09 6.396a.507.507 0 0 1-.502.502.507.507 0 0 1-.503-.502l-.074-5.185-6.304 6.266c1.638 1.783 2.495 4.039 2.495 6.457a9.538 9.538 0 0 1-2.787 6.761 9.726 9.726 0 0 1-6.807 2.787 9.538 9.538 0 0 1-6.761-2.787C.959 19.462 0 17.086 0 14.528c0-2.447.92-4.769 2.559-6.526l.228-.235c3.616-3.616 9.402-3.742 13.169-.378l6.338-6.338-5.253-.046a.507.507 0 0 1-.503-.502c0-.244.18-.452.413-.495l.09-.008 6.396.091c.26 0 .478.205.5.46l.002.025v.018zM3.471 8.406A8.499 8.499 0 0 0 .96 14.482a8.61 8.61 0 0 0 2.513 6.076 8.499 8.499 0 0 0 6.076 2.513 8.61 8.61 0 0 0 6.076-2.513 8.499 8.499 0 0 0 2.513-6.076 8.61 8.61 0 0 0-2.513-6.076c-3.335-3.335-8.817-3.335-12.152 0zm.274 5.62c.274 0 .503.228.503.502 0 1.416.548 2.787 1.553 3.792s2.33 1.553 3.792 1.553c.274 0 .502.229.502.503-.045.228-.274.457-.548.457-1.69 0-3.29-.64-4.477-1.828-1.188-1.188-1.827-2.787-1.827-4.477 0-.274.228-.503.502-.503z"/>
        <circle cx="11.5" cy="12.5" r="3.5" fill="#004283"/>
    </g>
</svg>
