<svg xmlns="http://www.w3.org/2000/svg" width="27" height="27" viewBox="0 0 27 27">
    <path fill="#344154" fill-rule="nonzero" stroke="#344154" stroke-width=".2" d="M13.964 1c.099 0 .192.052.244.136.406.653.968 1.344 1.512 2.012.495.607.997 1.224 1.406 1.84h4.479c.159 0 .288.129.288.288v4.913c.945.43 1.895 1.213 2.824 1.98.673.556 1.37 1.13 2.04 1.55a.288.288 0 0 1 0 .49c-.653.405-1.344.967-2.011 1.511-.942.767-1.905 1.55-2.854 1.98v4.917c.001.16-.128.289-.287.289h-4.482c-.407.607-.906 1.211-1.397 1.807-.557.675-1.133 1.373-1.551 2.045a.288.288 0 0 1-.186.13l-.059.006a.289.289 0 0 1-.245-.136c-.406-.654-.97-1.346-1.514-2.014-.494-.607-.996-1.223-1.406-1.838H6.29A.289.289 0 0 1 6 22.617v-4.915c-.943-.43-1.892-1.211-2.82-1.976-.674-.557-1.372-1.132-2.044-1.55a.288.288 0 0 1 0-.49c.654-.407 1.345-.97 2.014-1.515.94-.766 1.903-1.55 2.85-1.98V5.276c0-.159.13-.288.289-.288h4.478c.409-.608.909-1.214 1.402-1.811.556-.674 1.13-1.37 1.55-2.041a.288.288 0 0 1 .186-.13L13.964 1zM11.73 17.805a3.53 3.53 0 0 0-1.297 2.725 2.093 2.093 0 0 0 .041.411l-.003-.023c.203 1.077 1.19 2.287 2.146 3.462.456.559.924 1.134 1.313 1.7.4-.582.882-1.166 1.35-1.734 1.004-1.218 2.04-2.474 2.163-3.598a.677.677 0 0 0 .004-.035l-.004.035c.008-.073.012-.146.012-.218a3.53 3.53 0 0 0-1.294-2.725l-.04.023a4.445 4.445 0 0 1-.14.075l.18-.097a4.425 4.425 0 0 1-1.661.556l-.037.005a4.455 4.455 0 0 1-.101.01l-.088.008-.04.003v3.643a.288.288 0 0 1-.577 0v-3.645l-.047-.002c-.05-.003-.1-.008-.15-.014-.011 0-.021-.002-.032-.003l-.042-.005a4.434 4.434 0 0 1-.06-.008l-.09-.014a4.437 4.437 0 0 1-.995-.283l-.05-.02a4.42 4.42 0 0 1-.433-.216l-.028-.016zm2.216 5.31c.159 0 .288.13.288.289v.006a.288.288 0 0 1-.577 0v-.006c0-.16.13-.289.289-.289zm3.524-6.457l-.053.07a4.489 4.489 0 0 1-.76.745v-.002l.047.042a4.11 4.11 0 0 1 1.328 3.017c0 .069-.003.139-.008.209l.008-.209c0 .084-.004.169-.013.253-.045.477-.22.98-.537 1.546h3.833v-4.413a3.263 3.263 0 0 1-.302.071l-.075.013a2.517 2.517 0 0 1-.22.026l-.19.007a4.11 4.11 0 0 1-3.058-1.375zM7.159 18.025l.205.008a3.02 3.02 0 0 1-.787-.114v4.41h3.832c-.268-.483-.435-.917-.508-1.325l-.01-.06a2.221 2.221 0 0 1-.02-.159l-.006-.059a2.473 2.473 0 0 1-.008-.196c0-1.147.49-2.245 1.33-3.016l.048-.041a4.489 4.489 0 0 1-.816-.816 4.099 4.099 0 0 1-2.827 1.37l-.228.006c-.068 0-.136-.003-.205-.008zm10.376-5.536l-.085-.194a3.868 3.868 0 0 0-.006-.012l.006.013a3.845 3.845 0 0 0-.1-.198l.094.185a3.867 3.867 0 0 0-.135-.257l-.02-.034a3.898 3.898 0 0 0-1.848-1.62l-.138-.054-.082-.03-.108-.036-.2-.057a3.873 3.873 0 0 0-.09-.022l-.126-.027a3.847 3.847 0 0 0-.068-.012l.068.012a3.88 3.88 0 0 0-.225-.037l-.063-.008a3.89 3.89 0 0 0-.186-.018l-.044-.003-.232-.006-.234.007-.04.002-.093.008a3.88 3.88 0 0 0-.917.201l-.05.017c-.057.021-.114.043-.17.067l-.02.01a3.897 3.897 0 0 0-2.053 2.072l.02-.047a3.848 3.848 0 0 0-.063.157l.043-.11c-.035.084-.067.17-.096.257l.053-.147a3.842 3.842 0 0 0-.068.192l.015-.045a3.87 3.87 0 0 0-.123.46l-.015.074c-.01.06-.02.12-.028.181l-.005.04a3.89 3.89 0 0 0-.018.178l.018-.178c-.01.08-.018.162-.023.244l.005-.066a3.902 3.902 0 0 0-.012.299l.005.141.002.085a3.892 3.892 0 0 0 .02.223l-.018-.187c.006.086.015.171.026.256l-.009-.069c.01.078.02.156.035.233l-.026-.164c.01.078.023.155.038.232l-.012-.068c.03.171.072.34.125.505l.01.027-.01-.027c.02.064.043.128.067.192l-.058-.165c.031.093.065.184.103.274l-.045-.11c.017.046.035.09.054.135l-.01-.025c.31.742.845 1.368 1.52 1.792l.149.088.053.031c.127.07.258.133.392.188l.086.034c.042.016.084.03.127.045l.066.022c.216.07.438.12.663.15l.064.008.09.01.092.007.043.003.066.003c.055.003.11.004.166.004l.169-.006h.064l.044-.004.09-.007.093-.01.066-.009.015-.002a3.858 3.858 0 0 0 .426-.084l.137-.038c.094-.028.188-.06.28-.096l.085-.033.072-.031c.109-.047.216-.1.32-.157l.064-.036a3.902 3.902 0 0 0 1.764-2.18l-.01.033a3.852 3.852 0 0 0 .17-.78l.009-.09.002-.025.007-.108c.004-.07.006-.14.006-.21l-.006-.213a3.889 3.889 0 0 0-.018-.222l.01.103a3.869 3.869 0 0 0-.022-.2l.012.097a3.855 3.855 0 0 0-.18-.806l.02.06a3.84 3.84 0 0 0-.089-.247v-.001l-.012-.03zM7.363 10.434l-.191.01a2.087 2.087 0 0 0-.19.027l.145-.022c-.082.01-.166.025-.252.045l.107-.023a2.594 2.594 0 0 0-.188.042l.08-.02a2.884 2.884 0 0 0-.221.063l.141-.043a3.05 3.05 0 0 0-.202.061l.061-.018c-.08.025-.163.055-.248.09l.187-.072c-.976.331-2.04 1.2-3.078 2.044-.56.456-1.134.924-1.7 1.313.582.4 1.166.882 1.733 1.35 1.205.993 2.447 2.018 3.562 2.159l.066.008.188.008c1.057 0 2.06-.48 2.722-1.294a4.456 4.456 0 0 1-.282-.59l-.02-.053a1.045 1.045 0 0 1-.022-.057l-.004-.011a4.448 4.448 0 0 1-.251-1.216H5.863a.288.288 0 0 1 0-.577h3.643v-.014l.002-.018a4.456 4.456 0 0 1 .577-1.894 3.519 3.519 0 0 0-2.722-1.298zm13.167 0a3.53 3.53 0 0 0-2.725 1.298l.029.05.04.075.042.081.012.02a4.418 4.418 0 0 1 .27.67l.013.047a4.421 4.421 0 0 1 .115.477l.01.064c.01.06.02.12.027.182l.007.06c.006.055.011.11.015.166l.002.034h3.644a.288.288 0 0 1 0 .577h-3.645l-.001.038a4.456 4.456 0 0 1-.443 1.632v.001l-.015.029a4.423 4.423 0 0 1-.122.227 3.536 3.536 0 0 0 2.725 1.294l.182-.008a2.167 2.167 0 0 0 .209-.03l-.125.02c.056-.007.114-.017.173-.03l-.048.01c.062-.012.126-.026.19-.044l-.142.035c.074-.016.15-.035.226-.058l-.084.023c.07-.019.142-.04.214-.066l-.13.043c.06-.018.121-.038.183-.06l-.053.017c.97-.337 2.027-1.197 3.056-2.035.56-.455 1.133-.922 1.699-1.31-.58-.4-1.164-.882-1.73-1.35-1.076-.887-2.181-1.8-3.199-2.087a.584.584 0 0 0-.026-.007l.026.007a2.693 2.693 0 0 0-.189-.046l.163.039a2.585 2.585 0 0 0-.205-.048l.042.01a2.307 2.307 0 0 0-.221-.036l.179.026a2.24 2.24 0 0 0-.195-.027l-.195-.01zm-6.583 1.376c1.178 0 2.136.959 2.136 2.137a2.139 2.139 0 0 1-2.136 2.136 2.139 2.139 0 0 1-2.137-2.136c0-1.178.959-2.137 2.137-2.137zm0 .577c-.86 0-1.56.7-1.56 1.56 0 .86.7 1.56 1.56 1.56.86 0 1.56-.7 1.56-1.56 0-.86-.7-1.56-1.56-1.56zm9.463 1.271a.288.288 0 0 1 0 .577h-.006a.288.288 0 0 1 0-.577h.006zm-19.03 0a.288.288 0 0 1 0 .577h-.007a.288.288 0 0 1 0-.577h.006zm6.03-8.093H6.577v4.41l.072-.02.087-.021-.159.042a3.194 3.194 0 0 1 .584-.11c.068-.006.136-.009.203-.009a4.092 4.092 0 0 1 3.014 1.331l.043.048c.234-.306.51-.58.816-.816v.001l-.049-.043a4.091 4.091 0 0 1-1.322-3.222l-.009.208a2.558 2.558 0 0 1 .033-.416l.012-.062c.008-.054.02-.108.032-.162l.016-.056c.08-.323.22-.663.42-1.03l.035-.063a.079.079 0 0 1 .005-.01zm10.324 4.3l-.204-.008a2.577 2.577 0 0 1 .411.033l.083.015c.047.008.095.018.144.03l.05.012.098.026V5.565h-3.834c.32.572.495 1.08.54 1.557l.002.033a2.29 2.29 0 0 1 .01.209 4.098 4.098 0 0 1-1.376 3.057c.305.234.579.508.814.814l.042-.047a4.109 4.109 0 0 1 3.016-1.33c.067 0 .135.002.204.007zm-6.771-8.051c-.4.58-.882 1.163-1.35 1.73-.587.711-1.184 1.435-1.605 2.139a6.987 6.987 0 0 0-.043.073l.043-.073a5.91 5.91 0 0 0-.248.456l.012-.023a4.487 4.487 0 0 0-.099.215l.087-.192a4.32 4.32 0 0 0-.11.242l.023-.05c-.03.069-.056.137-.08.206l.058-.156a3.559 3.559 0 0 0-.074.196l.015-.04a2.464 2.464 0 0 0-.158.827c0 .351.054.697.155 1.027l.067.195c.217.581.586 1.102 1.075 1.5.195-.112.396-.208.603-.288.01-.002.019-.006.028-.01.05-.02.099-.037.148-.054l.08-.026a4.512 4.512 0 0 1 .736-.168l.056-.007a4.463 4.463 0 0 1 .258-.026h.018V5.862a.288.288 0 0 1 .577 0v3.643l.02.001.108.01.045.004a4.465 4.465 0 0 1 .159.019l.097.015.054.009a4.474 4.474 0 0 1 .585.144l.049.016.026.008.083.03.06.022.048.019c.204.078.402.173.593.283a3.518 3.518 0 0 0 1.294-2.722 2.019 2.019 0 0 0-.034-.37l.016.102a2.373 2.373 0 0 0-.031-.18l.015.077a2.576 2.576 0 0 0-.042-.19l.027.114a2.756 2.756 0 0 0-.05-.195l.023.081a3.048 3.048 0 0 0-.066-.216l.043.135a3.226 3.226 0 0 0-.058-.182l.015.047a4.407 4.407 0 0 0-.295-.667l.008.018c-.421-.788-1.095-1.616-1.754-2.426-.455-.559-.922-1.133-1.31-1.698zm-.016 2.27c.159 0 .288.13.288.289v.007a.288.288 0 0 1-.577 0v-.007c0-.16.13-.288.289-.288z"/>
</svg>
