<svg width="43" height="43" viewBox="0 0 43 43" fill="none" xmlns="http://www.w3.org/2000/svg"><path fill-rule="evenodd" clip-rule="evenodd" d="M42.6875 21.1876C42.6875 24.9699 41.7419 28.4699 39.8508 31.6876C37.9597 34.9054 35.4052 37.4598 32.1875 39.3509C28.9698 41.2421 25.4698 42.1876 21.6875 42.1876C17.9052 42.1876 14.4052 41.2421 11.1875 39.3509C7.96976 37.4598 5.41532 34.9054 3.52419 31.6876C1.63306 28.4699 0.6875 24.9699 0.6875 21.1876C0.6875 17.4054 1.63306 13.9054 3.52419 10.6876C5.41532 7.46988 7.96976 4.91544 11.1875 3.02432C14.4052 1.13319 17.9052 0.187622 21.6875 0.187622C25.4698 0.187622 28.9698 1.13319 32.1875 3.02432C35.4052 4.91544 37.9597 7.46988 39.8508 10.6876C41.7419 13.9054 42.6875 17.4054 42.6875 21.1876ZM29.5087 19.802C30.0014 20.0894 30.2477 20.5205 30.2477 21.0953C30.2477 21.6701 30.0014 22.1012 29.5087 22.3886L18.6699 28.6085C18.1773 28.8959 17.6846 28.8959 17.1919 28.6085C16.6993 28.3211 16.4529 27.89 16.4529 27.3153V14.5058C16.4529 13.9311 16.6993 13.5 17.1919 13.2126C17.6846 12.9252 18.1773 12.9252 18.6699 13.2126L29.5087 19.802ZM7.03831 12.7199C5.51411 15.3167 4.75202 18.1392 4.75202 21.1876C4.75202 24.236 5.51411 27.0586 7.03831 29.6554C8.5625 32.2521 10.623 34.3126 13.2198 35.8368C15.8165 37.361 18.6391 38.1231 21.6875 38.1231C24.7359 38.1231 27.5585 37.361 30.1552 35.8368C32.752 34.3126 34.8125 32.2521 36.3367 29.6554C37.8609 27.0586 38.623 24.236 38.623 21.1876C38.623 18.1392 37.8609 15.3167 36.3367 12.7199C34.8125 10.1231 32.752 8.06262 30.1552 6.53843C27.5585 5.01424 24.7359 4.25214 21.6875 4.25214C18.6391 4.25214 15.8165 5.01424 13.2198 6.53843C10.623 8.06262 8.5625 10.1231 7.03831 12.7199Z" fill="#79BB45"/></svg>