<?xml version="1.0" encoding="utf-8"?>
<!-- Generator: Adobe Illustrator 19.0.1, SVG Export Plug-In . SVG Version: 6.00 Build 0)  -->
<svg version="1.1" id="Слой_1" xmlns="http://www.w3.org/2000/svg" xmlns:xlink="http://www.w3.org/1999/xlink" x="0px" y="0px"
	 viewBox="0 0 30 30" style="enable-background:new 0 0 30 30;" xml:space="preserve">
<style type="text/css">
	.st0{fill:none;stroke:#004283;stroke-miterlimit:10;}
	.st1{fill:none;stroke:#344154;stroke-width:2;stroke-miterlimit:10;}
	.st2{fill:none;stroke:#344154;stroke-width:1.5;stroke-miterlimit:10;}
</style>
<path class="st0" d="M5.3,8.4c0.6,0.4,1.4,0.8,2.3,0.7C8.5,9,8.7,8.5,9.9,8.3c0.5-0.1,1.8-0.3,2.9,0.5c1,0.8,1.1,2.1,1.1,2.4"/>
<path class="st0" d="M4.8,18.7c0.5-0.4,1.4-0.9,2.3-0.8c1.3,0.2,1.7,1.6,3,2.6c0.8,0.6,2.1,1.2,4.5,1.1"/>
<path class="st0" d="M12.1,8.7c-0.1,0.6-0.4,1.6-1.2,2.6c-0.4,0.5-1.4,1.6-2.6,1.6c-1.1,0-1.5-0.9-2.5-0.8c-0.8,0.1-1.3,0.7-1.7,1.2
	"/>
<path class="st0" d="M20.3,12c1.6,2.1,2.8,2.5,3.7,2.5c1.3-0.1,1.8-1.4,3.2-1.2c0.8,0.1,1.6,0.7,2,1.6c0.3,0.8,0.1,1.8-0.5,2.5"/>
<path class="st0" d="M20.7,22.3c-0.1,0.2-0.3,1.7,0.6,3c0.2,0.2,1.1,1.4,2.4,1.4c1.2,0.1,1.6-0.9,2.6-0.7c0.6,0.1,1.4,0.6,2.2,2.8"
	/>
<path class="st0" d="M22.9,26.6c-0.6-2.3-0.2-3.3,0.3-3.7c0.7-0.6,1.6-0.2,2.7-1c0.8-0.5,1.2-1.3,1.4-2"/>
<path class="st0" d="M10.2,20.5c-0.2,2.1-0.8,2.8-1.4,3.1c-1,0.4-1.8-0.6-3-0.3c-1.1,0.3-1.8,1.6-2.3,2.9"/>
<path class="st0" d="M28.4,7c-0.1,1.3-0.3,2.7-1.2,3.2c-0.8,0.4-1.7-0.2-2.4,0.2c-0.6,0.3-1,1.3-0.7,4"/>
<path class="st1" d="M29.5,1.8c-0.9,0.8-2.3,2-3.9,3.5c-1.9,1.7-2.2,2-2.4,2.2c-0.9,1-2.9,3.2-3.1,6c-0.2,1.9,0.7,1.9,1,4.4
	c0.5,4.4-1.9,7.8-2.2,8.3c-0.6,0.8-1.7,2.2-3.7,3.3"/>
<path class="st2" d="M21.8,0.6C20.4,1.4,18,3,16.2,5.9c-1,1.5-2.9,4.5-2.6,8.2c0.2,3,1.7,3.7,1.3,6.3c-0.4,2.2-1.7,3.7-2.8,4.8
	c-2.2,2.4-4.8,3.5-6.4,4"/>
</svg>
