<?xml version="1.0" encoding="utf-8"?>
<!-- Generator: Adobe Illustrator 19.0.1, SVG Export Plug-In . SVG Version: 6.00 Build 0)  -->
<svg version="1.1" id="Слой_1" xmlns="http://www.w3.org/2000/svg" xmlns:xlink="http://www.w3.org/1999/xlink" x="0px" y="0px"
	 viewBox="0 0 30 30" style="enable-background:new 0 0 30 30;" xml:space="preserve">
<style type="text/css">
	.st0{fill:#FFFFFF;stroke:#344154;stroke-miterlimit:10;}
	.st1{fill:none;stroke:#344154;stroke-miterlimit:10;}
	.st2{fill:none;stroke:#004283;stroke-miterlimit:10;}
	.st3{fill:#004283;stroke:#004283;stroke-miterlimit:10;}
</style>
<path class="st0" d="M1.5,14.9C1.5,16.3,2,16.6,2,19.1c0,0.9-0.1,1.7,0.2,1.8c0.4,0.2,0.9-1,2.1-1.6c0.4-0.2,1.1-0.4,2.8-0.2
	c3.3,0.4,3.7,1.5,6,1.6c0.9,0,2.5,0,3.5-1c0.6-0.7,0.6-2,0.7-4.7c0-1.8-0.1-3.5-0.2-4.1c0-0.4-0.1-0.7-0.1-1.3
	c-0.1-0.6,0-0.9-0.1-1.3c0,0-0.1-0.6-0.4-1c-0.6-1.1-4-1.3-7.1-0.4C8.2,7.2,6.4,7.8,4.6,9.4C3.8,10.2,1.6,12.2,1.5,14.9z"/>
<path class="st0" d="M17.4,13.4c0.1,4.1-0.9,6.1,0,6.6c0.8,0.5,1.6-1,5.1-2.2c0.7-0.2,1.8-0.5,3.1-1.2c1-0.5,1.5-0.9,1.8-1.3
	c0.8-0.8,1.2-1.6,1.3-1.8c0.2-0.5,0.3-0.9,0.4-1.2c0.1-0.5,0.3-1.1,0.3-2c0-0.4-0.1-1.3-0.6-2.1c-0.6-1.1-1.5-1.6-2.1-1.9
	c-1-0.5-1.9-0.7-2.8-0.8c-0.5-0.1-1.2-0.1-2.3,0c-2.5,0.2-3.7,0.3-4.4,1C16.2,7.6,17.3,9.2,17.4,13.4z"/>
<path class="st1" d="M16.9,19.7c-0.6,0.7-1.3,1.6-1.1,2.6c0.2,0.7,0.7,0.9,0.9,1.4c0.2,0.7-0.1,1.7-2.3,3.6"/>
<path class="st1" d="M17.1,19.7c0.8,0.5,1.8,1.3,1.9,2.3c0.1,1.2-0.8,1.8-0.9,3.1c0,0.8,0.3,1.9,2,3.3"/>
<path class="st2" d="M25.9,7.2"/>
<path class="st2" d="M16.5,22.1"/>
<path class="st3" d="M20.1,12.6c0.1,2.1-0.5,3.1,0,3.4c0.4,0.2,0.8-0.5,2.6-1.1c0.4-0.1,0.9-0.3,1.6-0.6c0.5-0.3,0.8-0.5,0.9-0.7
	c0.4-0.4,0.6-0.8,0.7-0.9c0.1-0.2,0.2-0.4,0.2-0.6c0.1-0.2,0.2-0.6,0.1-1c0-0.2,0-0.6-0.3-1.1c-0.3-0.5-0.8-0.8-1.1-1
	c-0.5-0.3-1-0.3-1.4-0.4c-0.2,0-0.6-0.1-1.2,0c-1.3,0.1-1.9,0.1-2.3,0.5C19.5,9.7,20.1,10.5,20.1,12.6z"/>
<path class="st3" d="M6.1,11.4c-0.6,0.6-1,1-1.2,1.3c-0.4,0.6-0.6,0.9-0.7,1.2c0,0.5,0.3,0.7,0.2,1.4c0,0.3-0.1,0.6-0.1,0.7
	c-0.2,0.6-0.4,0.7-0.4,0.9c0.1,0.3,1.7-0.7,3.7-0.7c0.6,0,1.4,0,2.4,0.4c1.1,0.5,1.3,1,2.1,1.1c0.6,0.1,1.4-0.1,1.9-0.7
	c0.2-0.3,0.2-1.1,0.2-2.9c0,0,0-1.3-0.1-2.1c0-0.2,0-0.3-0.1-0.6c0-0.3,0-0.4-0.1-0.6c0,0,0,0,0,0c0,0-0.1-0.3-0.2-0.5
	c-0.1-0.2-1.4-1.1-3.6-0.8C9.9,9.3,9,9.5,8,10C7.1,10.4,6.5,11,6.1,11.4z"/>
<path class="st3" d="M7.3,12.7"/>
</svg>
