<svg width="18" height="18" viewBox="0 0 18 18" fill="none" xmlns="http://www.w3.org/2000/svg"><path d="M8.02441 0.605537C8.15898 0.336409 8.35522 0.156991 8.61313 0.067282C8.87104 -0.0224273 9.12896 -0.0224273 9.38687 0.067282C9.64478 0.156991 9.84102 0.336409 9.97559 0.605537L12.1622 5.04614L17.0738 5.7526C17.3654 5.79745 17.5953 5.93202 17.7635 6.15629C17.9317 6.38056 18.0102 6.62726 17.9989 6.89639C17.9877 7.16552 17.8812 7.401 17.6794 7.60285L14.1134 11.0679L14.9544 15.9794C14.9993 16.2486 14.9488 16.5009 14.8031 16.7364C14.6573 16.9718 14.4498 17.1232 14.1807 17.1905C13.9116 17.2578 13.6537 17.2242 13.407 17.0896L9 14.802L4.59304 17.0896C4.34634 17.2242 4.08842 17.2578 3.8193 17.1905C3.55017 17.1232 3.34272 16.9718 3.19694 16.7364C3.05116 16.5009 3.0007 16.2486 3.04556 15.9794L3.88658 11.0679L0.32064 7.60285C0.118795 7.401 0.0122647 7.16552 0.00105125 6.89639C-0.0101622 6.62726 0.0683331 6.38056 0.236538 6.15629C0.404742 5.93202 0.634622 5.79745 0.926177 5.7526L5.83775 5.04614L8.02441 0.605537Z" fill="#FBC215"/></svg>