<?xml version="1.0" encoding="utf-8"?>
<!-- Generator: Adobe Illustrator 19.0.1, SVG Export Plug-In . SVG Version: 6.00 Build 0)  -->
<svg version="1.1" id="Слой_1" xmlns="http://www.w3.org/2000/svg" xmlns:xlink="http://www.w3.org/1999/xlink" x="0px" y="0px"
	 viewBox="0 0 35 50" style="enable-background:new 0 0 35 50;" xml:space="preserve">
<style type="text/css">
	.st0{opacity:0.61;fill:#0071BC;}
</style>
<path class="st0" d="M32.7,14.2c0,1.8-0.3,3.5-1,5.1c-0.7,1.7-1.6,3.3-2.7,4.7c-1.1,1.6-2.4,3-3.8,4.4c-1.4,1.4-2.8,2.7-4.1,4
	c-0.8,0.7-1.5,1.5-2.3,2.2c-0.8,0.8-1.6,1.6-2.3,2.5c-0.7,0.8-1.3,1.5-2,2.3c-0.6,0.7-0.9,1.3-1.1,1.8h20.9V50H1.9
	c-0.1-0.5-0.1-1.2-0.1-2v-1.7c0-2.2,0.4-4.3,1.1-6.2c0.7-1.9,1.7-3.6,2.8-5.2c1.2-1.6,2.5-3.1,4-4.5c1.5-1.4,2.9-2.8,4.4-4.2
	c1.1-1.1,2.2-2.1,3.2-3s1.8-1.9,2.6-2.8s1.3-1.8,1.8-2.7s0.6-1.8,0.6-2.8c0-2.1-0.6-3.5-1.8-4.3S17.7,9.3,16,9.3
	c-1.3,0-2.4,0.2-3.5,0.6s-2.1,0.9-3,1.4c-0.8,0.5-1.6,1-2.3,1.6c-0.7,0.5-1.1,1-1.5,1.3L0.4,6.9C2.5,5,4.9,3.5,7.6,2.2
	s5.7-1.9,8.8-1.9c2.8,0,5.3,0.3,7.4,1s3.7,1.6,5.1,2.8c1.3,1.2,2.3,2.7,2.9,4.3C32.4,10.2,32.7,12.1,32.7,14.2z"/>
</svg>
