<?xml version="1.0" encoding="utf-8"?>
<!-- Generator: Adobe Illustrator 19.0.1, SVG Export Plug-In . SVG Version: 6.00 Build 0)  -->
<svg version="1.1" id="Слой_1" xmlns="http://www.w3.org/2000/svg" xmlns:xlink="http://www.w3.org/1999/xlink" x="0px" y="0px"
	 viewBox="0 0 35 52" style="enable-background:new 0 0 35 52;" xml:space="preserve">
<style type="text/css">
	.st0{opacity:0.61;fill:#0071BC;}
</style>
<path class="st0" d="M15,51c-1.3,0-2.6-0.1-4-0.2c-1.4-0.2-2.7-0.4-4.1-0.7c-1.2-0.3-2.4-0.6-3.6-0.9c-1.1-0.3-1.9-0.6-2.5-0.9
	l2-8.7c1.2,0.5,2.8,1.1,4.7,1.6s4.2,0.9,7,0.9c3.2,0,5.6-0.6,7.1-1.8s2.2-2.8,2.2-4.9c0-1.3-0.3-2.3-0.8-3.2s-1.3-1.6-2.2-2.1
	s-2-0.9-3.3-1.1c-1.4-0.2-2.7-0.3-4.1-0.3H9.4v-8.4H14c1,0,2-0.1,3-0.3s1.8-0.5,2.6-0.9c0.7-0.4,1.4-1.1,1.8-1.8
	c0.4-0.8,0.7-1.7,0.7-2.9c0-0.9-0.2-1.7-0.6-2.3c-0.4-0.6-0.8-1.2-1.4-1.6c-0.6-0.4-1.3-0.8-2-0.9c-0.8-0.2-1.6-0.3-2.3-0.3
	c-2,0-3.9,0.3-5.6,0.9c-1.6,0.6-3.2,1.3-4.7,2.2L1.7,4.7c0.9-0.5,1.7-1,2.6-1.5c1.1-0.5,2.2-1,3.3-1.4c1.2-0.4,2.5-0.8,3.9-1
	c1.4-0.3,2.9-0.4,4.4-0.4c2.8,0,5.3,0.3,7.4,1S27,3,28.4,4.3c1.3,1.2,2.4,2.7,3,4.3c0.7,1.7,1,3.5,1,5.4c0,1.9-0.5,3.8-1.6,5.6
	s-2.5,3.2-4.3,4.1c2.5,1,4.5,2.6,5.8,4.6c1.4,2,2.1,4.5,2.1,7.3c0,2.2-0.4,4.3-1.1,6.2c-0.7,1.9-1.9,3.5-3.5,4.9
	c-1.6,1.4-3.6,2.5-6.1,3.2S18.3,51,15,51z"/>
</svg>
