<svg xmlns="http://www.w3.org/2000/svg" width="23" height="31" viewBox="0 0 23 31">
    <g fill="none" fill-rule="evenodd">
        <path fill="#344154" fill-rule="nonzero" d="M8.209 21.945l-.309.128a6.949 6.949 0 0 1-5.318 0l-.309-.128V8.51H8.21v13.435zm-1-12.435H3.273v11.757a5.949 5.949 0 0 0 3.936 0V9.51z"/>
        <path fill="#004283" d="M5.241 20.728c.37 0 .736-.04 1.094-.12V16.84H4.148v3.769c.357.079.723.119 1.093.119"/>
        <path fill="#344154" fill-rule="nonzero" d="M6.449 21.477l.601-.125v4.314l-.308.128c-.961.398-2.041.398-3.002 0l-.308-.128v-4.314l.601.125a5.941 5.941 0 0 0 2.416 0zm-.722 1.107c-.431.03-.865.02-1.295-.03v2.424c.528.152 1.09.152 1.618 0v-2.425l-.323.03z"/>
        <path fill="#344154" fill-rule="nonzero" d="M4.741 25.592v4.814a.5.5 0 1 0 1 0v-4.814a.5.5 0 1 0-1 0zM8.316 6.864c.669 0 1.23.5 1.315 1.189l.007.134c0 .73-.592 1.323-1.322 1.323h-6.15a1.323 1.323 0 1 1 0-2.646h6.15zm0 1h-6.15a.323.323 0 1 0 0 .646h6.15c.178 0 .322-.145.323-.292l-.003-.072a.323.323 0 0 0-.32-.282zM6.672.843a1.323 1.323 0 0 1 0 2.646H3.81c-.73 0-1.322-.593-1.322-1.323l.007-.135A1.323 1.323 0 0 1 3.809.843h2.863zm0 1H3.81a.322.322 0 0 0-.322.323l.007.065c.03.147.16.258.315.258h2.864a.322.322 0 0 0 0-.646z"/>
        <path fill="#344154" fill-rule="nonzero" d="M6.97 7.864H3.512V2.488h3.456v5.376zm-1-4.376H4.512v3.376h1.456V3.488zM2.773 11.423h1.529a.5.5 0 1 0 0-1H2.773a.5.5 0 0 0 0 1zM2.773 13.361h1.529a.5.5 0 1 0 0-1H2.773a.5.5 0 1 0 0 1zM2.773 15.3h1.529a.5.5 0 1 0 0-1H2.773a.5.5 0 1 0 0 1zM14.112 13.06c.386 0 .706.188.963.485.212.244.347.543.398.837l.048.34.055.432c.034.31.06.622.073.931l.01.46.004.7-.006.602c-.006.255-.018.488-.038.707-.04.433.014.79.14 1.085a8.758 8.758 0 0 1 .714 3.43v7.924H11.75v-7.925c0-1.162.244-2.322.714-3.429.126-.295.18-.652.14-1.086a9.736 9.736 0 0 1-.03-.458l-.012-.47v-.81l.012-.73c.014-.309.039-.622.073-.931l.046-.366.034-.218c.031-.38.174-.74.421-1.025.257-.297.577-.484.964-.484zm1.36 10.008a7.76 7.76 0 0 0-.634-3.037c-.19-.448-.27-.972-.215-1.568.012-.13.02-.268.027-.414l.01-.334.003-.472-.014-1.118a12.804 12.804 0 0 0-.067-.86l-.035-.285-.062-.43a.757.757 0 0 0-.166-.35c-.084-.098-.155-.14-.207-.14-.053 0-.124.042-.207.139a.77.77 0 0 0-.17.373l-.06.411-.034.282c-.032.287-.055.576-.067.86l-.01.42-.003 1.066.012.438c.007.146.015.283.027.413.055.597-.025 1.12-.215 1.568a7.763 7.763 0 0 0-.635 3.038v6.925h2.723v-6.925zM20.366 13.06c.386 0 .706.188.963.485.247.286.39.644.416.983l.03.194a14.162 14.162 0 0 1 .128 1.364l.01.459.003 1.08-.013.47c-.007.16-.017.312-.03.459-.04.433.015.79.14 1.085a8.755 8.755 0 0 1 .714 3.43v7.924h-4.723v-7.925c0-1.161.244-2.322.714-3.429.126-.294.18-.652.14-1.085a9.686 9.686 0 0 1-.03-.46l-.012-.468v-.81l.013-.73c.013-.309.038-.621.073-.93l.045-.367.034-.219a1.78 1.78 0 0 1 .421-1.025c.256-.296.577-.484.964-.484zm1.361 10.008a7.756 7.756 0 0 0-.634-3.037c-.19-.448-.27-.972-.216-1.568.012-.13.02-.268.027-.414l.01-.333.003-.466-.013-1.124a12.84 12.84 0 0 0-.068-.86l-.035-.285-.061-.431a.76.76 0 0 0-.167-.35c-.084-.098-.155-.14-.207-.14-.053 0-.124.042-.208.14a.766.766 0 0 0-.169.371l-.06.413-.033.282c-.032.287-.056.576-.068.86l-.01.42-.002 1.065.011.438c.007.146.016.283.028.414.054.596-.026 1.12-.216 1.567a7.767 7.767 0 0 0-.635 3.038v6.925h2.723v-6.925z"/>
    </g>
</svg>
