<?xml version="1.0" encoding="utf-8"?>
<!-- Generator: Adobe Illustrator 19.0.1, SVG Export Plug-In . SVG Version: 6.00 Build 0)  -->
<svg version="1.1" id="Слой_1" xmlns="http://www.w3.org/2000/svg" xmlns:xlink="http://www.w3.org/1999/xlink" x="0px" y="0px"
	 viewBox="0 0 30 30" style="enable-background:new 0 0 30 30;" xml:space="preserve">
<style type="text/css">
	.st0{fill:#FFFFFF;stroke:#344154;stroke-miterlimit:10;}
	.st1{fill:none;stroke:#344154;stroke-miterlimit:10;}
	.st2{fill:none;stroke:#004283;stroke-width:2;stroke-miterlimit:10;}
</style>
<path class="st0" d="M26.6,17.4c-0.1-0.2-0.3-0.4-0.4-0.6c-0.2-0.4-0.3-0.7-0.4-1c1.4-0.4,2.5-1.7,2.5-3.3c0-1.8-1.3-3.2-3.1-3.4
	c0-0.2,0.1-0.4,0.1-0.6c0-1.9-1.5-3.4-3.4-3.4c-0.6,0-1.2,0.2-1.7,0.5c-0.4-1.4-1.7-2.5-3.3-2.5c-1.3,0-2.4,0.7-3,1.8
	c-0.6-1.1-1.7-1.8-3-1.8C9,3.1,7.5,4.6,7.5,6.5c0,0,0,0,0,0C7,6.2,6.5,6.1,5.9,6.1C4,6.1,2.5,7.6,2.5,9.5c0,0.8,0.3,1.5,0.7,2.1
	c-1,0.6-1.7,1.7-1.7,2.9c0,1.9,1.5,3.4,3.4,3.4c0.3,0,0.6,0,0.9-0.1c0.5,1.2,1.7,2.1,3.1,2.1c0.8,0,1.5-0.3,2.1-0.7
	c0.6,1,1.7,1.7,2.9,1.7c0.3,0,0.6,0,0.9-0.1c0.7,1.3,1.9,2.2,3.1,2.1c0.3,0,0.7-0.1,1.2-0.4 M22.9,20.9 M21.1,20.4 M16.9,9.9
	 M10.9,9.9 M9.3,9.5 M7.6,12.4 M8.9,13.1"/>
<path class="st1" d="M18.8,22.7c-0.1,0.8-0.1,1.8,0.5,2.7c0.5,0.8,1.1,1,1.7,1.7c0.5,0.6,1.1,1.7,1.1,3.5"/>
<path class="st1" d="M26,15.6c1.4,3.7,1.6,5.6,1.5,6.7c0,0.1-0.1,0.6-0.1,1.3c-0.1,1.5-0.1,1.8-0.2,3c-0.1,1.5-0.2,1.6-0.1,2
	c0.2,1,1,1.6,1.6,2"/>
<path class="st2" d="M5.3,14c0.6-0.8,1.6-1.8,3-2c0.2,0,0.4,0,1.9,0.2c3.2,0.4,3.2,0.4,3.7,0.4c1.7-0.1,1.9-0.6,2.8-0.3
	c1.1,0.4,0.9,1.2,2.1,1.7c1.3,0.6,2.2-0.2,2.9,0.4c1,0.7,0.6,2.8,0.6,3.4c-0.3,2.2,0,6,3.3,12.7"/>
<path class="st2" d="M10.2,12.4c0.5,0.6,1,1.5,0.7,2.1c-0.3,0.7-1.3,0.6-1.5,1.2c-0.1,0.3,0.1,0.8,1.3,1.7"/>
<path class="st2" d="M17.9,13.4c0.4,0.8,0.7,1.8,0.3,2.5c-0.5,0.7-1.5,0.6-1.8,1.2c-0.2,0.4-0.1,1.2,1.2,2.8"/>
<path class="st2" d="M14.2,12.3c-1.3-1.9-1.4-2.7-1.1-3c0.5-0.6,1.8,0.2,2.9-0.4c1-0.6,1.2-2,1.2-3.5"/>
</svg>
