<?xml version="1.0" encoding="utf-8"?>
<!-- Generator: Adobe Illustrator 19.0.1, SVG Export Plug-In . SVG Version: 6.00 Build 0)  -->
<svg version="1.1" id="Слой_1" xmlns="http://www.w3.org/2000/svg" xmlns:xlink="http://www.w3.org/1999/xlink" x="0px" y="0px"
	 viewBox="0 0 30 30" style="enable-background:new 0 0 30 30;" xml:space="preserve">
<style type="text/css">
	.st0{fill:#FFFFFF;stroke:#344154;stroke-miterlimit:10;}
	.st1{fill:none;stroke:#004283;stroke-miterlimit:10;}
</style>
<path class="st0" d="M11.3,15.8c-0.4,0-0.8,0.2-1.1,0.3c-0.3-1.8-1.9-3.1-3.7-2.9c-1.9,0.2-3.3,1.9-3.1,3.8c0.1,1.4,1.1,2.5,2.4,2.9
	L-4.8,38.4l3.7,2.1L9.5,21.9c0.7,0.5,1.6,0.8,2.5,0.8c1.9-0.2,3.3-1.9,3.1-3.8C14.9,17,13.2,15.6,11.3,15.8z"/>
<path class="st0" d="M13.8,10.1c0.4,0.2,0.7,0.4,1.1,0.5c-1,1.6-0.6,3.8,1,4.9c1.6,1.1,3.9,0.7,5-0.9c0.8-1.2,0.8-2.8,0.1-3.9
	l20.9-7.8l-1.6-4.2l-21,7.9c-0.2-0.9-0.7-1.7-1.5-2.3c-1.6-1.1-3.9-0.7-5,0.9C11.7,6.7,12.1,9,13.8,10.1z"/>
<g>
	<path class="st1" d="M11.3,3.1c-1.2-0.8-1.8-0.8-2.1-0.6c-0.4,0.2-0.4,0.6-1,1.5c-0.6,1-1,1-1.2,1.4c-0.8,1.7,3,4.9,2.7,5.2
		c-0.2,0.2-2.1-1-4.3-1.8C5.1,8.8,4.6,8.7,4.1,8.9c-0.5,0.2-0.5,0.6-1.1,1c-0.7,0.5-1,0.3-1.4,0.7c-0.3,0.3-0.6,0.8-0.3,2.1"/>
	<path class="st1" d="M11.6,3.2C11.2,3.1,10.5,3,9.7,3.3C8.4,3.7,7.5,5,7.3,6.1c-0.3,2.7,3.8,5.2,3.6,5.5c-0.1,0.2-1.9-1.7-4.6-2
		c-0.7-0.1-1.8-0.2-3,0.4c-1.5,0.8-1.9,2.4-2,2.9"/>
</g>
</svg>
