<?xml version="1.0" encoding="utf-8"?>
<!-- Generator: Adobe Illustrator 19.0.1, SVG Export Plug-In . SVG Version: 6.00 Build 0)  -->
<svg version="1.1" id="Слой_1" xmlns="http://www.w3.org/2000/svg" xmlns:xlink="http://www.w3.org/1999/xlink" x="0px" y="0px"
	 viewBox="0 0 32 32" style="enable-background:new 0 0 32 32;" xml:space="preserve">
<style type="text/css">
	.st0{fill:#004283;stroke:#004283;stroke-width:0.25;stroke-miterlimit:10;}
	.st1{fill:#344154;stroke:#344154;stroke-width:0.25;stroke-miterlimit:10;}
	.st2{fill:none;stroke:#201600;stroke-width:0.25;stroke-miterlimit:10;}
	.st3{fill:#344154;stroke:#344154;stroke-width:0.25;stroke-linecap:round;stroke-linejoin:round;stroke-miterlimit:10;}
</style>
<circle class="st0" cx="9.3" cy="9.9" r="0.8"/>
<circle class="st0" cx="16.9" cy="12.5" r="0.8"/>
<circle class="st0" cx="9" cy="19.6" r="0.8"/>
<circle class="st0" cx="21.8" cy="20.4" r="0.8"/>
<path class="st1" d="M7.9,14.8c0,0,1.4-2.5,6.5,0c0,0,0.6,0.8-2,0.4S11.4,14.3,7.9,14.8z"/>
<path class="st1" d="M24.6,14.8c0,0-1.4-2.5-6.5,0c0,0-0.6,0.8,2,0.4S21,14.3,24.6,14.8z"/>
<path class="st1" d="M8.3,16.4c0,0,2.6,2.7,4.6,1.1c0,0,0.5,0.2,1.2,0s-0.4-0.7-0.4-0.7S9.3,17.3,8.3,16.4z"/>
<path class="st1" d="M24.3,16.4c0,0-2.6,2.7-4.6,1.1c0,0-0.5,0.2-1.2,0c-0.7-0.2,0.4-0.7,0.4-0.7S23.3,17.3,24.3,16.4z"/>
<line class="st2" x1="24.9" y1="21.4" x2="24.9" y2="21.4"/>
<line class="st2" x1="26.3" y1="13.3" x2="26.3" y2="13.3"/>
<path class="st1" d="M14.4,21.4c0,0-0.4-1.1,0.6-0.8c0,0,1.1,1.4,2.4-0.1c0,0,0.8-0.1,0.5,0.8C18,21.4,16.2,23.4,14.4,21.4z"/>
<path class="st0" d="M16.4,25.8c0,0.5,0.5,1.3,1.3,1.3c0.8,0,1.3-0.8,1.3-1.3c0-0.2,0-0.3-0.4-1.1c-0.5-1.1-0.6-1.4-0.8-1.4
	c-0.1,0-0.2,0.1-0.9,1.3C16.4,25.5,16.4,25.6,16.4,25.8z"/>
<path class="st0" d="M12,29.2c0,0.5,0.5,1.3,1.3,1.3c0.8,0,1.3-0.8,1.3-1.3c0-0.2,0-0.3-0.4-1.1c-0.5-1.1-0.6-1.4-0.8-1.4
	c-0.1,0-0.2,0.1-0.9,1.3C12.1,28.9,12,29,12,29.2z"/>
<path class="st3" d="M26.6,14.3c-0.1,0-0.2,0-0.3,0h0.7c0,0,1.1-0.3,1.3,0.9c0.2,1.2-0.2,2.6-0.2,2.6s0,0.2-0.1,0.6
	c-0.2,0.6-0.3,0.9-0.6,1.2c-0.2,0.2-0.4,0.3-0.7,0.3c-0.3,0.1-0.6,0.1-0.8,0c-0.1,0-0.2,0-0.2,0c0,0-0.1,0-0.1,0c0,0,0,0-0.1,0
	c0,0-0.1,0-0.1,0l0,0c-0.1,0.5-0.3,1-0.5,1.5c0,0.1-0.1,0.2-0.1,0.3c-0.2,0.6-3.5,8.1-8.8,8.1v0c0,0-0.4,1-1.6,1.4l0,0
	c0.5,0.1,1,0.2,1.6,0.2c6,0,9.6-8.3,9.8-8.9c0.2-0.4,0.3-0.7,0.4-1.1h0.1c0,0,1.3,0,2-1c0.7-1,1-2.4,1-2.4s0.6-1.9,0.3-3.5
	c-0.3-1.6-1.8-1.2-1.8-1.2h-0.2c0.3-2.7,0.4-4.1,0-5.3c-1.3-4.1-6.2-7.5-11.4-7.5c-5.5,0-10.5,3.7-11.7,7.9
	c-0.3,1.1-0.2,2.4,0.1,4.9H4.2c0,0-1.5-0.4-1.8,1.2C2.2,16.2,2.7,18,2.7,18s0.2,1.4,0.9,2.4c0.7,1,2,1,2,1h0.1
	c0.2,0.6,0.4,1.1,0.6,1.7c0.3,0.6,1.9,4.1,4.7,6.4l0,0l0.1-1.8l0,0c-2.3-2.1-3.6-5-3.8-5.5c-0.1-0.3-0.2-0.5-0.3-0.8
	C7,21,6.8,20.6,6.7,20.1l0,0c-0.1,0-0.1,0-0.2,0c-0.1,0-0.2,0-0.2,0c-0.1,0-0.5,0.1-0.8,0c-0.3,0-0.6-0.1-0.8-0.4
	c-0.3-0.3-0.4-0.7-0.6-1.2C4,18.1,4,17.9,4,17.9s-0.5-1.4-0.2-2.6c0.1-0.7,0.5-0.9,0.9-0.9c0.3-0.1,0.5,0,0.5,0c0.2,0,0.5,0,0.7,0
	c0-0.4-0.1-0.7-0.1-1c-0.2-2.2-0.3-3.4-0.1-4.4c1-3.8,5.6-7.2,10.5-7.1c4.7,0,9.1,3.1,10.2,6.8c0.3,1.1,0.3,2.4,0,4.8
	c0,0.3-0.1,0.6-0.1,1v0"/>
</svg>
