<?xml version="1.0" encoding="utf-8"?>
<!-- Generator: Adobe Illustrator 19.0.1, SVG Export Plug-In . SVG Version: 6.00 Build 0)  -->
<svg version="1.1" id="Слой_1" xmlns="http://www.w3.org/2000/svg" xmlns:xlink="http://www.w3.org/1999/xlink" x="0px" y="0px"
	 viewBox="0 0 30 30" style="enable-background:new 0 0 30 30;" xml:space="preserve">
<style type="text/css">
	.st0{fill:#FFFFFF;stroke:#004283;stroke-miterlimit:10;}
	.st1{fill:none;stroke:#344154;stroke-miterlimit:10;}
	.st2{fill:#FFFFFF;stroke:#344154;stroke-miterlimit:10;}
	.st3{fill:#344154;stroke:#344154;stroke-miterlimit:10;}
</style>
<path class="st0" d="M28.4,27.5l-6.2-6.2c0.9-1.1,1.4-2.5,1.4-4.1c0-3.6-2.9-6.6-6.6-6.6s-6.6,2.9-6.6,6.6c0,3.6,2.9,6.6,6.6,6.6
	c1.4,0,2.7-0.4,3.8-1.2l6.2,6.2c0.4,0.4,1,0.4,1.3,0C28.8,28.5,28.8,27.9,28.4,27.5z"/>
<g>
	<path class="st1" d="M18.2,9.7c-3-3.6-8.2-3.6-10.8-0.9c-2.6,2.8-2.3,8.1,1.7,10.9"/>
	<rect x="18.4" y="4.5" transform="matrix(0.7896 0.6137 -0.6137 0.7896 7.9905 -9.924)" class="st2" width="0.2" height="4.4"/>
	
		<rect x="5.7" y="17.7" transform="matrix(-0.7071 -0.7071 0.7071 -0.7071 -4.2038 38.0057)" class="st2" width="0.2" height="4.4"/>
	<rect x="6.1" y="4.6" transform="matrix(0.7071 -0.7071 0.7071 0.7071 -3.0491 6.3645)" class="st2" width="0.2" height="4.4"/>
	
		<rect x="12.2" y="3.7" transform="matrix(0.9992 -4.087400e-002 4.087400e-002 0.9992 -0.2034 0.5051)" class="st2" width="0.2" height="3"/>
	<rect x="2.3" y="13.1" class="st2" width="3" height="0.2"/>
	<circle class="st2" cx="4" cy="5.2" r="1"/>
	<circle class="st2" cx="12" cy="2.9" r="1"/>
	<circle class="st2" cx="20.1" cy="4" r="1"/>
	<circle class="st2" cx="1.7" cy="13.2" r="1"/>
	<circle class="st2" cx="2.9" cy="22.4" r="1"/>
</g>
<path class="st2" d="M14.4,18.2c1.1,1.3,3,1.3,3.9,0.3c1-1,0.8-3-0.6-4"/>
<path class="st2" d="M13.8,20.1L13.8,20.1C13.8,20.1,13.8,20.1,13.8,20.1l1-1.2c0,0,0,0,0,0l0,0c0,0,0,0,0,0L13.8,20.1
	C13.8,20,13.8,20,13.8,20.1z"/>
<rect x="18.9" y="13.7" transform="matrix(0.7071 0.7071 -0.7071 0.7071 15.7895 -9.1395)" class="st2" width="0.1" height="1.6"/>
<rect x="18.7" y="18.4" transform="matrix(-0.7071 0.7071 -0.7071 -0.7071 45.6677 19.5475)" class="st2" width="0.1" height="1.6"/>
<rect x="16.5" y="19.3" class="st2" width="0.1" height="1.1"/>
<rect x="19.1" y="16.9" class="st2" width="1.1" height="0.1"/>
<circle class="st3" cx="19.6" cy="19.9" r="0.4"/>
<circle class="st3" cx="16.6" cy="20.7" r="0.4"/>
<circle class="st3" cx="13.7" cy="20.3" r="0.4"/>
<circle class="st3" cx="20.4" cy="16.9" r="0.4"/>
<circle class="st3" cx="20" cy="13.6" r="0.4"/>
</svg>
