<?xml version="1.0" encoding="utf-8"?>
<!-- Generator: Adobe Illustrator 19.0.1, SVG Export Plug-In . SVG Version: 6.00 Build 0)  -->
<svg version="1.1" id="Слой_1" xmlns="http://www.w3.org/2000/svg" xmlns:xlink="http://www.w3.org/1999/xlink" x="0px" y="0px"
	 viewBox="0 0 30 30" style="enable-background:new 0 0 30 30;" xml:space="preserve">
<style type="text/css">
	.st0{fill:none;stroke:#344154;stroke-miterlimit:10;}
	.st1{fill:none;stroke:#000000;stroke-miterlimit:10;}
	.st2{fill:none;stroke:#004283;stroke-miterlimit:10;}
	.st3{fill:#344154;stroke:#344154;stroke-miterlimit:10;}
</style>
<g>
	<path class="st0" d="M1.7,13.8c0.2-0.4,4.4-7.9,13.1-8.2c5.9-0.2,11.5,3,14.4,8.4"/>
	<path class="st0" d="M3.5,14.2C3.9,13.5,7.7,8,14.7,7.7c8.1-0.4,12.6,6.3,12.8,6.6"/>
	<path class="st0" d="M29.1,16.1c-2.5,5.4-8,8.9-13.8,8.7c-5.3-0.1-10.2-3.3-12.7-8.1"/>
	<path class="st0" d="M1.9,13.6c-0.2,0.1-0.6,0.3-0.9,0.7c-0.1,0.2-0.4,0.6-0.4,1.2c0,0.1,0.1,0.8,0.6,1.2c0.5,0.4,1.2,0.4,1.8,0.1"
		/>
</g>
<path class="st1" d="M-10.5,19.2"/>
<path class="st1" d="M-9.8,18.7"/>
<path class="st1" d="M-8.7,18.2"/>
<g>
	<path class="st2" d="M9.6,16.3c0,3.7,3,6.7,6.7,6.7c3.9,0,6.8-3.4,6.7-6.7c0-3.9-3.8-7.4-8.4-6.8"/>
	<path class="st2" d="M9.6,15.7c0,3.1,2.6,5.7,5.7,5.7c3.2,0,5.6-2.8,5.7-5.7c0.1-3.2-2.7-6.1-6.3-6.1"/>
</g>
<path class="st1" d="M-12.7,19.2"/>
<circle class="st3" cx="15.6" cy="15.4" r="2.1"/>
</svg>
