<svg xmlns="http://www.w3.org/2000/svg" width="28" height="32" viewBox="0 0 28 32"><path fill="#79BB45" d="M25 4c.833 0 1.542.292 2.125.875S28 6.167 28 7v22c0 .833-.292 1.542-.875 2.125A2.893 2.893 0 0 1 25 32H3a2.893 2.893 0 0 1-2.125-.875A2.893 2.893 0 0 1 0 29V7c0-.833.292-1.542.875-2.125A2.893 2.893 0 0 1 3 4h3V.75c0-.208.073-.385.219-.531A.723.723 0 0 1 6.75 0h.5c.208 0 .385.073.531.219A.723.723 0 0 1 8 .75V4h12V.75c0-.208.073-.385.219-.531A.723.723 0 0 1 20.75 0h.5c.208 0 .385.073.531.219A.723.723 0 0 1 22 .75V4h3zM3 6a.973.973 0 0 0-.719.281.973.973 0 0 0-.281.72v3h24V7a.973.973 0 0 0-.281-.72.973.973 0 0 0-.72-.28H3zm22 24a.973.973 0 0 0 .719-.281.973.973 0 0 0 .28-.719V12H2v17c0 .292.094.531.281.719A.973.973 0 0 0 3 30h22zM6.75 20a.723.723 0 0 1-.531-.219A.723.723 0 0 1 6 19.25v-2.5c0-.208.073-.385.219-.531A.723.723 0 0 1 6.75 16h2.5c.208 0 .385.073.531.219a.723.723 0 0 1 .219.531v2.5a.723.723 0 0 1-.219.531.723.723 0 0 1-.531.219h-2.5zm6 0a.723.723 0 0 1-.531-.219.723.723 0 0 1-.219-.531v-2.5c0-.208.073-.385.219-.531A.723.723 0 0 1 12.75 16h2.5c.208 0 .385.073.531.219a.723.723 0 0 1 .219.531v2.5a.723.723 0 0 1-.219.531.723.723 0 0 1-.531.219h-2.5zm6 0a.723.723 0 0 1-.531-.219.723.723 0 0 1-.219-.531v-2.5c0-.208.073-.385.219-.531A.723.723 0 0 1 18.75 16h2.5c.208 0 .385.073.531.219a.723.723 0 0 1 .219.531v2.5a.723.723 0 0 1-.219.531.723.723 0 0 1-.531.219h-2.5zm-6 6a.723.723 0 0 1-.531-.219.723.723 0 0 1-.219-.531v-2.5c0-.208.073-.385.219-.531A.723.723 0 0 1 12.75 22h2.5c.208 0 .385.073.531.219a.723.723 0 0 1 .219.531v2.5a.723.723 0 0 1-.219.531.723.723 0 0 1-.531.219h-2.5zm-6 0a.723.723 0 0 1-.531-.219A.723.723 0 0 1 6 25.25v-2.5c0-.208.073-.385.219-.531A.723.723 0 0 1 6.75 22h2.5c.208 0 .385.073.531.219a.723.723 0 0 1 .219.531v2.5a.723.723 0 0 1-.219.531.723.723 0 0 1-.531.219h-2.5zm12 0a.723.723 0 0 1-.531-.219.723.723 0 0 1-.219-.531v-2.5c0-.208.073-.385.219-.531A.723.723 0 0 1 18.75 22h2.5c.208 0 .385.073.531.219a.723.723 0 0 1 .219.531v2.5a.723.723 0 0 1-.219.531.723.723 0 0 1-.531.219h-2.5z"/></svg>