<svg xmlns="http://www.w3.org/2000/svg" width="32" height="32" viewBox="0 0 32 32"><path fill="#79BB45" d="M8 24c-.542 0-1.01-.198-1.406-.594A1.922 1.922 0 0 1 6 22c0-.542.198-1.01.594-1.406A1.922 1.922 0 0 1 8 20c.542 0 1.01.198 1.406.594.396.396.594.864.594 1.406 0 .542-.198 1.01-.594 1.406A1.922 1.922 0 0 1 8 24zm16 0c-.542 0-1.01-.198-1.406-.594A1.922 1.922 0 0 1 22 22c0-.542.198-1.01.594-1.406A1.922 1.922 0 0 1 24 20c.542 0 1.01.198 1.406.594.396.396.594.864.594 1.406 0 .542-.198 1.01-.594 1.406A1.922 1.922 0 0 1 24 24zm6.5-16c.417 0 .77.146 1.062.438.292.291.438.645.438 1.062v5c0 .417-.146.77-.438 1.063A1.447 1.447 0 0 1 30.5 16H30v10c0 .542-.198 1.01-.594 1.406A1.922 1.922 0 0 1 28 28v2c0 .542-.198 1.01-.594 1.406A1.922 1.922 0 0 1 26 32h-3c-.542 0-1.01-.198-1.406-.594A1.922 1.922 0 0 1 21 30v-2H11v2c0 .542-.198 1.01-.594 1.406A1.922 1.922 0 0 1 9 32H6c-.542 0-1.01-.198-1.406-.594A1.922 1.922 0 0 1 4 30v-2c-.542 0-1.01-.198-1.406-.594A1.922 1.922 0 0 1 2 26V16h-.5c-.417 0-.77-.146-1.063-.437A1.447 1.447 0 0 1 0 14.5v-5c0-.417.146-.77.437-1.062A1.447 1.447 0 0 1 1.5 8H2V5c0-.917.625-1.76 1.875-2.531 1.25-.771 2.948-1.375 5.094-1.813C11.115.22 13.459 0 16 0c2.542 0 4.885.219 7.031.656 2.146.438 3.844 1.042 5.094 1.813C29.375 3.239 30 4.083 30 5v3h.5zM9 30v-2H6v2h3zm17 0v-2h-3v2h3zm2-4v-8H4v8h24zm0-10V8H4v8h24zm0-10V5c-.083-.333-.583-.708-1.5-1.125-1.042-.542-2.375-.958-4-1.25C20.542 2.208 18.375 2 16 2s-4.542.208-6.5.625c-1.625.292-2.958.708-4 1.25C4.583 4.292 4.083 4.667 4 5v1h24z"/></svg>