<svg xmlns="http://www.w3.org/2000/svg" width="28" height="32" viewBox="0 0 28 32"><path fill="#79BB45" d="M12 6.688v2.5a.723.723 0 0 1-.219.53.723.723 0 0 1-.531.22h-2.5a.723.723 0 0 1-.531-.22.723.723 0 0 1-.219-.53v-2.5c0-.209.073-.386.219-.532a.723.723 0 0 1 .531-.218h2.5c.208 0 .385.072.531.218a.723.723 0 0 1 .219.532zm4.75-.75h2.5c.208 0 .385.072.531.218a.723.723 0 0 1 .219.532v2.5a.723.723 0 0 1-.219.53.723.723 0 0 1-.531.22h-2.5a.723.723 0 0 1-.531-.22.723.723 0 0 1-.219-.53v-2.5c0-.209.073-.386.219-.532a.723.723 0 0 1 .531-.218zm-8 6h2.5c.208 0 .385.072.531.218a.723.723 0 0 1 .219.532v2.5a.723.723 0 0 1-.219.53.723.723 0 0 1-.531.22h-2.5a.723.723 0 0 1-.531-.22.723.723 0 0 1-.219-.53v-2.5c0-.209.073-.386.219-.532a.723.723 0 0 1 .531-.218zm8 0h2.5c.208 0 .385.072.531.218a.723.723 0 0 1 .219.532v2.5a.723.723 0 0 1-.219.53.723.723 0 0 1-.531.22h-2.5a.723.723 0 0 1-.531-.22.723.723 0 0 1-.219-.53v-2.5c0-.209.073-.386.219-.532a.723.723 0 0 1 .531-.218zm-8 6h2.5c.208 0 .385.072.531.218a.723.723 0 0 1 .219.532v2.5a.723.723 0 0 1-.219.53.723.723 0 0 1-.531.22h-2.5a.723.723 0 0 1-.531-.22.723.723 0 0 1-.219-.53v-2.5c0-.209.073-.386.219-.532a.723.723 0 0 1 .531-.218zm8 0h2.5c.208 0 .385.072.531.218a.723.723 0 0 1 .219.532v2.5a.723.723 0 0 1-.219.53.723.723 0 0 1-.531.22h-2.5a.723.723 0 0 1-.531-.22.723.723 0 0 1-.219-.53v-2.5c0-.209.073-.386.219-.532a.723.723 0 0 1 .531-.218zM28 30.75V32H0v-1.25c0-.208.073-.385.219-.531A.723.723 0 0 1 .75 30H2V1.5c0-.417.146-.77.437-1.062A1.447 1.447 0 0 1 3.5 0h21c.417 0 .77.146 1.062.438.292.291.438.645.438 1.062V30h1.25c.208 0 .385.073.531.219a.723.723 0 0 1 .219.531zM24 30V2H4v28h8v-5.312c0-.209.073-.386.219-.532a.723.723 0 0 1 .531-.218h2.5c.208 0 .385.072.531.218a.723.723 0 0 1 .219.532V30h8z"/></svg>