<svg width="33" height="33" viewBox="0 0 33 33" fill="none" xmlns="http://www.w3.org/2000/svg"><path fill-rule="evenodd" clip-rule="evenodd" d="M21.5062 4.69106C23.6539 4.69106 26.2952 3.98871 29.43 2.58401L29.8812 2.37857C30.3812 2.12857 30.8603 2.1494 31.3187 2.44107C31.777 2.73273 32.0062 3.17023 32.0062 3.75356V20.066C32.0062 20.5535 31.8205 20.9398 31.4493 21.2248L31.3187 21.316C30.0687 22.191 28.8187 22.8368 27.5687 23.2535C26.1937 23.7535 24.7354 24.0035 23.1937 24.0035C22.1937 24.0035 21.152 23.8785 20.0687 23.6285C19.402 23.5035 18.4645 23.2327 17.2562 22.816L16.3862 22.5441C15.8512 22.3816 15.4062 22.2566 15.0512 22.1691L14.8812 22.1285C14.0479 21.9202 13.2562 21.816 12.5062 21.816C10.6729 21.816 9.00623 22.0035 7.50623 22.3785C6.38124 22.6702 5.21457 23.0868 4.00624 23.6285V31.2535C4.00624 31.4618 3.93332 31.6389 3.78749 31.7847C3.64166 31.9306 3.46457 32.0035 3.25624 32.0035H2.75624C2.54791 32.0035 2.37083 31.9306 2.22499 31.7847C2.07916 31.6389 2.00625 31.4618 2.00625 31.2535V5.81606C1.38125 5.60773 0.881248 5.23273 0.506249 4.69106C0.13125 4.14939 -0.0354168 3.51398 0.00625006 2.78481C0.0479169 2.05565 0.349999 1.42024 0.912498 0.878569C1.475 0.336904 2.13125 0.0452384 2.88124 0.00357147C3.79791 -0.0380954 4.57916 0.284821 5.22499 0.972319C5.87082 1.65982 6.13124 2.4619 6.00624 3.37856C7.50623 2.79523 9.1104 2.50357 10.8187 2.50357C11.8187 2.50357 12.8604 2.62857 13.9437 2.87856C14.6104 3.00356 15.5479 3.2744 16.7562 3.69106L17.3512 3.87856C18.1045 4.1119 18.6979 4.27856 19.1312 4.37856C19.9645 4.58689 20.7562 4.69106 21.5062 4.69106ZM3.00624 1.75357C2.67291 1.75357 2.38124 1.87857 2.13124 2.12857C1.88125 2.37857 1.75625 2.67023 1.75625 3.00356C1.75625 3.3369 1.88125 3.62856 2.13124 3.87856C2.38124 4.12856 2.67291 4.25357 3.00624 4.25357C3.33958 4.25357 3.63124 4.12856 3.88124 3.87856C4.13124 3.62856 4.25625 3.3369 4.25625 3.00356C4.25625 2.67023 4.13124 2.37857 3.88124 2.12857C3.63124 1.87857 3.33958 1.75357 3.00624 1.75357ZM27.1312 21.316C28.2145 20.941 29.1728 20.441 30.0062 19.816V4.50356C28.7978 5.08689 27.4854 5.56606 26.0687 5.94106L25.6074 6.07122C24.0854 6.48444 22.7183 6.69106 21.5062 6.69106C20.6312 6.69106 19.7145 6.56606 18.7562 6.31606C18.2789 6.21378 17.6134 6.03481 16.7596 5.77913L14.7743 5.17246L13.5687 4.81606C12.6104 4.60773 11.6937 4.50356 10.8187 4.50356C9.52706 4.50356 8.21456 4.73273 6.88123 5.19106C5.7979 5.56606 4.83957 6.06606 4.00624 6.69106V21.441C5.0479 20.9827 6.3604 20.5973 7.94373 20.2848C9.52706 19.9723 11.0479 19.816 12.5062 19.816C13.3812 19.816 14.2979 19.941 15.2562 20.191C15.7335 20.2933 16.399 20.4723 17.2529 20.728L19.2381 21.3346L20.4437 21.691C21.402 21.8994 22.3187 22.0035 23.1937 22.0035C24.4854 22.0035 25.7979 21.7744 27.1312 21.316Z" fill="#79BB45"/></svg>