<svg width="28" height="32" viewBox="0 0 28 32" fill="none" xmlns="http://www.w3.org/2000/svg"><path fill-rule="evenodd" clip-rule="evenodd" d="M24.9999 4C25.8333 4 26.5416 4.29166 27.1249 4.87499C27.7083 5.45832 27.9999 6.16665 27.9999 6.99998V28.9999C27.9999 29.8333 27.7083 30.5416 27.1249 31.1249C26.5416 31.7083 25.8333 31.9999 24.9999 31.9999H3C2.16666 31.9999 1.45833 31.7083 0.874998 31.1249C0.291666 30.5416 0 29.8333 0 28.9999V6.99998C0 6.16665 0.291666 5.45832 0.874998 4.87499C1.45833 4.29166 2.16666 4 3 4H5.99999V0.749998C5.99999 0.541666 6.0729 0.364582 6.21874 0.218749C6.36457 0.0729168 6.54165 0 6.74998 0H7.24998C7.45832 0 7.6354 0.0729168 7.78123 0.218749C7.92706 0.364582 7.99998 0.541666 7.99998 0.749998V4H20V0.749998C20 0.541666 20.0729 0.364582 20.2187 0.218749C20.3645 0.0729168 20.5416 0 20.75 0H21.2499C21.4583 0 21.6354 0.0729168 21.7812 0.218749C21.927 0.364582 21.9999 0.541666 21.9999 0.749998V4H24.9999ZM3 5.99999C2.70833 5.99999 2.46874 6.09374 2.28124 6.28124C2.09374 6.46873 2 6.70832 2 6.99999V9.99999H25.9999V6.99999C25.9999 6.70832 25.9062 6.46873 25.7187 6.28124C25.5312 6.09374 25.2916 5.99999 24.9999 5.99999H3ZM25.7187 29.7187C25.5312 29.9062 25.2916 29.9999 24.9999 29.9999H3C2.70833 29.9999 2.46874 29.9062 2.28124 29.7187C2.09374 29.5312 2 29.2916 2 28.9999V12H25.9999V28.9999C25.9999 29.2916 25.9062 29.5312 25.7187 29.7187ZM6.74998 20C6.54165 20 6.36457 19.927 6.21874 19.7812C6.0729 19.6354 5.99999 19.4583 5.99999 19.25V16.75C5.99999 16.5416 6.0729 16.3645 6.21874 16.2187C6.36457 16.0729 6.54165 16 6.74998 16H9.24998C9.45831 16 9.63539 16.0729 9.78123 16.2187C9.92706 16.3645 9.99999 16.5416 9.99999 16.75V19.25C9.99999 19.4583 9.92706 19.6354 9.78123 19.7812C9.63539 19.927 9.45831 20 9.24998 20H6.74998ZM12.2187 19.7812C12.3646 19.927 12.5416 20 12.75 20H15.25C15.4583 20 15.6354 19.927 15.7812 19.7812C15.927 19.6354 16 19.4583 16 19.25V16.75C16 16.5416 15.927 16.3645 15.7812 16.2187C15.6354 16.0729 15.4583 16 15.25 16H12.75C12.5416 16 12.3646 16.0729 12.2187 16.2187C12.0729 16.3645 12 16.5416 12 16.75V19.25C12 19.4583 12.0729 19.6354 12.2187 19.7812ZM18.75 20C18.5416 20 18.3645 19.927 18.2187 19.7812C18.0729 19.6354 18 19.4583 18 19.25V16.75C18 16.5416 18.0729 16.3645 18.2187 16.2187C18.3645 16.0729 18.5416 16 18.75 16H21.25C21.4583 16 21.6354 16.0729 21.7812 16.2187C21.927 16.3645 22 16.5416 22 16.75V19.25C22 19.4583 21.927 19.6354 21.7812 19.7812C21.6354 19.927 21.4583 20 21.25 20H18.75ZM12.2187 25.7812C12.3646 25.927 12.5416 25.9999 12.75 25.9999H15.25C15.4583 25.9999 15.6354 25.927 15.7812 25.7812C15.927 25.6354 16 25.4583 16 25.2499V22.7499C16 22.5416 15.927 22.3645 15.7812 22.2187C15.6354 22.0729 15.4583 21.9999 15.25 21.9999H12.75C12.5416 21.9999 12.3646 22.0729 12.2187 22.2187C12.0729 22.3645 12 22.5416 12 22.7499V25.2499C12 25.4583 12.0729 25.6354 12.2187 25.7812ZM6.74998 25.9999C6.54165 25.9999 6.36457 25.927 6.21874 25.7812C6.0729 25.6354 5.99999 25.4583 5.99999 25.2499V22.7499C5.99999 22.5416 6.0729 22.3645 6.21874 22.2187C6.36457 22.0729 6.54165 21.9999 6.74998 21.9999H9.24998C9.45831 21.9999 9.63539 22.0729 9.78123 22.2187C9.92706 22.3645 9.99999 22.5416 9.99999 22.7499V25.2499C9.99999 25.4583 9.92706 25.6354 9.78123 25.7812C9.63539 25.927 9.45831 25.9999 9.24998 25.9999H6.74998ZM18.2187 25.7812C18.3645 25.927 18.5416 25.9999 18.75 25.9999H21.25C21.4583 25.9999 21.6354 25.927 21.7812 25.7812C21.927 25.6354 22 25.4583 22 25.2499V22.7499C22 22.5416 21.927 22.3645 21.7812 22.2187C21.6354 22.0729 21.4583 21.9999 21.25 21.9999H18.75C18.5416 21.9999 18.3645 22.0729 18.2187 22.2187C18.0729 22.3645 18 22.5416 18 22.7499V25.2499C18 25.4583 18.0729 25.6354 18.2187 25.7812Z" fill="#79BB45"/></svg>