<svg width="37" height="28" viewBox="0 0 37 28" fill="none" xmlns="http://www.w3.org/2000/svg"><path fill-rule="evenodd" clip-rule="evenodd" d="M33.2499 22.1249C33.5971 22.7847 34.0167 23.4589 34.5086 24.1475L35.0449 24.8824C35.3316 25.2691 35.5249 25.4958 35.6249 25.5624C35.8332 25.7708 35.9582 26.0208 35.9999 26.3124C36.0416 26.6041 36.0103 26.8749 35.9062 27.1249C35.802 27.3749 35.6249 27.5833 35.3749 27.7499C35.1249 27.9166 34.8541 27.9999 34.5624 27.9999C31.8541 27.9999 29.2499 27.1874 26.7499 25.5624C25.5416 25.8541 24.2916 25.9999 22.9999 25.9999C20.3333 25.9999 17.9166 25.4374 15.75 24.3124C13.5833 23.1874 12 21.7083 11 19.875C10.4166 19.7916 9.83331 19.6875 9.24998 19.5625C6.79165 21.1875 4.18749 21.9999 1.4375 21.9999C1.14583 21.9999 0.885415 21.9166 0.656248 21.7499C0.427082 21.5833 0.249999 21.375 0.125 21.125C0 20.875 -0.0312499 20.6041 0.0312499 20.3125C0.0937498 20.0208 0.218749 19.7812 0.406249 19.5937C0.593749 19.4062 0.874998 19.0625 1.25 18.5625C1.83333 17.7291 2.33333 16.9166 2.74999 16.125C0.916665 14.3333 0 12.2916 0 9.99998C0 8.20831 0.583332 6.54165 1.75 4.99999C2.91666 3.45832 4.48957 2.23958 6.46873 1.34375C8.4479 0.447916 10.625 0 13 0C15.6666 0 18.0833 0.562499 20.25 1.6875C22.4166 2.81249 23.9999 4.29166 24.9999 6.12499C27.0416 6.37498 28.9062 6.96873 30.5937 7.90623C32.2812 8.84373 33.6041 10.0208 34.5624 11.4375C35.5207 12.8541 35.9999 14.375 35.9999 16C35.9999 18.2916 35.0832 20.3333 33.2499 22.1249ZM8.87498 17.4375L9.68748 17.625C10.7708 17.875 11.875 18 13 18C15 18 16.8437 17.6458 18.5312 16.9375C20.2187 16.2291 21.552 15.2604 22.5312 14.0312C23.5104 12.8021 23.9999 11.4583 23.9999 9.99998C23.9999 8.54165 23.5104 7.1979 22.5312 5.96874C21.552 4.73957 20.2187 3.77082 18.5312 3.06249C16.8437 2.35416 15 2 13 2C11 2 9.15623 2.35416 7.46873 3.06249C5.78124 3.77082 4.44791 4.73957 3.46874 5.96874C2.48958 7.1979 2 8.54165 2 9.99998C2 11.75 2.72916 13.3125 4.18749 14.6875L5.18749 15.75L4.56249 17.0625C4.06249 18.0208 3.43749 18.9791 2.68749 19.9375C4.47638 19.743 6.19267 19.1312 7.83637 18.1019L8.87498 17.4375ZM27.1249 23.4374L27.8124 23.8749C29.5624 25.0416 31.3958 25.7291 33.3124 25.9374C32.5624 24.9791 31.9374 23.9999 31.4374 22.9999L30.8124 21.7499L31.8124 20.6875C33.2708 19.3125 33.9999 17.75 33.9999 16C33.9999 14.1666 33.2291 12.5312 31.6874 11.0937C30.1458 9.65623 28.1874 8.70831 25.8124 8.24998C25.9374 8.87498 25.9999 9.45831 25.9999 9.99998C25.9999 11.75 25.4374 13.3854 24.3124 14.9062C23.1874 16.427 21.6666 17.6354 19.75 18.5312C17.8333 19.427 15.75 19.9166 13.5 20C14.4583 21.2083 15.7812 22.177 17.4687 22.9062C19.1562 23.6354 21 23.9999 22.9999 23.9999C24.1249 23.9999 25.2291 23.8749 26.3124 23.6249L27.1249 23.4374Z" fill="#79BB45"/></svg>