<svg width="32" height="32" viewBox="0 0 32 32" fill="none" xmlns="http://www.w3.org/2000/svg"><path fill-rule="evenodd" clip-rule="evenodd" d="M30.4999 8.0001C30.9166 8.0001 31.2708 8.14594 31.5624 8.4376C31.8541 8.72927 31.9999 9.08343 31.9999 9.5001V14.5001C31.9999 14.9168 31.8541 15.2709 31.5624 15.5626C31.2708 15.8543 30.9166 16.0001 30.4999 16.0001H29.9999V26.0001C29.9999 26.5417 29.802 27.0105 29.4062 27.4063C29.0103 27.8021 28.5416 28.0001 27.9999 28.0001V30.0001C27.9999 30.5417 27.802 31.0105 27.4062 31.4063C27.0104 31.8021 26.5416 32 25.9999 32H22.9999C22.4583 32 21.9895 31.8021 21.5937 31.4063C21.1979 31.0105 21 30.5417 21 30.0001V28.0001H11V30.0001C11 30.5417 10.8021 31.0105 10.4062 31.4063C10.0104 31.8021 9.54165 32 8.99998 32H5.99999C5.45832 32 4.98957 31.8021 4.59374 31.4063C4.19791 31.0105 4 30.5417 4 30.0001V28.0001C3.45832 28.0001 2.98958 27.8021 2.59374 27.4063C2.19791 27.0105 2 26.5417 2 26.0001V16.0001H1.5C1.08333 16.0001 0.729165 15.8543 0.437499 15.5626C0.145833 15.2709 0 14.9168 0 14.5001V9.5001C0 9.08343 0.145833 8.72927 0.437499 8.4376C0.729165 8.14594 1.08333 8.0001 1.5 8.0001H2V5.00011C2 4.08345 2.62499 3.2397 3.87499 2.46887C5.12499 1.69804 6.8229 1.09387 8.96873 0.656371C11.1146 0.218872 13.4583 0.00012207 16 0.00012207C18.5416 0.00012207 20.8854 0.218872 23.0312 0.656371C25.177 1.09387 26.8749 1.69804 28.1249 2.46887C29.3749 3.2397 29.9999 4.08345 29.9999 5.00011V8.0001H30.4999ZM6.59373 23.4063C6.98957 23.8021 7.45832 24.0001 7.99999 24.0001C8.54165 24.0001 9.0104 23.8021 9.40623 23.4063C9.80206 23.0105 9.99999 22.5417 9.99999 22.0001C9.99999 21.4584 9.80206 20.9897 9.40623 20.5938C9.0104 20.198 8.54165 20.0001 7.99999 20.0001C7.45832 20.0001 6.98957 20.198 6.59373 20.5938C6.1979 20.9897 5.99999 21.4584 5.99999 22.0001C5.99999 22.5417 6.1979 23.0105 6.59373 23.4063ZM22.5937 23.4063C22.9895 23.8021 23.4583 24.0001 23.9999 24.0001C24.5416 24.0001 25.0104 23.8021 25.4062 23.4063C25.802 23.0105 25.9999 22.5417 25.9999 22.0001C25.9999 21.4584 25.802 20.9897 25.4062 20.5938C25.0104 20.198 24.5416 20.0001 23.9999 20.0001C23.4583 20.0001 22.9895 20.198 22.5937 20.5938C22.1979 20.9897 21.9999 21.4584 21.9999 22.0001C21.9999 22.5417 22.1979 23.0105 22.5937 23.4063ZM8.99999 28.0001V30.0001H5.99999V28.0001H8.99999ZM25.9999 30.0001V28.0001H22.9999V30.0001H25.9999ZM27.9999 18.0001V26.0001H3.99999V18.0001H27.9999ZM27.9999 16.0001V8.0001H3.99999V16.0001H27.9999ZM27.9999 5.00012V6.00012H3.99999V5.00012C4.08332 4.66678 4.58332 4.29178 5.49999 3.87511C6.54165 3.33345 7.87498 2.91678 9.49998 2.62512C11.4583 2.20845 13.625 2.00012 16 2.00012C18.375 2.00012 20.5416 2.20845 22.4999 2.62512C24.1249 2.91678 25.4583 3.33345 26.4999 3.87511C27.4166 4.29178 27.9166 4.66678 27.9999 5.00012Z" fill="#79BB45"/></svg>