<svg width="28" height="32" viewBox="0 0 28 32" fill="none" xmlns="http://www.w3.org/2000/svg"><path fill-rule="evenodd" clip-rule="evenodd" d="M27.9999 30.75V32H0V30.75C0 30.5417 0.0729168 30.3646 0.218749 30.2188C0.364582 30.073 0.541666 30 0.749998 30H2V1.50012C2 1.08345 2.14583 0.729287 2.43749 0.437621C2.72916 0.145955 3.08333 0.00012207 3.5 0.00012207H24.4999C24.9166 0.00012207 25.2708 0.145955 25.5624 0.437621C25.8541 0.729287 25.9999 1.08345 25.9999 1.50012V30H27.2499C27.4583 30 27.6354 30.073 27.7812 30.2188C27.927 30.3646 27.9999 30.5417 27.9999 30.75ZM12 9.1876V6.68761C12 6.47927 11.9271 6.30219 11.7812 6.15636C11.6354 6.01052 11.4583 5.93761 11.25 5.93761H8.74998C8.54165 5.93761 8.36456 6.01052 8.21873 6.15636C8.0729 6.30219 7.99998 6.47927 7.99998 6.68761V9.1876C7.99998 9.39593 8.0729 9.57302 8.21873 9.71885C8.36456 9.86468 8.54165 9.93761 8.74998 9.93761H11.25C11.4583 9.93761 11.6354 9.86468 11.7812 9.71885C11.9271 9.57302 12 9.39593 12 9.1876ZM19.25 5.93761H16.75C16.5416 5.93761 16.3645 6.01052 16.2187 6.15636C16.0729 6.30219 16 6.47927 16 6.68761V9.1876C16 9.39593 16.0729 9.57302 16.2187 9.71885C16.3645 9.86468 16.5416 9.93761 16.75 9.93761H19.25C19.4583 9.93761 19.6354 9.86468 19.7812 9.71885C19.927 9.57302 20 9.39593 20 9.1876V6.68761C20 6.47927 19.927 6.30219 19.7812 6.15636C19.6354 6.01052 19.4583 5.93761 19.25 5.93761ZM8.74998 11.9376H11.25C11.4583 11.9376 11.6354 12.0105 11.7812 12.1563C11.9271 12.3022 12 12.4793 12 12.6876V15.1876C12 15.3959 11.9271 15.573 11.7812 15.7188C11.6354 15.8647 11.4583 15.9376 11.25 15.9376H8.74998C8.54165 15.9376 8.36456 15.8647 8.21873 15.7188C8.0729 15.573 7.99998 15.3959 7.99998 15.1876V12.6876C7.99998 12.4793 8.0729 12.3022 8.21873 12.1563C8.36456 12.0105 8.54165 11.9376 8.74998 11.9376ZM19.25 11.9376H16.75C16.5416 11.9376 16.3645 12.0105 16.2187 12.1563C16.0729 12.3022 16 12.4793 16 12.6876V15.1876C16 15.3959 16.0729 15.573 16.2187 15.7188C16.3645 15.8647 16.5416 15.9376 16.75 15.9376H19.25C19.4583 15.9376 19.6354 15.8647 19.7812 15.7188C19.927 15.573 20 15.3959 20 15.1876V12.6876C20 12.4793 19.927 12.3022 19.7812 12.1563C19.6354 12.0105 19.4583 11.9376 19.25 11.9376ZM8.74998 17.9376H11.25C11.4583 17.9376 11.6354 18.0105 11.7812 18.1563C11.9271 18.3022 12 18.4792 12 18.6876V21.1876C12 21.3959 11.9271 21.573 11.7812 21.7188C11.6354 21.8647 11.4583 21.9376 11.25 21.9376H8.74998C8.54165 21.9376 8.36456 21.8647 8.21873 21.7188C8.0729 21.573 7.99998 21.3959 7.99998 21.1876V18.6876C7.99998 18.4792 8.0729 18.3022 8.21873 18.1563C8.36456 18.0105 8.54165 17.9376 8.74998 17.9376ZM19.25 17.9376H16.75C16.5416 17.9376 16.3645 18.0105 16.2187 18.1563C16.0729 18.3022 16 18.4792 16 18.6876V21.1876C16 21.3959 16.0729 21.573 16.2187 21.7188C16.3645 21.8647 16.5416 21.9376 16.75 21.9376H19.25C19.4583 21.9376 19.6354 21.8647 19.7812 21.7188C19.927 21.573 20 21.3959 20 21.1876V18.6876C20 18.4792 19.927 18.3022 19.7812 18.1563C19.6354 18.0105 19.4583 17.9376 19.25 17.9376ZM23.9999 2.00012V30H16V24.6876C16 24.4792 15.927 24.3021 15.7812 24.1563C15.6354 24.0105 15.4583 23.9376 15.25 23.9376H12.75C12.5416 23.9376 12.3646 24.0105 12.2187 24.1563C12.0729 24.3021 12 24.4792 12 24.6876V30H3.99999V2.00012H23.9999Z" fill="#79BB45"/></svg>