<svg width="40" height="28" viewBox="0 0 40 28" fill="none" xmlns="http://www.w3.org/2000/svg"><path fill-rule="evenodd" clip-rule="evenodd" d="M20 14C18.75 14 17.5833 13.6875 16.5 13.0625C15.4166 12.4375 14.5625 11.5833 13.9375 10.5C13.3125 9.41665 13 8.24998 13 6.99998C13 5.74999 13.3125 4.58332 13.9375 3.5C14.5625 2.41666 15.4166 1.5625 16.5 0.937498C17.5833 0.312499 18.75 0 20 0C21.25 0 22.4166 0.312499 23.4999 0.937498C24.5833 1.5625 25.4374 2.41666 26.0624 3.5C26.6874 4.58332 26.9999 5.74999 26.9999 6.99998C26.9999 8.24998 26.6874 9.41665 26.0624 10.5C25.4374 11.5833 24.5833 12.4375 23.4999 13.0625C22.4166 13.6875 21.25 14 20 14ZM30.4687 10.5312C31.4478 11.5104 32.6249 12 33.9999 12C35.3749 12 36.552 11.5104 37.5312 10.5312C38.5103 9.55206 38.9999 8.37498 38.9999 6.99998C38.9999 5.62499 38.5103 4.44791 37.5312 3.46874C36.552 2.48958 35.3749 2 33.9999 2C32.6249 2 31.4478 2.48958 30.4687 3.46874C29.4895 4.44791 28.9999 5.62499 28.9999 6.99998C28.9999 8.37498 29.4895 9.55206 30.4687 10.5312ZM31.8749 4.87499C32.4583 4.29166 33.1666 3.99999 33.9999 3.99999C34.8332 3.99999 35.5416 4.29166 36.1249 4.87499C36.7082 5.45832 36.9999 6.16665 36.9999 6.99999C36.9999 7.83331 36.7082 8.54165 36.1249 9.12498C35.5416 9.70831 34.8332 9.99998 33.9999 9.99998C33.1666 9.99998 32.4583 9.70831 31.8749 9.12498C31.2916 8.54165 30.9999 7.83331 30.9999 6.99999C30.9999 6.16665 31.2916 5.45832 31.8749 4.87499ZM16.4687 3.46874C17.4479 2.48958 18.625 2 20 2C21.3749 2 22.552 2.48958 23.5312 3.46874C24.5104 4.44791 24.9999 5.62499 24.9999 6.99998C24.9999 8.37498 24.5104 9.55206 23.5312 10.5312C22.552 11.5104 21.3749 12 20 12C18.625 12 17.4479 11.5104 16.4687 10.5312C15.4895 9.55206 15 8.37498 15 6.99998C15 5.62499 15.4895 4.44791 16.4687 3.46874ZM35.2499 14C36.5416 14 37.6562 14.4895 38.5937 15.4687C39.5312 16.4479 39.9999 17.625 39.9999 19C39.9999 19.2916 39.9062 19.5312 39.7187 19.7187C39.5312 19.9062 39.2916 20 38.9999 20C38.7082 20 38.4687 19.9062 38.2812 19.7187C38.0937 19.5312 37.9999 19.2916 37.9999 19C37.9999 18.1666 37.7291 17.4583 37.1874 16.875C36.6457 16.2916 35.9999 16 35.2499 16H32.7499C32.4166 16 32.0833 16.0625 31.7499 16.1875C31.2916 15.6875 30.7708 15.2291 30.1874 14.8125C30.9791 14.2708 31.8333 14 32.7499 14H35.2499ZM2.46874 10.5312C3.44791 11.5104 4.62499 12 5.99999 12C7.37498 12 8.55206 11.5104 9.53123 10.5312C10.5104 9.55206 11 8.37498 11 6.99998C11 5.62499 10.5104 4.44791 9.53123 3.46874C8.55206 2.48958 7.37498 2 5.99999 2C4.62499 2 3.44791 2.48958 2.46874 3.46874C1.48958 4.44791 0.999998 5.62499 0.999998 6.99998C0.999998 8.37498 1.48958 9.55206 2.46874 10.5312ZM5.99999 3.99999C5.16665 3.99999 4.45832 4.29166 3.87499 4.87499C3.29166 5.45832 2.99999 6.16665 2.99999 6.99999C2.99999 7.83331 3.29166 8.54165 3.87499 9.12498C4.45832 9.70831 5.16665 9.99998 5.99999 9.99998C6.83332 9.99998 7.54165 9.70831 8.12498 9.12498C8.70831 8.54165 8.99998 7.83331 8.99998 6.99999C8.99998 6.16665 8.70831 5.45832 8.12498 4.87499C7.54165 4.29166 6.83332 3.99999 5.99999 3.99999ZM28.2812 16C27.2604 15.5 26.1666 15.25 24.9999 15.25C24.3333 15.25 23.5624 15.375 22.6874 15.625C21.7291 15.875 20.8333 16 20 16C19.1666 16 18.2708 15.875 17.3125 15.625C16.4375 15.375 15.6666 15.25 15 15.25C13.8333 15.25 12.7396 15.5 11.7187 16C10.6979 16.5 9.87498 17.2291 9.24998 18.1875C8.41665 19.3958 7.99998 20.7291 7.99998 22.1874V24.9999C7.99998 25.8333 8.29165 26.5416 8.87498 27.1249C9.45831 27.7083 10.1666 27.9999 11 27.9999H28.9999C29.8333 27.9999 30.5416 27.7083 31.1249 27.1249C31.7083 26.5416 31.9999 25.8333 31.9999 24.9999V22.1874C31.9999 20.7291 31.5833 19.3958 30.7499 18.1875C30.1249 17.2291 29.302 16.5 28.2812 16ZM29.9999 24.9999V22.1874C29.9999 21.1458 29.7083 20.1875 29.1249 19.3125C28.6666 18.6458 28.0833 18.1354 27.3749 17.7812C26.6666 17.427 25.8749 17.25 24.9999 17.25C24.4999 17.25 23.8749 17.3541 23.1249 17.5625C22.0416 17.8541 21 18 20 18C19 18 17.9583 17.8541 16.875 17.5625C16.125 17.3541 15.5 17.25 15 17.25C14.125 17.25 13.3229 17.427 12.5937 17.7812C11.8646 18.1354 11.2916 18.6458 10.875 19.3125C10.2916 20.1875 9.99998 21.1458 9.99998 22.1874V24.9999C9.99998 25.2916 10.0937 25.5312 10.2812 25.7187C10.4687 25.9062 10.7083 25.9999 11 25.9999H28.9999C29.2916 25.9999 29.5312 25.9062 29.7187 25.7187C29.9062 25.5312 29.9999 25.2916 29.9999 24.9999ZM8.24998 16.1875C8.70831 15.6875 9.22914 15.2291 9.81248 14.8125C9.02081 14.2708 8.16665 14 7.24998 14H4.74999C3.45832 14 2.34374 14.4895 1.40625 15.4687C0.468749 16.4479 0 17.625 0 19C0 19.2916 0.0937498 19.5312 0.281249 19.7187C0.468749 19.9062 0.708331 20 1 20C1.29166 20 1.53125 19.9062 1.71875 19.7187C1.90625 19.5312 2 19.2916 2 19C2 18.1666 2.27083 17.4583 2.81249 16.875C3.35416 16.2916 4 16 4.74999 16H7.24998C7.58331 16 7.91665 16.0625 8.24998 16.1875Z" fill="#79BB45"/></svg>