<?xml version="1.0" encoding="utf-8"?>
<!-- Generator: Adobe Illustrator 19.0.1, SVG Export Plug-In . SVG Version: 6.00 Build 0)  -->
<svg version="1.1" id="Слой_1" xmlns="http://www.w3.org/2000/svg" xmlns:xlink="http://www.w3.org/1999/xlink" x="0px" y="0px"
	 viewBox="0 0 30 30" style="enable-background:new 0 0 30 30;" xml:space="preserve">
<style type="text/css">
	.st0{fill:#FFFFFF;stroke:#344154;stroke-miterlimit:10;}
	.st1{fill:#004283;stroke:#004283;stroke-miterlimit:10;}
</style>
<polygon class="st0" points="21.1,8.9 20.5,4.4 24.1,1.6 28.3,3.3 29,7.8 25.4,10.6 "/>
<polygon class="st0" points="17.1,17.9 16.5,13.4 20.1,10.6 24.3,12.3 25,16.8 21.4,19.6 "/>
<polygon class="st0" points="11.1,9.9 10.5,5.4 14.1,2.6 18.3,4.3 19,8.8 15.4,11.6 "/>
<polygon class="st0" points="7.1,18.9 6.5,14.4 10.1,11.6 14.3,13.3 15,17.8 11.4,20.6 "/>
<polygon class="st0" points="13.1,26.9 12.5,22.4 16.1,19.6 20.3,21.3 21,25.8 17.4,28.6 "/>
<polyline class="st0" points="2.5,23.4 6.1,20.6 10.3,22.3 11,26.8 7.4,29.6 "/>
<polyline class="st0" points="4.1,3.6 8.3,5.3 9,9.8 5.4,12.6 1.1,10.9 "/>
<circle class="st1" cx="14.5" cy="7" r="1"/>
<circle class="st1" cx="10.5" cy="16" r="1"/>
<circle class="st1" cx="20.5" cy="15" r="1"/>
<circle class="st1" cx="24.5" cy="6" r="1"/>
<circle class="st1" cx="16.5" cy="24" r="1"/>
</svg>
