<svg width="12" height="9" viewBox="0 0 12 9" fill="none" xmlns="http://www.w3.org/2000/svg"><path d="M4.07812 8.78904L0.164062 4.89843C0.0546873 4.78905 0 4.64843 0 4.47655C0 4.30468 0.0546873 4.16405 0.164062 4.05468L1.03125 3.21093C1.14062 3.08593 1.27734 3.02344 1.4414 3.02344C1.60546 3.02344 1.75 3.08593 1.875 3.21093L4.49999 5.83592L10.125 0.210937C10.25 0.0859375 10.3945 0.0234375 10.5586 0.0234375C10.7226 0.0234375 10.8593 0.0859375 10.9687 0.210937L11.8359 1.05468C11.9453 1.16406 12 1.30468 12 1.47656C12 1.64843 11.9453 1.78906 11.8359 1.89843L4.92186 8.78904C4.81249 8.91404 4.67186 8.97654 4.49999 8.97654C4.32811 8.97654 4.18749 8.91404 4.07812 8.78904Z" fill="#7AB800"/></svg>