<svg width="12" height="11" viewBox="0 0 12 11" fill="none" xmlns="http://www.w3.org/2000/svg"><path fill-rule="evenodd" clip-rule="evenodd" d="M9.0117 0.906248C8.09764 0.468749 7.09373 0.25 5.99999 0.25C4.90624 0.25 3.90233 0.468749 2.98827 0.906248C2.07421 1.34375 1.34765 1.93359 0.808592 2.67578C0.269531 3.41796 0 4.23437 0 5.12499C0 6.21874 0.414062 7.20311 1.24218 8.07811C1.10156 8.46873 0.874998 8.87498 0.562499 9.29685C0.359374 9.5781 0.222656 9.75388 0.152343 9.8242C0.0820311 9.89451 0.0351562 9.98435 0.0117187 10.0937C-0.0117187 10.2031 0 10.3086 0.0468749 10.4101C0.0937498 10.5117 0.164062 10.5937 0.257812 10.6562C0.351562 10.7187 0.453124 10.75 0.562499 10.75C1.71875 10.75 2.80468 10.3906 3.8203 9.67185C4.53905 9.8906 5.26561 9.99998 5.99999 9.99998C7.09373 9.99998 8.09764 9.78123 9.0117 9.34373C9.92576 8.90623 10.6523 8.31639 11.1914 7.5742C11.7304 6.83202 12 6.01561 12 5.12499C12 4.23437 11.7304 3.41796 11.1914 2.67578C10.6523 1.93359 9.92576 1.34375 9.0117 0.906248ZM8.43748 8.37107C7.68748 8.70701 6.87498 8.87498 5.99999 8.87498C5.37499 8.87498 4.76561 8.78123 4.17187 8.59373L3.6328 8.42967L3.16406 8.73435C2.74218 9.04685 2.29687 9.28123 1.82812 9.43748C2.01562 9.10935 2.17187 8.78904 2.29687 8.47654L2.53124 7.82029L2.0625 7.30467C1.4375 6.64842 1.125 5.92186 1.125 5.12499C1.125 4.45311 1.34375 3.82812 1.78125 3.24999C2.21874 2.67187 2.81249 2.21484 3.56249 1.8789C4.31249 1.54297 5.125 1.375 5.99999 1.375C6.87498 1.375 7.68748 1.54297 8.43748 1.8789C9.18748 2.21484 9.78123 2.67187 10.2187 3.24999C10.6562 3.82812 10.875 4.45311 10.875 5.12499C10.875 5.79686 10.6562 6.42186 10.2187 6.99998C9.78123 7.57811 9.18748 8.03514 8.43748 8.37107Z" fill="#7AB800"/></svg>