<svg width="11" height="13" viewBox="0 0 11 13" fill="none" xmlns="http://www.w3.org/2000/svg"><path fill-rule="evenodd" clip-rule="evenodd" d="M5.24999 7.24998C4.64061 7.24998 4.07812 7.09764 3.56249 6.79295C3.04687 6.48827 2.63671 6.07811 2.33203 5.56249C2.02734 5.04686 1.875 4.48437 1.875 3.87499C1.875 3.26562 2.02734 2.70312 2.33203 2.1875C2.63671 1.67187 3.04687 1.26172 3.56249 0.95703C4.07812 0.652343 4.64061 0.5 5.24999 0.5C5.85936 0.5 6.42186 0.652343 6.93748 0.95703C7.45311 1.26172 7.86326 1.67187 8.16795 2.1875C8.47264 2.70312 8.62498 3.26562 8.62498 3.87499C8.62498 4.48437 8.47264 5.04686 8.16795 5.56249C7.86326 6.07811 7.45311 6.48827 6.93748 6.79295C6.42186 7.09764 5.85936 7.24998 5.24999 7.24998ZM8.92967 8.04686C8.44529 7.76561 7.92186 7.62498 7.35936 7.62498C7.15623 7.62498 6.89061 7.67967 6.56248 7.78904C6.34373 7.85154 6.16405 7.89842 6.02342 7.92967C5.78905 7.97654 5.53124 7.99998 5.24999 7.99998C4.96874 7.99998 4.71093 7.97654 4.47655 7.92967C4.33593 7.89842 4.15624 7.85154 3.93749 7.78904C3.60937 7.67967 3.34374 7.62498 3.14062 7.62498C2.57812 7.62498 2.05468 7.76561 1.57031 8.04686C1.08593 8.32811 0.703123 8.71092 0.421874 9.19529C0.140625 9.67967 0 10.2031 0 10.7656V11.375C0 11.6875 0.109375 11.9531 0.328124 12.1718C0.546874 12.3906 0.812498 12.5 1.125 12.5H9.37498C9.68748 12.5 9.9531 12.3906 10.1719 12.1718C10.3906 11.9531 10.5 11.6875 10.5 11.375V10.7656C10.5 10.2031 10.3594 9.67967 10.0781 9.19529C9.79685 8.71092 9.41404 8.32811 8.92967 8.04686ZM9.37498 10.7656V11.375H1.125V10.7656C1.125 10.2187 1.32422 9.74607 1.72265 9.34764C2.12109 8.9492 2.59374 8.74998 3.14062 8.74998C3.21874 8.74998 3.37499 8.78123 3.60937 8.84373C4.18749 9.03123 4.73827 9.12498 5.26171 9.12498C5.78514 9.12498 6.32811 9.03123 6.89061 8.84373C7.10936 8.78123 7.26561 8.74998 7.35936 8.74998C7.90623 8.74998 8.37889 8.9492 8.77732 9.34764C9.17576 9.74607 9.37498 10.2187 9.37498 10.7656ZM3.65624 2.28125C4.09374 1.84375 4.62499 1.625 5.24999 1.625C5.87499 1.625 6.40623 1.84375 6.84373 2.28125C7.28123 2.71874 7.49998 3.24999 7.49998 3.87499C7.49998 4.49999 7.28123 5.03124 6.84373 5.46874C6.40623 5.90624 5.87499 6.12499 5.24999 6.12499C4.62499 6.12499 4.09374 5.90624 3.65624 5.46874C3.21874 5.03124 2.99999 4.49999 2.99999 3.87499C2.99999 3.24999 3.21874 2.71874 3.65624 2.28125Z" fill="#7AB800"/></svg>