<svg width="13" height="13" viewBox="0 0 13 13" fill="none" xmlns="http://www.w3.org/2000/svg"><path fill-rule="evenodd" clip-rule="evenodd" d="M12.1566 1.0392H12.18L9.95349 0.523575C9.70349 0.461075 9.46521 0.488419 9.23864 0.605607C9.01208 0.722794 8.84411 0.906387 8.73474 1.15639L7.72693 3.52357C7.63318 3.74232 7.61365 3.96888 7.66833 4.20325C7.72302 4.43763 7.84412 4.63294 8.03162 4.78919L8.96911 5.53919C8.28162 6.80481 7.30505 7.77356 6.03943 8.44543L5.28943 7.50793C5.13318 7.33606 4.93787 7.21887 4.7035 7.15637C4.46912 7.09387 4.24256 7.1095 4.02381 7.20325L1.65663 8.23449C1.40663 8.32824 1.22304 8.49231 1.10585 8.72668C0.988663 8.96105 0.96132 9.20324 1.02382 9.45324L1.53944 11.6564C1.58632 11.9064 1.70741 12.1095 1.90272 12.2657C2.09804 12.422 2.32069 12.5001 2.57069 12.5001C4.46131 12.5001 6.21912 12.0235 7.84412 11.0704C9.40661 10.1642 10.6488 8.92199 11.5707 7.34387C12.5238 5.7345 13.0004 3.9845 13.0004 2.09388C13.0004 1.82826 12.9222 1.59779 12.766 1.40248C12.6097 1.20717 12.4066 1.08607 12.1566 1.0392ZM7.28162 10.1095C5.84412 10.9532 4.28944 11.3751 2.61757 11.3751L2.12538 9.2423L4.44569 8.25793L5.73475 9.85168C6.89099 9.3048 7.81677 8.68762 8.51208 8.00012C9.20739 7.31262 9.82067 6.39075 10.3519 5.2345L8.75818 3.94544L9.74255 1.62514L11.8754 2.11732C11.8754 3.78919 11.4535 5.34388 10.6097 6.78137C9.78161 8.17199 8.67224 9.28137 7.28162 10.1095Z" fill="#7AB800"/></svg>