<svg xmlns="http://www.w3.org/2000/svg" width="20" height="30" viewBox="0 0 20 30">
    <g fill="none" fill-rule="evenodd" transform="translate(1 1)">
        <path fill="#344154" fill-rule="nonzero" d="M9.248 0c2.478 0 4.823.973 6.549 2.7 1.77 1.77 2.7 4.07 2.7 6.548a9.239 9.239 0 0 1-2.7 6.549c-1.648 1.689-3.832 2.572-6.017 2.686l-.001 4.349h4.425c.265 0 .487.222.487.487 0 .31-.222.487-.487.487H9.779v4.513c-.044.222-.221.443-.487.443a.491.491 0 0 1-.486-.487l-.001-4.469H4.336a.491.491 0 0 1-.486-.487c0-.265.22-.486.486-.486l4.469-.001v-4.348a9.152 9.152 0 0 1-6.062-2.687C.973 14.027 0 11.726 0 9.248 0 6.77.973 4.425 2.7 2.7 4.47.93 6.77 0 9.247 0zm.044.885a8.34 8.34 0 0 0-5.885 2.434A8.232 8.232 0 0 0 .973 9.204a8.34 8.34 0 0 0 2.434 5.885c3.23 3.23 8.54 3.23 11.77 0a8.232 8.232 0 0 0 2.434-5.885 8.34 8.34 0 0 0-2.434-5.885C13.584 1.77 11.505.885 9.292.885zm-.044 2.168c1.637 0 3.186.62 4.336 1.77 1.15 1.15 1.77 2.7 1.77 4.337a.446.446 0 0 1-.442.53.491.491 0 0 1-.487-.486 5.19 5.19 0 0 0-1.504-3.673c-.974-.973-2.257-1.504-3.673-1.504a.491.491 0 0 1-.487-.487c0-.266.222-.487.487-.487z"/>
        <path fill="#344154" fill-rule="nonzero" d="M9.248-.05c2.485 0 4.845.974 6.584 2.714C17.6 4.43 18.546 6.74 18.546 9.248a9.288 9.288 0 0 1-2.713 6.584 8.791 8.791 0 0 1-6.003 2.651l-.051 4.299h4.425c.293 0 .537.244.537.537a.514.514 0 0 1-.537.537l-4.375-.05v4.523c-.055.27-.267.483-.537.483a.541.541 0 0 1-.536-.537l.049-4.419H4.336a.541.541 0 0 1-.536-.537c0-.293.243-.536.536-.536l4.419.049.048-4.298a9.2 9.2 0 0 1-6.095-2.702C.923 14.047-.05 11.731-.05 9.248c0-2.485.974-4.845 2.714-6.584C4.43.896 6.74-.05 9.248-.05zm0 .1c-2.482 0-4.765.936-6.513 2.685A9.189 9.189 0 0 0 .05 9.248c0 2.456.962 4.747 2.729 6.514 1.636 1.636 3.755 2.557 6.076 2.722l-.05 4.398H4.336a.441.441 0 0 0-.436.437c0 .238.199.437.436.437l4.519.05v4.47c0 .237.2.436.437.436.218 0 .393-.175.437-.393l.05-4.563h4.425c.255 0 .437-.17.437-.437a.441.441 0 0 0-.437-.436l-4.475-.051.048-4.399c2.261-.118 4.403-1.05 5.985-2.671a9.189 9.189 0 0 0 2.684-6.514c0-2.482-.936-4.765-2.684-6.513A9.189 9.189 0 0 0 9.248.05zm.044.785c2.204 0 4.302.874 5.92 2.448a8.39 8.39 0 0 1 2.45 5.92c0 2.244-.859 4.331-2.45 5.921-3.249 3.25-8.59 3.25-11.84 0a8.39 8.39 0 0 1-2.449-5.92c0-2.243.859-4.33 2.449-5.92A8.39 8.39 0 0 1 9.292.834zm0 .1a8.29 8.29 0 0 0-5.85 2.419 8.182 8.182 0 0 0-2.419 5.85 8.29 8.29 0 0 0 2.42 5.85c3.21 3.21 8.488 3.21 11.7 0a8.182 8.182 0 0 0 2.418-5.85 8.29 8.29 0 0 0-2.418-5.85C13.543 1.8 11.469.936 9.293.936zm-.044 2.068c1.662 0 3.22.633 4.372 1.785 1.152 1.152 1.784 2.71 1.784 4.364.047.328-.183.589-.492.589a.541.541 0 0 1-.537-.537 5.14 5.14 0 0 0-1.49-3.638c-.967-.967-2.239-1.49-3.637-1.49a.541.541 0 0 1-.537-.536c0-.293.244-.537.537-.537zm0 .1a.441.441 0 0 0-.437.437c0 .238.2.437.437.437 1.424 0 2.722.533 3.708 1.519a5.239 5.239 0 0 1 1.52 3.708c0 .238.198.437.436.437.248 0 .431-.208.392-.481 0-1.636-.622-3.168-1.755-4.301-1.133-1.134-2.665-1.756-4.3-1.756z"/>
        <circle cx="7.5" cy="10.5" r="3.5" fill="#004283"/>
    </g>
</svg>
